<mxfile host="app.diagrams.net" modified="2023-07-26T06:37:10.942Z" agent="Mozilla/5.0 (Windows NT 10.0; Win64; x64) AppleWebKit/537.36 (KHTML, like Gecko) Chrome/113.0.0.0 Safari/537.36" etag="Sr3ItmKoh2hOTiewdvCW" version="21.6.5" type="github">
  <diagram name="Page-1" id="awysnZiYpdVaLNosTabu">
    <mxGraphModel dx="1643" dy="730" grid="1" gridSize="10" guides="1" tooltips="1" connect="1" arrows="1" fold="1" page="1" pageScale="1" pageWidth="827" pageHeight="1169" math="0" shadow="0">
      <root>
        <mxCell id="0" />
        <mxCell id="1" parent="0" />
        <UserObject label="" tags="Background" id="LqAOF11i0ZwZVFPnW95y-1">
          <mxCell style="vsdxID=1;fillColor=#FFFFFF;gradientColor=none;shape=stencil(nZBRDoQgDERP03+WHsHFe5iISyOCQdT19kIaIxq//Jtp3zTpAFaTaUYNUkwx+F6v1EYD+AUpyRkdKCYFqACrzgf9C352LfuxyWRWg1/yhT/nRE5IsZWuZtCSK8CPeI0e/hF+jV7AJM4PO7KWCyr390bSiNtEtQM=);strokeColor=#000000;spacingTop=-3;spacingBottom=-3;spacingLeft=-3;spacingRight=-3;points=[];labelBackgroundColor=none;rounded=0;html=1;whiteSpace=wrap;" vertex="1" parent="1">
            <mxGeometry x="341" y="857" width="319" height="212" as="geometry" />
          </mxCell>
        </UserObject>
        <UserObject label="" tags="Background" id="LqAOF11i0ZwZVFPnW95y-2">
          <mxCell style="vsdxID=2;fillColor=#FFFFFF;gradientColor=none;shape=stencil(nZBRDoQgDERP03+WHsHFe5iISyOCQdT19kIaIxq//Jtp3zTpAFaTaUYNUkwx+F6v1EYD+AUpyRkdKCYFqACrzgf9C352LfuxyWRWg1/yhT/nRE5IsZWuZtCSK8CPeI0e/hF+jV7AJM4PO7KWCyr390bSiNtEtQM=);strokeColor=#000000;spacingTop=-3;spacingBottom=-3;spacingLeft=-3;spacingRight=-3;points=[];labelBackgroundColor=none;rounded=0;html=1;whiteSpace=wrap;" vertex="1" parent="1">
            <mxGeometry x="1030" y="261" width="445" height="266" as="geometry" />
          </mxCell>
        </UserObject>
        <UserObject label="&lt;div style=&quot;font-size: 1px&quot;&gt;&lt;p style=&quot;text-align:center;margin-left:0;margin-right:0;margin-top:0px;margin-bottom:0px;text-indent:0;vertical-align:middle;direction:ltr;&quot;&gt;&lt;font style=&quot;font-size:12px;font-family:0;color:#000000;direction:ltr;letter-spacing:0px;line-height:120%;opacity:1&quot;&gt;&lt;b&gt;&lt;br/&gt;&lt;br/&gt;&lt;/b&gt;&lt;/font&gt;&lt;font style=&quot;font-size:12px;font-family:0;color:#000000;direction:ltr;letter-spacing:0px;line-height:120%;opacity:1&quot;&gt;&lt;b&gt;&lt;br/&gt;&lt;br/&gt;&lt;/b&gt;&lt;/font&gt;&lt;font style=&quot;font-size:12px;font-family:0;color:#000000;direction:ltr;letter-spacing:0px;line-height:120%;opacity:1&quot;&gt;&lt;b&gt;数据处理（Data Enhance）&lt;/b&gt;&lt;/font&gt;&lt;/p&gt;&lt;/div&gt;" tags="Background" id="LqAOF11i0ZwZVFPnW95y-3">
          <mxCell style="verticalAlign=middle;align=center;overflow=width;vsdxID=3;fillColor=#FFFFFF;gradientColor=none;shape=stencil(nZBRDoQgDERP03+WHsHFe5iISyOCQdT19kIaIxq//Jtp3zTpAFaTaUYNUkwx+F6v1EYD+AUpyRkdKCYFqACrzgf9C352LfuxyWRWg1/yhT/nRE5IsZWuZtCSK8CPeI0e/hF+jV7AJM4PO7KWCyr390bSiNtEtQM=);strokeColor=#000000;spacingTop=-3;spacingBottom=-3;spacingLeft=-3;spacingRight=-3;points=[];labelBackgroundColor=none;rounded=0;html=1;whiteSpace=wrap;" vertex="1" parent="1">
            <mxGeometry x="341" y="54" width="435" height="97" as="geometry" />
          </mxCell>
        </UserObject>
        <UserObject label="&lt;div style=&quot;font-size: 1px&quot;&gt;&lt;p style=&quot;text-align:center;margin-left:0;margin-right:0;margin-top:0px;margin-bottom:0px;text-indent:0;vertical-align:middle;direction:ltr;&quot;&gt;&lt;font style=&quot;font-size:12px;font-family:0;color:#000000;direction:ltr;letter-spacing:0px;line-height:120%;opacity:1&quot;&gt;DataSet（无监督）&lt;/font&gt;&lt;/p&gt;&lt;/div&gt;" tags="Background" id="LqAOF11i0ZwZVFPnW95y-4">
          <mxCell style="verticalAlign=middle;align=center;overflow=width;vsdxID=4;fillColor=#FFFFFF;gradientColor=none;shape=stencil(nZBRDoQgDERP03+WHsHFe5iISyOCQdT19kIaIxq//Jtp3zTpAFaTaUYNUkwx+F6v1EYD+AUpyRkdKCYFqACrzgf9C352LfuxyWRWg1/yhT/nRE5IsZWuZtCSK8CPeI0e/hF+jV7AJM4PO7KWCyr390bSiNtEtQM=);strokeColor=#000000;spacingTop=-3;spacingBottom=-3;spacingLeft=-3;spacingRight=-3;points=[];labelBackgroundColor=none;rounded=0;html=1;whiteSpace=wrap;" vertex="1" parent="1">
            <mxGeometry x="369" y="68" width="81" height="52" as="geometry" />
          </mxCell>
        </UserObject>
        <UserObject label="&lt;div style=&quot;font-size: 1px&quot;&gt;&lt;p style=&quot;text-align:center;margin-left:0;margin-right:0;margin-top:0px;margin-bottom:0px;text-indent:0;vertical-align:middle;direction:ltr;&quot;&gt;&lt;font style=&quot;font-size:12px;font-family:0;color:#000000;direction:ltr;letter-spacing:0px;line-height:120%;opacity:1&quot;&gt;LDA主题模型进行主题&lt;/font&gt;&lt;/p&gt;&lt;/div&gt;" tags="Background" id="LqAOF11i0ZwZVFPnW95y-5">
          <mxCell style="verticalAlign=middle;align=center;overflow=width;vsdxID=5;fillColor=#FFFFFF;gradientColor=none;shape=stencil(nZBRDoQgDERP03+WHsHFe5iISyOCQdT19kIaIxq//Jtp3zTpAFaTaUYNUkwx+F6v1EYD+AUpyRkdKCYFqACrzgf9C352LfuxyWRWg1/yhT/nRE5IsZWuZtCSK8CPeI0e/hF+jV7AJM4PO7KWCyr390bSiNtEtQM=);strokeColor=#000000;spacingTop=-3;spacingBottom=-3;spacingLeft=-3;spacingRight=-3;points=[];labelBackgroundColor=none;rounded=0;html=1;whiteSpace=wrap;" vertex="1" parent="1">
            <mxGeometry x="520" y="68" width="81" height="52" as="geometry" />
          </mxCell>
        </UserObject>
        <UserObject label="&lt;div style=&quot;font-size: 1px&quot;&gt;&lt;p style=&quot;text-align:center;margin-left:0;margin-right:0;margin-top:0px;margin-bottom:0px;text-indent:0;vertical-align:middle;direction:ltr;&quot;&gt;&lt;font style=&quot;font-size:12px;font-family:0;color:#000000;direction:ltr;letter-spacing:0px;line-height:120%;opacity:1&quot;&gt;主题聚类&lt;/font&gt;&lt;/p&gt;&lt;/div&gt;" tags="Background" id="LqAOF11i0ZwZVFPnW95y-6">
          <mxCell style="verticalAlign=middle;align=center;overflow=width;vsdxID=6;fillColor=#FFFFFF;gradientColor=none;shape=stencil(nZBRDoQgDERP03+WHsHFe5iISyOCQdT19kIaIxq//Jtp3zTpAFaTaUYNUkwx+F6v1EYD+AUpyRkdKCYFqACrzgf9C352LfuxyWRWg1/yhT/nRE5IsZWuZtCSK8CPeI0e/hF+jV7AJM4PO7KWCyr390bSiNtEtQM=);strokeColor=#000000;spacingTop=-3;spacingBottom=-3;spacingLeft=-3;spacingRight=-3;points=[];labelBackgroundColor=none;rounded=0;html=1;whiteSpace=wrap;" vertex="1" parent="1">
            <mxGeometry x="671" y="68" width="81" height="52" as="geometry" />
          </mxCell>
        </UserObject>
        <UserObject label="&lt;div style=&quot;font-size: 1px&quot;&gt;&lt;p style=&quot;text-align:center;margin-left:0;margin-right:0;margin-top:0px;margin-bottom:0px;text-indent:0;vertical-align:middle;direction:ltr;&quot;&gt;&lt;font style=&quot;font-size:15px;font-family:0;color:#000000;direction:ltr;letter-spacing:0px;line-height:120%;opacity:1&quot;&gt;&lt;b&gt;&lt;br/&gt;&lt;br/&gt;&lt;/b&gt;&lt;/font&gt;&lt;font style=&quot;font-size:15px;font-family:0;color:#000000;direction:ltr;letter-spacing:0px;line-height:120%;opacity:1&quot;&gt;&lt;b&gt;&lt;br/&gt;&lt;br/&gt;&lt;/b&gt;&lt;/font&gt;&lt;font style=&quot;font-size:15px;font-family:0;color:#000000;direction:ltr;letter-spacing:0px;line-height:120%;opacity:1&quot;&gt;&lt;b&gt;&lt;br/&gt;&lt;br/&gt;&lt;/b&gt;&lt;/font&gt;&lt;font style=&quot;font-size:15px;font-family:0;color:#000000;direction:ltr;letter-spacing:0px;line-height:120%;opacity:1&quot;&gt;&lt;b&gt;&lt;br/&gt;&lt;br/&gt;&lt;/b&gt;&lt;/font&gt;&lt;font style=&quot;font-size:15px;font-family:0;color:#000000;direction:ltr;letter-spacing:0px;line-height:120%;opacity:1&quot;&gt;&lt;b&gt;&lt;br/&gt;&lt;br/&gt;&lt;/b&gt;&lt;/font&gt;&lt;font style=&quot;font-size:15px;font-family:0;color:#000000;direction:ltr;letter-spacing:0px;line-height:120%;opacity:1&quot;&gt;&lt;b&gt;&lt;br/&gt;&lt;br/&gt;&lt;/b&gt;&lt;/font&gt;&lt;font style=&quot;font-size:15px;font-family:0;color:#000000;direction:ltr;letter-spacing:0px;line-height:120%;opacity:1&quot;&gt;&lt;b&gt;&lt;br/&gt;&lt;br/&gt;&lt;/b&gt;&lt;/font&gt;&lt;font style=&quot;font-size:15px;font-family:0;color:#000000;direction:ltr;letter-spacing:0px;line-height:120%;opacity:1&quot;&gt;&lt;b&gt;&lt;br/&gt;&lt;br/&gt;&lt;/b&gt;&lt;/font&gt;&lt;font style=&quot;font-size:15px;font-family:0;color:#000000;direction:ltr;letter-spacing:0px;line-height:120%;opacity:1&quot;&gt;&lt;b&gt;&lt;br/&gt;&lt;br/&gt;&lt;/b&gt;&lt;/font&gt;&lt;font style=&quot;font-size:15px;font-family:0;color:#000000;direction:ltr;letter-spacing:0px;line-height:120%;opacity:1&quot;&gt;&lt;b&gt;&lt;br/&gt;&lt;br/&gt;&lt;/b&gt;&lt;/font&gt;&lt;font style=&quot;font-size:15px;font-family:0;color:#000000;direction:ltr;letter-spacing:0px;line-height:120%;opacity:1&quot;&gt;&lt;b&gt;&lt;br/&gt;&lt;br/&gt;&lt;/b&gt;&lt;/font&gt;&lt;font style=&quot;font-size:NaNpx;font-family:0;color:#000000;direction:ltr;letter-spacing:0px;line-height:120%;opacity:1&quot;&gt;&lt;b&gt;训练&lt;/b&gt;&lt;/font&gt;&lt;font style=&quot;font-size:15px;font-family:0;color:#000000;direction:ltr;letter-spacing:0px;line-height:120%;opacity:1&quot;&gt;&lt;b&gt;&lt;br/&gt;&lt;/b&gt;&lt;/font&gt;&lt;/p&gt;&lt;/div&gt;" tags="Background" id="LqAOF11i0ZwZVFPnW95y-7">
          <mxCell style="verticalAlign=middle;align=center;overflow=width;vsdxID=7;fillColor=#FFFFFF;gradientColor=none;shape=stencil(nZBRDoQgDERP03+WHsHFe5iISyOCQdT19kIaIxq//Jtp3zTpAFaTaUYNUkwx+F6v1EYD+AUpyRkdKCYFqACrzgf9C352LfuxyWRWg1/yhT/nRE5IsZWuZtCSK8CPeI0e/hF+jV7AJM4PO7KWCyr390bSiNtEtQM=);strokeColor=#000000;spacingTop=-3;spacingBottom=-3;spacingLeft=-3;spacingRight=-3;points=[];labelBackgroundColor=none;rounded=0;html=1;whiteSpace=wrap;" vertex="1" parent="1">
            <mxGeometry x="983" y="32" width="498" height="141" as="geometry" />
          </mxCell>
        </UserObject>
        <UserObject label="&lt;div style=&quot;font-size: 1px&quot;&gt;&lt;p style=&quot;text-align:center;margin-left:0;margin-right:0;margin-top:0px;margin-bottom:0px;text-indent:0;vertical-align:middle;direction:ltr;&quot;&gt;&lt;font style=&quot;font-size:12px;font-family:0;color:#000000;direction:ltr;letter-spacing:0px;line-height:120%;opacity:1&quot;&gt;三元组训练方式&lt;/font&gt;&lt;/p&gt;&lt;/div&gt;" tags="Background" id="LqAOF11i0ZwZVFPnW95y-8">
          <mxCell style="verticalAlign=middle;align=center;overflow=width;vsdxID=8;fillColor=#FFFFFF;gradientColor=none;shape=stencil(nZBRDoQgDERP03+WHsHFe5iISyOCQdT19kIaIxq//Jtp3zTpAFaTaUYNUkwx+F6v1EYD+AUpyRkdKCYFqACrzgf9C352LfuxyWRWg1/yhT/nRE5IsZWuZtCSK8CPeI0e/hF+jV7AJM4PO7KWCyr390bSiNtEtQM=);strokeColor=#000000;spacingTop=-3;spacingBottom=-3;spacingLeft=-3;spacingRight=-3;points=[];labelBackgroundColor=none;rounded=0;html=1;whiteSpace=wrap;" vertex="1" parent="1">
            <mxGeometry x="1021" y="68" width="81" height="52" as="geometry" />
          </mxCell>
        </UserObject>
        <UserObject label="&lt;div style=&quot;font-size: 1px&quot;&gt;&lt;p style=&quot;text-align:center;margin-left:0;margin-right:0;margin-top:0px;margin-bottom:0px;text-indent:0;vertical-align:middle;direction:ltr;&quot;&gt;&lt;font style=&quot;font-size:15px;font-family:0;color:#000000;direction:ltr;letter-spacing:0px;line-height:120%;opacity:1&quot;&gt;souce与candidate_1来自同一主题_1&lt;br/&gt;&lt;/font&gt;&lt;font style=&quot;font-size:15px;font-family:0;color:#000000;direction:ltr;letter-spacing:0px;line-height:120%;opacity:1&quot;&gt;candidate_2来自于和主题_1距离最远的主题_2&lt;br/&gt;&lt;/font&gt;&lt;/p&gt;&lt;/div&gt;" tags="Background" id="LqAOF11i0ZwZVFPnW95y-9">
          <mxCell style="verticalAlign=middle;align=center;overflow=width;vsdxID=9;fillColor=#FFFFFF;gradientColor=none;shape=stencil(nZBRDoQgDERP03+WHsHFe5iISyOCQdT19kIaIxq//Jtp3zTpAFaTaUYNUkwx+F6v1EYD+AUpyRkdKCYFqACrzgf9C352LfuxyWRWg1/yhT/nRE5IsZWuZtCSK8CPeI0e/hF+jV7AJM4PO7KWCyr390bSiNtEtQM=);strokeColor=#000000;spacingTop=-3;spacingBottom=-3;spacingLeft=-3;spacingRight=-3;points=[];labelBackgroundColor=none;rounded=0;html=1;whiteSpace=wrap;" vertex="1" parent="1">
            <mxGeometry x="1135" y="51" width="189" height="86" as="geometry" />
          </mxCell>
        </UserObject>
        <UserObject label="&lt;div style=&quot;font-size: 1px&quot;&gt;&lt;p style=&quot;text-align:center;margin-left:0;margin-right:0;margin-top:0px;margin-bottom:0px;text-indent:0;vertical-align:middle;direction:ltr;&quot;&gt;&lt;font style=&quot;font-size:12px;font-family:0;color:#000000;direction:ltr;letter-spacing:0px;line-height:120%;opacity:1&quot;&gt;同主题相似度高，不同主题相似度低&lt;/font&gt;&lt;/p&gt;&lt;/div&gt;" tags="Background" id="LqAOF11i0ZwZVFPnW95y-10">
          <mxCell style="verticalAlign=middle;align=center;overflow=width;vsdxID=10;fillColor=#FFFFFF;gradientColor=none;shape=stencil(nZBRDoQgDERP03+WHsHFe5iISyOCQdT19kIaIxq//Jtp3zTpAFaTaUYNUkwx+F6v1EYD+AUpyRkdKCYFqACrzgf9C352LfuxyWRWg1/yhT/nRE5IsZWuZtCSK8CPeI0e/hF+jV7AJM4PO7KWCyr390bSiNtEtQM=);strokeColor=#000000;spacingTop=-3;spacingBottom=-3;spacingLeft=-3;spacingRight=-3;points=[];labelBackgroundColor=none;rounded=0;html=1;whiteSpace=wrap;" vertex="1" parent="1">
            <mxGeometry x="1357" y="57" width="99" height="75" as="geometry" />
          </mxCell>
        </UserObject>
        <UserObject label="" tags="Background" id="LqAOF11i0ZwZVFPnW95y-11">
          <mxCell style="vsdxID=11;fillColor=none;gradientColor=none;image;aspect=fixed;image=data:image/jpeg,/9j/4AAQSkZJRgABAQEAYABgAAD/2wBDAAMCAgMCAgMDAwMEAwMEBQgFBQQEBQoHBwYIDAoMDAsKCwsNDhIQDQ4RDgsLEBYQERMUFRUVDA8XGBYUGBIUFRT/2wBDAQMEBAUEBQkFBQkUDQsNFBQUFBQUFBQUFBQUFBQUFBQUFBQUFBQUFBQUFBQUFBQUFBQUFBQUFBQUFBQUFBQUFBT/wAARCAEkAnwDASIAAhEBAxEB/8QAHwAAAQUBAQEBAQEAAAAAAAAAAAECAwQFBgcICQoL/8QAtRAAAgEDAwIEAwUFBAQAAAF9AQIDAAQRBRIhMUEGE1FhByJxFDKBkaEII0KxwRVS0fAkM2JyggkKFhcYGRolJicoKSo0NTY3ODk6Q0RFRkdISUpTVFVWV1hZWmNkZWZnaGlqc3R1dnd4eXqDhIWGh4iJipKTlJWWl5iZmqKjpKWmp6ipqrKztLW2t7i5usLDxMXGx8jJytLT1NXW19jZ2uHi4+Tl5ufo6erx8vP09fb3+Pn6/8QAHwEAAwEBAQEBAQEBAQAAAAAAAAECAwQFBgcICQoL/8QAtREAAgECBAQDBAcFBAQAAQJ3AAECAxEEBSExBhJBUQdhcRMiMoEIFEKRobHBCSMzUvAVYnLRChYkNOEl8RcYGRomJygpKjU2Nzg5OkNERUZHSElKU1RVVldYWVpjZGVmZ2hpanN0dXZ3eHl6goOEhYaHiImKkpOUlZaXmJmaoqOkpaanqKmqsrO0tba3uLm6wsPExcbHyMnK0tPU1dbX2Nna4uPk5ebn6Onq8vP09fb3+Pn6/9oADAMBAAIRAxEAPwD9U6KKKACiiigAooooAKKKKACiiigAooooAKKKKACiiigAooooAKKKKACiiigAooooAKKKKACiiigAooooAKKKKACiiigAooooAKKKKACiiigAooooAKKKKACiiigAooooAKKKKACiiigAooooAKKKKACiiigAooooAKKKKACiiigAooooAKKKKACiiigAooooAKKKKACiiigAooooAKxdQ/4/JPw/kK2qxdQ/4/JPw/kKANqiiigAooooAKKKKACiiigAooooAKKKKACiiigAooooAKKKKACiiigAooooAKKKKACiiigAooooAKKK8A8K+Dm/aC1TxR4h8Wa1rQ0W11q80fSdA0nVJ9PtoIbWZoGmlMDo0sskiO2WYhVKqoHJIB7/AEV5F/wyv4B/u+JP/Cr1T/5Jo/4ZX8A/3fEn/hV6p/8AJNAHrtFeRf8ADK/gH+74k/8ACr1T/wCSaP8AhlfwD/d8Sf8AhV6p/wDJNAHrtFeRf8Mr+Af7viT/AMKvVP8A5Jo/4ZX8A/3fEn/hV6p/8k0Aeu0V5F/wyv4B/u+JP/Cr1T/5Jo/4ZX8A/wB3xJ/4Veqf/JNAHrtFeRf8Mr+Af7viT/wq9U/+SaP+GV/AP93xJ/4Veqf/ACTQB67RXkX/AAyv4B/u+JP/AAq9U/8Akmj/AIZX8A/3fEn/AIVeqf8AyTQB67RXkX/DK/gH+74k/wDCr1T/AOSaP+GV/AP93xJ/4Veqf/JNAHrtFeRf8Mr+Af7viT/wq9U/+SaP+GV/AP8Ad8Sf+FXqn/yTQB67RXkX/DK/gH+74k/8KvVP/kmj/hlfwD/d8Sf+FXqn/wAk0Aeu0V4TN4dn+A/xG8ER6Frer3nhPxPfvot5omsahLfrbTfZ5Z4bi3kmZpE5gZHTcVIcEAFefdqACiiigAooooAKKKKACiiigAooooAKKKKACiiigAooooAKKKKACiiigAooooAKKKKACiiigAooooAKxdQ/4/JPw/kK2qxdQ/4/JPw/kKANqiiigAooooAKKKKACiiigAooooAKKKKACiiigAooooAKKKKACiiigAooooAKKKKACiiigAooooAK8k/Zm/5EnxD/ANjbr3/pynr1uvJP2Zv+RJ8Q/wDY269/6cp6APW6+aV8Z/Ez4+fFTx5o3gTxdZ/D3wf4Jvl0WbUv7Ij1G71PUREkkygSsEjijDovALMSeQK+lq+WNIs/Hv7M/wAWPiRLpvw91b4h+B/G2r/8JFaXHh2e2F1YXskSR3EM8U0keUYxqyupIGSDQB6JrPxqf4MaD4X0Px3NP4x+IWprMItO8GaTLLPfpEfnnW33Hy0CFNxZtoZsAngU2H9rLwDcfDl/F0cmquserr4fbQ/7NlGrLqjMFWyNsRuExyDjpjnOOa8+8RR/EXQfjN4O+M1x8Nb/AFKK58M3Xh3V/DOkX1vdX+lFrtZ4JlLMiS7lUK4RvlJGNwGa5u3+Emp33hD4leKfHnww1vVx468V2+sReGNDvoV1XRYYLdIre7EiyoBcBogxETkrvAy2GFAHr3ib4yR6nY/DjUIr7xB4C/tjxVFpD6Xqmgj7TeN5cp+zSq5/co2zd5yE9BjrWZ4m/bc+HXhfUvElrPbeJLuHwxqL6dr9/Y6LNPa6SylR5txKo2rGd3BGThSSAOa810X4d/FnxF4S+FJ8S2esai2i/E1dUtv7cuIJNUtNCSGZYWvXjO15QX5wS2GXPOa2ZvhD4uf4D/tTaH/Ycp1XxZrOv3Oi229N17HPZxJCyndgbmUgbsdKAPYviF+0J4b+H+saZosdjrfivX9Rs21GHSfC+ntfXAtAQPtDhSAkZYhQSRuPABwa6r4dfEPQfit4N03xT4avPt2j36M0UjRtG6srFHR0YBkdXVlZSMgqRXyX41+Cvibwz8VvD/jW68P+Ndd0S88FafoN5B4F1x7C/wBPvLZmbEiJPF50TCQjIY7WXpg5r6Q/Z78F6f4F+F9hYab4b1XwnFNcXN7Jpet3wvLxJZZnd3llEkgLOW3n5zjdg85oA8U+BfxP+IHxp+IWv3E3xM0nw7e6D4iubG/+GcujRNPDYRTFFZ5WcTb5IwJBKuY8sBggEV3I/aH8O/Duy+K3iHxX4uvdS0Pw54mh0qdG0pYhpJljt9sKFCTMgM6uZDz8zDHHPlHxg8M+Lvjz4w8JGx+Cmq+BPiJouu2tyfH095afZ7KzimBm2XEUnmXKyRBkERQff+YLim+Pvgf441fwj8c7S08PTz3GvfEnSdZ02MSR/wCk2cR07zJhluAvky8HB+Q8UAeoxftueBZtUu9FXQ/GY8TpGlzaeHG8OXC6jqNs+7FzbxEfNFhGyzFdvAOCQDf1T49aD408P/CPxN4Z8XXmkaN4p8SR6fFGukiZ75xHcb7KcSYa2w0L7nHKtHjvmrUngfW2/bLg8YjTn/4R1fAT6SdQyu37UdQWURYzuzsBbpivFfCfwP8AHOn+C/hLZXHh+eK40f4uaj4gvozJH+40+SbUWSc/N90iaI4HPzjigD0L4R/Gy+0jQ/i7qviV9c8TLpfxD1LRtNsdLsZL26ES+UIoIo41ztGW5bAHOTXWaf8AtXeCrvwF448U3lvreiL4JG7XtJ1XTng1CzBQSITET8wZDuUqSCM88V4vqXgL4teD/A/xCPh3TNYtBq3xWutXv4tDnhj1S70GTZvezd22rIxVe4baGxg4rk/+FF+PdW+G/wC1FHbeEvE1u/jLSLCHQLXxNq63+o3hjt5EYSStK+1skfIzfKCBnsAD3a//AGjtJ8bQ+CNQ0PVfEXhPS9Q8W2mlW9xe+HT5fiCOWKV1SIy4KwSBc+eBkbRxzWD4L/bZi1TxB8W4de8E+J9P0bwRcysLyHRZTttorWOaTzyWwspLOVUYym0966n47fD3X/E8fwPTSNLe7GgeMdN1DUVjZVFtbRQTK8hyRkAsowMnmsr4W+GfEPhT4+fGXRdc8GX934X8a6lHq1r4gjaF7Aw/YIYJIJQXEgctEw27CCGz0oA9TvvjR4Xs77wBaJcy3s3jlm/sUWkRkE0a25uGlb+7GIwCWPdlHeu6r4j/AGKPh/rY+LHiW312VL7RfhDHc+A/DVyr7xKslwbiSQns6W/2KEjttYGvtygDyP47f8jV8HP+xyT/ANN97XrleR/Hb/kavg5/2OSf+m+9r1ygAooooAKKKKACiiigAooooAKKKKACiiigAooooAKKKKACiiigAooooAKKKKACiiigAooooAKKKKACsXUP+PyT8P5CtqsXUP8Aj8k/D+QoA2qKKKACiiigAooooAKKKKACiiigAooooAKKKKACiiigAooooAKKKKACiiigAooooAKKKKACiiigArwXRNY8QfADVfEukXngzXvFfhnUtYutY0rVPDUCXckX2mQzS29xDvV1ZJGfa4DKysuSCCD71RQB45/w0kP+iXfEr/wnT/8AHKP+Gkh/0S74lf8AhOn/AOOV7HRQB45/w0kP+iXfEr/wnT/8co/4aSH/AES74lf+E6f/AI5XsdFAHjn/AA0kP+iXfEr/AMJ0/wDxyj/hpIf9Eu+JX/hOn/45XsdFAHjn/DSQ/wCiXfEr/wAJ0/8Axyj/AIaSH/RLviV/4Tp/+OV7HRQB4X4i/a00rwjoOoa3rXw8+ImmaRp8D3V3eXHh4iOCJAWZ2O/gAAk1bs/2nrfULOC6tvhn8SJ7aeNZYpU8OnDqwyCPn6EEVS/bq1BdL/Y++LcznAbw/cQc+sgEY/Vq9C+Ceorq/wAGfAV8pytzoFhMD/vW8Z/rQByH/DSQ/wCiXfEr/wAJ0/8Axyj/AIaSH/RLviV/4Tp/+OV7HRQB45/w0kP+iXfEr/wnT/8AHKP+Gkh/0S74lf8AhOn/AOOV7HRQB45/w0kP+iXfEr/wnT/8co/4aSH/AES74lf+E6f/AI5XsdFAHz/4P+LWgeAbC7svD/wc+Iml213eT6jcJD4db97cTOXllYmQkszEkk1u/wDDSQ/6Jd8Sv/CdP/xyvY6KAPDobrxB8cPiB4P1B/CWr+EfCPhe8k1V5/EEaW93f3hglgiiigVmZY1EzuzvjJCqoPJHuNFFABRRRQAUUUUAFFFFABRRRQAUUUUAFFFFABRRRQAUUUUAFFFFABRRRQAUUUUAFFFFABRRRQAUUUUAFYuof8fkn4fyFbVYuof8fkn4fyFAG1RRRQAUUUUAFFFFABRRRQAUUUUAFFFFABRRRQAUUUUAFFFFABRRRQAUUUUAFcB4t/aA+GXgHWpdH8SfEHwzoOrRKrSWOo6tBBMgIyCyMwIyOeR0Nd5JIsMbyOdqKCzMewHevlr9jH4c+GviB8G5viB4l8N6TrWueNtb1LXp7rUrKK4k8uS6kSBAzqSFWGOMAdBQB6h/w1n8FP8AorXgv/we23/xdH/DWfwU/wCiteC//B7bf/F103/CmPh9/wBCL4a/8FFv/wDEUf8ACmPh9/0Ivhr/AMFFv/8AEUAcz/w1n8FP+iteC/8Awe23/wAXR/w1n8FP+iteC/8Awe23/wAXXTf8KY+H3/Qi+Gv/AAUW/wD8RR/wpj4ff9CL4a/8FFv/APEUAcz/AMNZ/BT/AKK14L/8Htt/8XR/w1n8FP8AorXgv/we23/xddN/wpj4ff8AQi+Gv/BRb/8AxFH/AApj4ff9CL4a/wDBRb//ABFAHM/8NZ/BT/orXgv/AMHtt/8AF0f8NZ/BT/orXgv/AMHtt/8AF103/CmPh9/0Ivhr/wAFFv8A/EUf8KY+H3/Qi+Gv/BRb/wDxFAHM/wDDWfwU/wCiteC//B7bf/F0f8NZ/BT/AKK14L/8Htt/8XXTf8KY+H3/AEIvhr/wUW//AMRR/wAKY+H3/Qi+Gv8AwUW//wARQBzP/DWfwU/6K14L/wDB7bf/ABdH/DWfwU/6K14L/wDB7bf/ABddN/wpj4ff9CL4a/8ABRb/APxFH/CmPh9/0Ivhr/wUW/8A8RQBzP8Aw1n8FP8AorXgv/we23/xdH/DWfwU/wCiteC//B7bf/F103/CmPh9/wBCL4a/8FFv/wDEUf8ACmPh9/0Ivhr/AMFFv/8AEUAfNX7X3xd8C/tAfC/T/hL4F8caH4k13xzrun6O0Gi6hFdSwWvnLNczssbEqiRQsSTx0rV/ZR/aW+Hvg/4B+FPCnjfx34f8MeLvDEUnh/U9L1jU4ba4hltJGgyUdgcMqKwPQhhX0fofw48JeGb4X2j+F9F0q9VSouLHT4YZAD1G5VBwaj1T4XeDNc1Ca+1LwjoWoXsxzJc3WmwyyOcYyzMpJ/GgDjv+Gs/gp/0VrwX/AOD22/8Ai6P+Gs/gp/0VrwX/AOD22/8Ai66b/hTHw+/6EXw1/wCCi3/+Io/4Ux8Pv+hF8Nf+Ci3/APiKAOZ/4az+Cn/RWvBf/g9tv/i6P+Gs/gp/0VrwX/4Pbb/4uum/4Ux8Pv8AoRfDX/got/8A4ij/AIUx8Pv+hF8Nf+Ci3/8AiKAOZ/4az+Cn/RWvBf8A4Pbb/wCLo/4az+Cn/RWvBf8A4Pbb/wCLrpv+FMfD7/oRfDX/AIKLf/4ij/hTHw+/6EXw1/4KLf8A+IoA5n/hrP4Kf9Fa8F/+D22/+Lo/4az+Cn/RWvBf/g9tv/i66b/hTHw+/wChF8Nf+Ci3/wDiKP8AhTHw+/6EXw1/4KLf/wCIoA5n/hrP4Kf9Fa8F/wDg9tv/AIuj/hrP4Kf9Fa8F/wDg9tv/AIuum/4Ux8Pv+hF8Nf8Agot//iKP+FMfD7/oRfDX/got/wD4igDmf+Gs/gp/0VrwX/4Pbb/4uj/hrP4Kf9Fa8F/+D22/+Lrpv+FMfD7/AKEXw1/4KLf/AOIo/wCFMfD7/oRfDX/got//AIigDmf+Gs/gp/0VrwX/AOD22/8Ai6P+Gs/gp/0VrwX/AOD22/8Ai66b/hTHw+/6EXw1/wCCi3/+Io/4Ux8Pv+hF8Nf+Ci3/APiKAIvBPxw+HnxI1KTTvCnjnw74k1COPzXtdK1OG4lVAcFtqMTjJHPuK7evln9pzwP4c+FOufB/4h+HNC03QLzRvGljYXk2m2cduZbG+3Wk0b7ANwzJG3PQqK+pqACiiigAooooAKKKKACiiigAooooAKKKKACiiigAooooAKKKKACiiigAooooAKxdQ/4/JPw/kK2qxdQ/4/JPw/kKANqiiigAooooAKKKKACiiigAooooAKKKKACiiigAooooAKKKKACiiigAooooA534jXx034e+KLwHBt9LupQf92Fj/SvOP2LdPGl/sl/CSADH/FNWUp+rxK5/Vq9f1TTbXWtNu9PvoVubK7heCeF+kkbKVZT7EEiq/hvw7pvg/wAP6boejWcen6TpttHaWlpFnZDCihUQZ7AAD8KANKiiigAooooAKKKKACiiigAooooAKKKKACiiigAooooAKKKKACiiigAooooAKKKKACiiigAooooAKKKKAPnf9vyMJ+y/4gvv49O1LSL1D6Mmp2xBr6HVtyg+tYvjTwTofxE8M3nh7xJpsOr6LebPtFncZ2SbHV1zgjoyKfwraACgAdBQAtFFFABRRRQAUUUUAFFFFABRRRQAUUUUAFFFFABRRRQAUUUUAFFFFABRRRQAVi6h/wAfkn4fyFbVYuof8fkn4fyFAG1RRRQAUUUUAFFFFAHJfE3xvJ4D8Npd2tmuoaneXUVhY2rvsSSeRsLvbB2oBliQCcKcc1wf9sfFBuW8ReGUY8lU0WcgewJucmtn49f8eHgz/sZrP/0CWnVyVqkotJHPUm4uyMX+1vif/wBDJ4b/APBHN/8AJNH9rfE//oZPDf8A4I5v/kmtqvJPiB42+Ifh/wCI/hzw/o0HheWw8QSXEdpNfi582HyYPNYybDg5wQMViqs27XMlUm+p6D/a3xP/AOhk8N/+COb/AOSaP7W+J/8A0Mnhv/wRzf8AyTWvB5vkR+ds87aN/l527sc4zzjNPpe2n3F7SXcreEviF4m0/wAYaboHiv8As2/i1ZZRY6lpcL2+2aNN7RSxO79UDMGDfwkEdDXb+PvGEHgHwfqmv3FvJdpZRblt4iA8zkhUQE8AszKMnpmvL9V/5KX8N/8AsJ3P/pFPXUftEf8AJIdZ/wCu1n/6Vw12U5OULs6acnKN2c8uu/FK5USyax4Y0935NrHpc84i/wBnzDOu/H97aM+gpf7W+J//AEMnhv8A8Ec3/wAk1uSf6xvrTa4/bT7nN7SXcxf7W+J//QyeG/8AwRzf/JNH9rfE/wD6GTw3/wCCOb/5JrzvVvG3xItfi9ZeEbaDwmbK9sbjVIbmYXXmrBFNHHsYA43kSA5HHFevU/azsncbqTXUxf7W+J//AEMnhv8A8Ec3/wAk1LpvxE8YeF9e0iHxRJpGr6Pqd3HYfatNtZLWa0mkyIiytI4dGbCnBBBYHkZxq1yvxC/1Hhr/ALGPS/8A0qSqhVm5JNjjUk5JNnvFFFFd52BRRRQAUUUUAFZPizxPY+C/Depa5qTOtjYQNPL5a7nIA+6o7sTgAdyRWtXm/wC0X/yRrxF9IP8A0ojpAY0fxJ+I14izxeFNAsYpBuW3vdXlM6A9A+yAqG9QCQPU0v8AwsD4k/8AQv8Ahf8A8Gtx/wDI9asv+sf6mmV5/tpnF7WRm/8ACwPiT/0L/hf/AMGtx/8AI9H/AAsD4k/9C/4X/wDBrcf/ACPXJfGb4jax8LPClz4hsfDkXiDT7KIy3m7UBavGNyqu0FG35Le2MV1Xhi+1fUdJSfXNKh0a/LEG1guxdKF7HeFXr6Y4p+2na4/aT3H/APCwPiT/ANC/4X/8Gtx/8j0f8LA+JP8A0L/hf/wa3H/yPWlRS9tMXtZE3gv4oanqHiiLw54n0a30nUrqCS4sbmwuzcW10IyPMTLIjI6hlO0jBGSDwRXpFeJTf8le+Hf+/qP/AKTV7bXZTk5RuzphJyjdhRRRWpoFFFFABRRRQBkeLvEtr4N8L6trt6Ha1061kupFjGWYIpOB7nGB9a8qg8TfFDVIUuzqHhvRfOUONPOnTXTQA8hGl85A7DuQoGeldZ8f/wDkinjX/sFzf+g1nQ/6mP8A3R/KuatOUbWMKsnG1jI/tb4n/wDQyeG//BHN/wDJNH9rfE//AKGTw3/4I5v/AJJrarzD44eOPGPw90uz1Xw9b6Dd2Ml5aWEkeqeeJRJPcJCGUxnG0bwSDzwa51Vm3a5iqk31O1/tb4n/APQyeG//AARzf/JNH9rfE/8A6GTw3/4I5v8A5Jq3oK6sukwDXDZHVAD5504OIM5ONu/5umOtX6XtZ9xe0l3MNfiN408GXljdeJZ9F1nQbi6htLiTT7SW1ntTK4jSUBpHV13soYcEA5BOMV7NcXEdpbyzytsiiUu7egAyTXgnxb/5EmT/AK/7D/0shr2zxR/yLWrf9ek3/oBrroyco3Z005OS1PINM+IPxB8bWEGt6VcaF4f0m+QT2VneWMt3ceQ3KPK4mRQzLg7QPlzjJq1/a3xP/wChk8N/+COb/wCSap/C/wD5Jp4T/wCwTa/+iVrpq5XWnfc53Ulfcxf7W+J//QyeG/8AwRzf/JNH9rfE/wD6GTw3/wCCOb/5JrhPi1428d+DvEXhq30G38N3Gna7qcWkxHUvtHnRSPFJIXbYdpX93jA55r0zTPtn9n239o/Zzf8Alr5/2UMIt+Odm7nbnpnmj2s7XuDqTXUzv7W+J/8A0Mnhv/wRzf8AyTVXU/iB8QfBNhPreqXOha/pNkhmvbS0sZbS48leXeJzK6llXJ2kc4xkV0lcz8UP+SaeLP8AsE3X/olqFWnfcFUlfc9wt7hLq3imibfFIodG9QRkGpKzfDP/ACLelf8AXpF/6AK0q9E7QooooAKKKKACkZgilmIVQMkntS1T1j/kEX3/AFwf/wBBNAHk1t8YvFniqIaj4Z8NaX/YUxJs7nWNRkimuo84EojSJtiN1XLZIIJAzipf+FgfEn/oX/C//g1uP/kesb4S/wDJK/Bv/YGs/wD0SldXXnutO5xurK5m/wDCwPiT/wBC/wCF/wDwa3H/AMj0f8LA+JP/AEL/AIX/APBrcf8AyPUHi7U9X0fRZLrRNJh1q8jOTaz3gtV2YJZt5VuRjpjmud+DvxC1j4oeEbLxHf8Ah2LQLDULeO5slXUBdPIjZ++Ai7COPXrR7adrh7SdrnU/8LA+JP8A0L/hf/wa3H/yPR/wsD4k/wDQv+F//Brcf/I9aVFL20xe1kVNN+LniHSta0y18W+H7Cz0/UblLKLUtJv3nWGZziNZUeNCFZsKGBOCQCBnNes14L8TP+QHpf8A2HdJ/wDS+Cveq66U3ON2dFOTktQooorY1CiiigAooooAKxdQ/wCPyT8P5CtqsXUP+PyT8P5CgDaooooAKKKKACiiigDy/wCPX/Hh4M/7Gaz/APQZadXWePPBNp4+8OyaXdzTWjCSO4try2IEttPGwaORMgjII6EYIyDwa4X/AIVj4+X5R430iQDjc+gEMfc4uMZ+lctWnKbTRhUg5O6L1cx4i8Dp4g8aeEfEDXbQN4fkupFgCZE3nQmIgnPGM5962f8AhWfj/wD6HTRf/BC3/wAkV5h8WvGmvfB/xj8OvDmr+NtF+2+NNWOlWv8AxI2HlYjJ8w/6R03mNPrIPSsfYzRl7KR2HhnWdYu/HPi/TdRkt3sbI2j2KwRFSqSI5YOxPzNle2AOldbVH/hWPj7JP/CZ6Lk9T/YDf/JFH/Cs/H//AEOmi/8Aghb/AOSKPYzD2UjL1X/kpnw3/wCwnc/+kU9dR+0R/wAkh1n/AK7Wf/pXDS+EfhTfaf4mt/EHiTXl13ULKN47GG2sxa29tvGHfbuYs5A27i3AJAHJNdj4r8MWHjTw5qGh6pG0thfQmGUIxVgD0ZSOjA4IPYgV104uMbM6IRcY2ZxMn+sb602qCfCvx3aqIYfHen3MSDakt7oe6Zh2LssyqW9SFGfSl/4Vn4//AOh00X/wQt/8kVyewmc3spGNeeCEuviXpnjA3bI9jpNxpYtdg2sJZY5N+7PGPKxjHeua+Dfjy58cXniNxr9n4g0y1nWK3nhiSJxIC4kwikkRZChC/wAzbWPTFUP2hvF3iL9nPwDF4r8QeM9Gezk1G108RroTAkzShSw/0j+FN7n2Q16Pa/DHxv5ay23jHQRHKAweLw+QGB5ByLjmn7GdrD9nI1K5X4hf6jw1/wBjHpf/AKVJW5/wrPx//wBDpov/AIIW/wDkirWi/CHVp9f03UfFXiWLWYNNmF1a6fY2AtITOAQskhLuzlckquQAcHkgYcaMlJNjjTkmmepUUUV3HWc5rtn4qmudSOkalplrA+nmOyW7s3laK83HEkhDjdHjHyDByD81WtMt9dj1i4kv72xn0w20KwwwW7JKs43eazMWIKn5dq4BGDknNbNFABRRRQAV5v8AtFf8ka8RfSD/ANKI69IrE8beE7Tx14T1TQb15Ire/gMRlhOHjPVXX3VgCPcUgOPl/wBY/wBTTKxk8I/FK0UQk+FNT2fL9skmubdpv9powjBSe4DEU7/hGfij/wA+PhH/AMD7r/4zXnexn2OH2Uuxj/F7wTc/Eb4a6/4atLiK0udSgEKTTAlEO9Wycc9q4v4rfG/UPhl4jv7RtOt5dIh0mGdL5y37u8llkSOOQDpG4jIDdmIHevTP+EZ+KP8Az4+Ef/A+6/8AjNeeeAfEGu/GyTxjDpWm+B9UOhatL4e1RZ7md90sBDYOYTuQFiRnuDVKlPqilTl1R61RWR/wjXxR/wCfLwj/AOB91/8AGaP+EZ+KP/Pj4R/8D7r/AOM1PsZ9ifZTK83/ACV74d/7+o/+k1e215h4L+HGv/8ACXW3iTxZd6f5+nwyw6fp2k72iiMmBJK8jgF2KqFAAAALdSePT67acXGNmdVOLjGzCiiitTQKKKKACiiigDz/AOP/APyRTxr/ANgub/0Gs6H/AFMf+6P5V6Hrmi2fiPRb7StQhFxY30D288R43I6lWH5GvLoPhH400uFLSw8dWk9lCNkLalo3nXGwcAPIsyByB/FtGe9c9am52sY1IOVrGjXL/EjwKnxE8Ow6U941iseoWd/5qpvJNvOkwXGR97ZjPbNbX/Cs/H//AEOmi/8Aghb/AOSK82/aG8UeJP2c/hZqXjfXvGWjy2dpLDAsC6EwaV5JFQKP9I7Alvoprn9jNamPspHV32tazB8VNK0zzLf+wbvTLqcxrETN58bxAEvnAXDnAArrKyrL4f8AjfUrO3vLXxxoc9vPGssUy6CxDIwBBB+0dCCKn/4Vn4//AOh00X/wQt/8kUexmHspHOfFv/kSZP8Ar/sP/SyGvbPFH/Itat/16Tf+gGvO7L4Oazqmp2EvirxRDqum2Vwl2unafp32VJpUYNGZWMjllVgG2jAJAznGK9VkjWSNkdQyMMFSMgj0rqpQcFZm9OLirM8N+F//ACTTwl/2CbT/ANErXTVmW3wV8ReG4hp/hrxfb2uhxEi0s9T0v7VJbR54iWQSoWRei7gSAAMnFS/8Kz8f/wDQ6aL/AOCFv/kiuZ0Z3MHSlcxvG3gdPGV94WuHu2tToWsR6sqqm7zikUkew88A+bnPtXM6L48udU+NWqeHbbX7O+s7GFzd6f5SRvbPtQxohzvkbBZnONoDKOtbXxM0/wAYfC/4e+I/F2qeNdFFholhNfyj+wmG4RoW2g/aOpIAH1qt8J7DxR8Wvh34b8b6P4w0IWeuWEV7Gf8AhHzvXeoLIT9o6q2VPuKFRmHs5HeVzPxQ/wCSZ+LP+wTdf+iWrY/4Vn4//wCh00X/AMELf/JFR3HwW8R+JIjYeJPF9vdaHKQLuz03S/s0lzHnJiaQyuVRujbRkgkZGaFRncFSlc9O8M/8i5pX/XpF/wCgCtKmoixoqKoVVGAo6AU6u87DL1SHV5NT0p9PurSCwjlc38U8LPJKmwhRGwYBCHwSSDkAjjrWZo9l4vhfRf7T1TSbhY1n/tMW1lJGZyT+5MWZDsCj72d27tiunooAKKKKACqesf8AIIvv+uD/APoJq5TZI1mjZHXcjAqVPcGgDwj4S/8AJK/Bv/YGs/8A0SldXWBYfDHx34LtY9H0C40HVtDtR5di+qSTQXMMI+5E+xGV9owobgkAZGeasf8ACM/FH/nx8I/+B91/8ZrznRnfY4nTlc07qE3FrPEDgyRsgJ7ZBFeLx6xqn7PPgP4a+HJbeDWba1t5LbVriDcGjghi3NNEvfaSCQf4Qcc16r/wjPxR/wCfHwj/AOB91/8AGa4Ox8WeJvEXxg1n4epaeDbjxToOmwalNHJd3B2RXBZMKTDnOFXcPR19aPZT7DVOXVHZfDvxO/jTwHoOvyCJX1KzjuiIDmP5hn5T6V0NYNl4N+JOm2cNpaaV4NtbWFBHFBDeXKJGo6KqiHAA9BU//CM/FH/nx8I/+B91/wDGaHRnfRE+yn2Mr4mf8gPS/wDsO6T/AOl8Fe9V49Y/DHxb4k1jTH8V3Gj2Wj6fdR3xs9IaWWS7ljYNEHeRV2orhWwASSoGQM59hrqoxcY2Z004uK1CiiitzUKKKKACiiigArF1D/j8k/D+QrarF1D/AI/JPw/kKANqiiigAooooAKKKKACioby8g0+0murqaO2toUMks0zBURQMliTwAB3rx/Ufi9r/jRingezhsNHPA8R6xExEw/vW1sCrOPR3KqeoDCrjGU3aKJlJRV5M9mr80v+Ch37N3xL+L37UHww1HRvEujadbXUv9n+HoLiSVXtZ4I2upJpcKQNzJgbcn5Vr6ruPAsmtZfxF4l17xDI3LJLftawfQQwbFx9c/Wqj/BbwLLJFJL4V024lhJMcs8ZkdCRglWYkg49DXUsLLqzleJj0R9A6P8Abf7Isf7S8r+0fIT7T5BJj83aN+0kDjOce1XK+eYvhbomnt5mkyanoE3aTStTuIMf8B3lT+KmtWy8SePvBJVkvI/Helr9+1vVS11FV/6ZyqBHIf8AZdVz/eqJYacdVqXHEQlvoe40Vzvgnx9o/wAQNNku9JnffA/k3VncIYri1lxkxyxnlW/QjkEjmuirlOkKK8r8TfGae61G60fwPp8Ou31s5hutUupDHp1o46oXUFpnHdI+nRmWuWufDWt+Isv4l8Y6vqBb71npkh021HsFiPmEf70hreFGc9UYzrQhozwX/grT8G/GPxW+G3hu80vVNMsPC2hXiS3sF1I4mmuLiWO3iZQFIKoJGJyc/Ma+tf2f/CfifwH8GvCfhvxjqNnq3iHSbFLG4vrFmaKdY/ljbLAHOwLnI65rzSf4L+B7yJo7zw1Z6ijEFhqG653EHIJ8xmyc1Kvwl8L27+ZZWM+kzDpLpl9PasPpscVv9Vl3MfrUex9EUV4RaSeOfCP7zRPEp8Q2y8nS/EwDlh6JdIodT7usleg+Afipp3ja4m02a2n0PxHbIJLnR77HmquceZGw+WWPP8ak+hweK5p0p090bwqRnsdtRRRWRqFFFFABRRRQAUUUUAFFcv47+I2kfD+zt3v2lub67Yx2WmWaeZdXbgZKxp6DuxwqjkkV5neaz4+8aFnvdUj8E6c33dP0cJPebf8AppcuCqn2jTj+8a1hTlU+FGc6kYbs9Z8b3GsWvg3XJvD1ot9ryWUxsLaSRY1kuNh8sFm4A3YyTX52/wDBK34ZfFr4Y/FD4qReKbS3k0Ge9kstWmTUI5Xi1aErISEBywZJ2yw46elfU0nwq8P3r+ZqaX+uTd5dV1K4uCfwZ9o/ACoY/gt4Ft/MNv4W0+0aR/Md7VDCzN/eLIQSffrXR9Vl3Of61HsfRtFfP9v4LvNCw/hvxVr2hOvKwvdm9tj7GKffx/ulfrW/pPxm1TwnKlt4+sreKwZgieJdLDfZATwPtETEtBn+9lk9WWsp0Jw1NYVoT0PYaKbHIk0ayRsrxsAyspyCD0INOrnNwooooAKKKKACiiigAooryjxF8Z7nUr640rwJp8OtXFvIYbnWbxymnWzg4Khl+adx3VOB0Lg8VUYuTsiZSUVdnq9fCP8AwVk+EXjH4qfCvw7JpGsabp/hnSdRie9tbl5BNc3M8sdvAVAUrtTzWJye59K9wufC+s+ISX8S+MdZ1Mt9610+Y6daj2CQkOR/vO1UJvgv4HvIzHd+GrLUFJDH7fuuckHIJ8wtznnNdSws3uzmeJj0R6H+zf4L8UfDn4IeEPCvjG+s9T1/RbJbCW8sXZ4pkjJWNgWAOdgUHI6g16VXzuvwm8MW7+ZY2VxpM3aXTL6e1Yf98OK0bWbx14RxJoviT/hI7VeTpfiUBmYeiXUah1Pu6vSlhprbUccRB76Hu9FcX4B+KWneOJp9Okt59F8RWqB7rRr7AmRSceYhB2yxk9HQkdjg8V2lcrTWjOm99UFFef8Ajr4uW/hvU20LRbCTxJ4n2B2sIJBHFaqfuvcTEERKewwWPZTXC3Vn4w8VfvPEXi65so25OmeGh9jhX/ZMxzM/1DJn0FawozqbGU6sYbmb+378M/Fvxc/Zo8R+GvCeoWGmPLi61Ga/kdA1pCDK8abVOWZkQc4GM1z3/BNH4e+LPhr+y7oOn+I9V0/VdPvguq6ObN3Z7e1uEWQwybgOQ7MeMj5q6N/g/wCEbjd9s0j+02cYdtSuZrot658x2zTYfg34LtI447LQYdMWMbY/7NlktdgHQL5bLj8K3+qy7mP1qPY+jKK8EtdI8UeGSJPDfjG/Cr00/X/+JhbN7bmImX6hzj0Ndl4N+MS6lq1voHijT/8AhG/EU+Rbr5vm2d8QMn7PNgZbHPlsFcehHNYTozp6s2hVjPRHpNFFFYmwUUUUAFFFFABRRRQAUVj+K/Fuk+CdEm1bWr1LGxiIUu2SzsThURRyzE8BQCSegryq+8deOfG7MdNSPwLorfcluYludUmX12H93Bn0bzG9QvStIU5TdooiU4w1kz22vy4+DPw5+OWl/wDBTjxH4v1PSbONLsG71a0GqRN5ekXDPDblcN8zJ5CHaOfk96+wp/hnpuqHfrd/rXiKXu2p6pMyn/tmjLGPwWq4+C3gRZ2nXwppq3LKEa4WLEpUdAXB3Ec+tdKwsurOZ4qPRH0bRXz3b/Du20j5tA1rXfDcg6fYdSkeP8YpS8ZH/Aa2rD4meLvA7D/hJbVPFehr9/VdJt/Kvbdf70tsCRIo7tEQf9is5YecddzSNeEtNj2qiqGha9p/ibSLXVNKvIdQ066QSQ3MDbkdfY/07VfrmOgKKKKACiiigAooooAKxdQ/4/JPw/kK2qxdQ/4/JPw/kKANqiiigAooooAKKKKAPEfiVeN8Q/HsnhaQ58NaCkNzqUP8N7duN8UL+scaASMv8RdM8Ag6wHQAY7ACue0lTZfET4iWM3/H0dVivRnq0MtrCI2+mYpF+qmrPizxJF4V0WW+eM3EpZYoLdTgzSscKgPbJ6nsATXr0VGFNM8qs3Ko0cxN8evAEHiI6DJ4lgXWBIY/sfkzeZuDbDxs6buM9PevQNreh/KvC7rw/Lr2uLr2t3k02s/Zzaq1nM9vHDCWDGJNhBK7gDliSSKY3gnS5FdW+3EOcsDqNxz9f3ntWP1pdjX6q+57vtPofyo2n0NeGw+E7CBnaOS/RpDliNRuOT7/AD1J/wAI3a/8/Go/+DK4/wDi6f1pdg+qvueg+LvP8F3yePNKjZb7S4/+JlBGOL+wBzLGw7sgy6HqCuOjGut+MHim41W30PwroV7Jby+Ikee41C1bDwaegUyNG3Z3LpGrdt5I5WvD5fC9lNG8ckt/JG4KsjajcEMDwQRv6UxfCOnrJBIGvQ8EIt4mF/PmOIYwinfwvA4HHFcs6kZzUrHRCnKEXG57RpekWuh6bbafp9qlnZW6COKCJcKijsK5Txd8aPBXgPV00vX9fh0zUJCoSCWKUlywJAUqpBJAJwDng1w//CN2v/PxqP8A4Mrj/wCLqC68F6XfSWz3Iu7h7WUTwNLfTsYpACA65fhsEjI55NdH1rsjD6s+rPbNNvoNX0+2vrN/OtbiNZYpApG5SMg4IyPxqztPofyrwt/B+nSSGRnv2cjBb+0bjOP+/lJD4N023ZGia+RkXYpXUbjhfT7/AEqvrS7C+qvue67T6GsDxd4Yl121gudPmNh4g05/tGmago+aCYD7p9Y3+669CpPfBrzD/hG7X/n41H/wZXH/AMXR/wAI5bf8/Go/+DK4/wDi6l4qMlZxGsNJO6Z9Q/Dnxgvj3wXpeuCH7LLcxkXFsTkwzIxSWP8A4C6sPwrpK+O7Hw7b6ZCYbO51K1iZ2kMcOpXCKWY5ZsB+pJJJ7k1Y/s1v+glq/wD4Nbn/AOOV553n15RXyH/Zrf8AQS1f/wAGtz/8co/s1v8AoJav/wCDW5/+OUAfXlFfIf8AZrf9BLV//Brc/wDxyj+zW/6CWr/+DW5/+OUAfXlUdc1i18O6LqGq3z+VZWNvJczvjO2NFLMfyBr5R/s1v+glq/8A4Nbn/wCOVDeaDDqVpNa3d3qVzazIY5YZtTuGR1PBVgZMEH0oA9B8G2F7q003jDXYy3iHWUEmxuRY2x5itY/QKCC2PvOWJ7Y1/EXiLTvCWky6nq9z9jsIioeYoz4ycDhQT19q8kHhu1UACfUAP+wjcf8AxdL/AMI5bf8APxqP/gyuP/i6744mMVZI4Xh5Sd2z0HwP8VPCnxK8/wD4RjWodZEK7pGgjkCgbivVlAPII49K6zY390/lXg1v4E0ezsFsbeO6t7NSxFvDfTogySTgB8ckk/Umua8QfCeyk1i31mO71u6hgVku9JGr3Cx3sBBzHnfkEHDAZ5KiqWKXVEvCvoz6dpskaTRvHIiyRuCrI4yrA8EEdxXAfs+zahcfBTwc+qPcyX32BRI14xaYgEhd5PJO0Dk816DXecRS+EOoyeDPFlz4Fkdn0ae2bUdDLsSYEVgs9rk/woXRk9Fcr0UV7LXhlmpvfjX4JggG6WztdQvZ8fwwmNIhn6u64/3T6V7nXjV4qNRpHr0ZOUE2FFFFYGwUUUUAFFFFAHlPxr1281C70nwRplzJZyauklzqV3AxWSGwjKh1Qj7ryM6xg9gXI5Aqpp2nWuj2FvY2NvHaWdugjhghXaiKOgAqDxsps/jrE83Cah4cWO2J6FoblmlUe+JozU+pajb6Rp9zfXcgitbaNpZXPZQMmvVw8UoXPMxDbnY5HxX8bPBHgfWV0nXvEMGm6ixULbyxSksSu4BSqkE4BOBzxXYafeQ6pY295av51tcRrLFIFI3KRkHBGenrXjGuQ3PxDurDUdbaa1hs5/tWnafbuY2tWKlQ7OvzGQqzA4IA3Ee9RP4P06SRpHe/Z2GCx1G4yR/38qPrSTely/qzaWtj3TafQ/lRtPoa8Kh8G6bbsrRNfRsq7AV1G44X0+/0qf8A4Ru1/wCfjUf/AAZXH/xdH1pdg+qvuen+LvDM+tW9veabN9g8RaaxuNMv1HMUuPuN6xv9116EH1ANb+s/GG4uvg5pniHSLdYdf1t49Os7WYblgvnYxuH9REySsfURn1rxH/hHLb/n41H/AMGVx/8AF1AvgzTEihiUXixwzNcRIL6fCStnc6jfwx3Nkjk7j61zVKkajTsdFOnKmmrnr3hfwvb+FNL+yW7S3E0jma6vbg7pruZuXlkbuzH8AMAYAArM8c/E/wALfDSGGbxRrEOjQzKzJJOjlcAgEkqpA5I6+ted/wDCN2v/AD8aj/4Mrj/4uoNQ8F6Xq1nLZ3ou7y0mG2SCe+ndHGc4Kl8HkVv9aSVkjD6s27tnr/hnxRpnjLSU1PRrr7dYuzIsyxugJHUYYA/pWttPofyrwybwjYXDK0kl+7L90nUbjj/yJTF8FaYrBgb4FX8wH+0bjhvX/Wdaf1pdhfVX3Pdtp9DWb4i8N2XinSZtN1GFpLeTBDKSrxODlZEYcq6nBDDkEV5H/wAI3a/8/Go/+DK4/wDi6P8AhG7X/n41H/wZXH/xdH1pdg+rPufQvwZ8WX+v6De6Xrcv2jX9BuTp95cY2/aRtV4p8dt8bKT23bh2r0Cvjq18N2tjPPNbT6hBNPt82SPUbhWk2jC7iH5wOmas/wBmt/0EtX/8Gtz/APHK892vod6vbU+vKK+Q/wCzW/6CWr/+DW5/+OUf2a3/AEEtX/8ABrc//HKQz68or5D/ALNb/oJav/4Nbn/45R/Zrf8AQS1f/wAGtz/8coA+vKK+Q/7Nb/oJav8A+DW5/wDjlH9nN/0EtX/8Gtz/APHKAO9gum+JnjK88U3mZtK025msdBtjzGgjYxzXWO7u6sqnsijH3jXRXl1Hp9nPdXDeXbwI0kj4J2qBknA56V4la+EdPsbdILZr23gThY4r+dVXnPAD1L/wjlt/z8aj/wCDK4/+LruhiIwjypHFOhKcuZs7Xwr8bfA/jbWzpGh+IYdS1MEq1tFFKGUhdxDZQBTt5wexrudrf3T+VeEQ+CdKtpLuSFbuGS7cSXDx306tMwUKGch/mOABk9gK5/xX8I7XXLeBrDV9a0q9tZBLA9vqtwFyDkqfn4DDIJHYmrWKXVEPCvoz6WIK9RiivIf2bVuIdF8XW7Wt5Y6fB4gmSws7yd5zBF5URZEdySUEhkxz3r16u6L5kn3ONrlbRgeHbw/DP4iWJtv3fhvxRdfZbu1HCW1+ykxToP4RLtKOB1Yoeuc+718+/EBTdJ4a0+Lm8vfEGnLAo65juFmc/hHFIT9K+gq8rERUZ6Hp4eTlDUKKKK5TpCiiigAooooAKxdQ/wCPyT8P5CtqsXUP+PyT8P5CgDaooooAKKKKACiiigDzL4r+BdSutQtPF/hmFbjXrGE21zp7OEGpWmdxiyeBIjZZGPGSynhiR474v8Wad4sm8MtYzMTFezi5s51Mc9tMsDfJLGfmRhk8EfTIr6vrwn9obQdNi8SeEdYSxt01WWWe3kvFjAleMQkhGbqQCOM9K2jUag4dDKVNOSn1OFooorE1CiiigAooooAKKKKACiiigAooooAKKKKACiiigAooooAKKKKACiiigAoHWiigDp/hKx/4Qe2T+GO4uY1HooncAVreJvF1j4YWCKUS3mp3R2WWl2a+ZdXb/wB2NPT1Y4VRySBWF8Jfhx4l8U+EkmXxXHoeiveXWyLTrFWvCPPcHM0hZV5B6R/jXsngv4X+HvAck1xpto0up3A23GqXsjT3c/s0rZOP9kYUdhXofWFGCUdzh+ruUm5bGT8J/AN74dGoa/4g8pvFGsBPtCQtujs4Ez5VtG3cLuYs38TMx6Yr0KiiuBtyd2dqSSsgooopDCiiigAooooA4v4peAZPHGj2smn3CWHiHS5vtmmXkgJRZdpVo5AOTG6kow9DkcgV4V448YJq3hHUdI1C3fRvEcE9rHfaPcn94qmdAWQ9JYm7OuQR1wcivqmvKf2kNA03Uvh+dQurC3uL6xvLV7W5kjBkgJuI1bY3UZBIPrW0KjgnHozKdNTal1R5K33jRQ33jRWJqFFFFABRRRQAUUUUAFFFFABRRRQAUUUUAFFFFABRRRQAUUUUAFFFFABRRRQBsfCxiuo+Koxwn2qF8f7RhXJ/QV1+v+ItN8L6a9/qt3HZWqnaGc8ux6IijlmJ4CgEmuI+Gfg/xH4q1vxQNJ1600KxWa3WaRrH7TclvJH3NzhFGO5VvpXsnhP4M6B4Y1KPVrhrrxDr0Ywuq6xIJpY89fKXASL/AIAq++a744hQgktzilQc5tvY5/4Y+DdS1zxCnjXxFZSaaYYnh0XSLgfvbWN8b55h2mcADb/AuR1Zq9coorilJyd2dcYqKsgoooqSgooooAKKKKACsXUP+PyT8P5CtqsXUP8Aj8k/D+QoA2qKKKACiiigAooooAK8Y/aK/wCPrwb/ANfdx/6IavZ68Y/aK/4+vBv/AF93H/ohqAPNqKKKACiiigApkqmSN0DGMspAdeq5HUU+igD5h8XeEfG2g/GDwJ4Ug+MPi97HxBDfy3EzrZ+ZGYI1ZAn7nGCWOcg13w+LVr8NvEFp8O5o/Ffj7xPBbxXU13DZRyytBLIyiWRk2KqoRg8DjHXmr/jjwfq+rfHj4Za/aWTTaRpNtqaXt0HUCFpYkWMEE5OSD0BqbRPCWq2v7RPirxJLZlNGvPD1hZW94WUh5o5pmdMZ3DAZT0xzQugPqZetftLaNo0epaj/AMI34lvPC2m3TWl74lt7FTZQur7Hblw7IrcFlUjrWh4l+PmmaH4vv/C+n+HvEHifXLK0hvpbbRrRZB5EgJWTezqoHHQnJJGAa+f/ABv8MPiL438A+K9I1rwx4p17xxcyXHlX0uuJDogi8wtGYIUlAJ8sABHT733j3r3j4c+D9Z0n40eLdfvtPe10zUNC0e1gmd1O6WFZfNTAJIKlh7HPGaXT+uw+pK37RHh288P+FtR0Sw1bxFd+JRMdO0mwth9qbyf9dvDsqp5Z4OT16ZrhPjd8etSuPhTZ3XhXTvEujajfa9Bol462Ucd5p7eciyR4kbb5jhsIw3KSeorn7T4T63p3wt8JaZ4i+Hlx4jistT1Se5TSr4W+r6eZbiR4ZrZ1lRSrKRuXdnkcVdj+HPxE1b4Zw2F/b6tdxReNNO1HSrHW7yKfULTTYpo2fz5Q21iCHYDcxAwOTTWr+780Lb8f1O/h+NFp4Sjj8N2mjeMPGuraRZRTas8VtHNc2Qdd6rctuVTNt52Jk4FWNc/aX8K6bY+FbjTbTV/E7+KLaa40q20Wz82afyivmIVJBVhuOQem1s9Kx7ePxb8IfiN4/vbDwVqHjLSvFF7HqtlcaVPAjwTiFY2hnErrtXKAhxngnisH4X/BXxN4J8UfCqfULSOUaba67carNbyKYrS4vJElSJckFgMsuQMfKfWjcNjqdU/ai0XTbjXYI/C3im/l8PrHJrItbBWGnxtEsu6QlwOFY5UZb5W4wM1qeG/2htB8TeJtC0uHSdctLLxAH/sXWryz8uz1Eqm8iMltwyoJG5RkDisG3+HviCOP4/Z01g3iWRm0r50/0oGwWIY54+cFfmxTJPh34gfTfgBD/ZzhvDckR1cCRM2gGntESeecOQPlz+VH/A/H/Ib/AM/w/wAzYvP2lNAtftl+mi6/deErG5a0uvFkFkG06GRX2Od27eyK3BkVSoIPNaGpfHjSbT4iyeC7HRNd1zV4Ps0lxJplmJYLeGcZSZ33ABB37+gOK+edN+AWq+G/CV74KufhtrHiTVvtE0NtrH/CRzQ6Jc28kpYSzxrcKyYVvmjWPkjjrXvnw48C6l4Z+MHjzUprH7Po97p+kWtjcK4KyeRDIkiqCSwCkqPm6570LoJ9T1WiiigAooooAKKKKAPaP2fP+SX2X/X3ef8ApTJXpFeb/s+f8kvsv+vu8/8ASmSvSKACiiigAooooAKKKKACiiigArzj9oP/AJJbf/8AX1Z/+lMdej15x+0H/wAktv8A/r6s/wD0pjoA8Wb7xoob7xooAKKKKACiiigD5v8A2h9D8YeD49P1zR/ih4msU1fxHY6adPjW1MFtFcTBGEeYi2VHTJPvmus1LxpF+z2NN0fXta8WfEXVvEE8x02M2sM1yWiRSYUEaoOc55HrkgVpftC+D9Y8aeGfDVrotk19PaeJ9Lv5kV1XZBFOGkf5iOg5wOan8feE9V1n40/DDW7SzM+l6OdSN7cblAh823Cx8E5OW44BoW1vP/IHv8v8yvqXx8gt7qW007wX4r1y+s7SG71K2sbFN2niRN6xyl3UGTbyUQsRTL/9pHwvBY+D59Ps9X12TxZay3WkWum2m+Wby9u5CpI2MN3OeBtbJFcL448L+Mta+JHixNa0HxT4k0i4MY8Ox6JrK2GmRx+UAwutsiSBvMySxDZHQdqg+Dfwo8WeGbr4IHVdGe0HhvSNXs9TYyxsLeSVh5Q4YlgwGQRn3xQtf69QPQrf9o7w3J4T1TWbmw1jT73TdSj0a50K4tQL8Xsm3yoQgYqxfcCCGxjnNZPjT4/XVn8OfHd3ZeFvEWjeKdB05rj+z9Qsk3xh0by7gMHMbxqVJbDEjHSue8SfDTxBNdfF+abwVbeKtN1vXdPu4NNurkRNeWsdtGkrwOGGyZWU7SxXlax9H+Hnja58LfEzTNL03xPp/hLUPDctnpWg+K9Rjuro37BgTE29zHFtIXDvyeeKl7P0/Qpbr+up0nw3+LT+EPAvhey1SLxl4y8Za/bnUU0y6hhkvfLCpvlG1ljjt9x+Us2Tux7V095+0x4S0/wW/iO5g1aFYNVTRLvS2sz9utLxukUkWep4wVJzuGM1zf8AwjHin4c+MvCPjK08M3fia3HhK38O6ppunyxC7tJIysiyIHZVdSdysA2eAea5u9+E/jLxI194nu9BNhf67460nWW0bz43ksrG1UR75WDbS5A3EKTjgc1o9ZfP9bflqQtv67f5noUv7SNjDqFho58FeLj4lvrJ7+HQf7PQXXlLKY2LZk2pyM5YgYI7nFUrT9rHwvfaZZavFofiT+wJLlLG81h9P2W+nXLOI/JmJbduDkBioYDI5rom8J6qf2lk8T/Yz/YY8LHT/tm5cef9rD7MZ3fdGc4xXmNx8J/FjfsxeIvCy6O51668RXF7DZ+bHl4W1MTB927bzH82Cc/jUrpf+tbfkU/6+49R8T/G6x0PxJqeiab4c8QeLLzSUWTVW0K0WZLEMu5VdmZdzlfm2LlsdqzvEH7SnhfSYfDDabZax4pm8TWUl9pVvoln50lwkZUONpI2sN2TnGNrZ5rzHxV8Ib3w78T/AB3qt14I8ReNLHxDdLqOnXXh3XXsvJl8pUaC4jE8YA3KCJAG4OO1dN8PfhHrPhPxv8K7k6Ba6Xp+j6BqkF9HY3LTQWdxcSROsatIxkfOH+bkZB6cULzEz3mxuje2NvcGGW3M0ayeTMu2SPIB2sOxGcEeoqeiigAooooAKKKKAPSP2dP+Pvxn/wBfdv8A+iFr2ivF/wBnT/j78Z/9fdv/AOiFr2igAooooAKKKKACiiigAooooAKxdQ/4/JPw/kK2qxdQ/wCPyT8P5CgDaooooAKKKKACiiigArxj9or/AI+vBv8A193H/ohq9d1TVLPQ9NudQ1C6isrG2jMs1xO4RI1AyWJPQV81fE74i3Pj7VvDN3a6LNYeGY7qVLbUL4mOe7doW2ssOMpGQDguQx4+UCmk3sJtLczqKKKQwooooAKKKKACiiigAooooAKKKKACiiigAooooAKKKKACiiigAooooAKKKB1oA9p/Z8/5JfZf9fd5/wClMlej18r/AA18IyyeF4dW0vXta0C/uri4nEtjeMYXBmfaTBJuiIIx/CPrXoOn/FzXfA7JH44t4dR0XO0+JNLiKeQP711b5JRfWRCVHUhRzW7ozUeYxVaDlyns9FRW1zDeW8VxbypPBKoeOWNgyupGQQR1BHepawNgooooAKKKKACiiigArzj9oP8A5Jbf/wDX1Z/+lMdejEhQSTgV87/Gn4sL4w8M6jp/hvTm1HQrS6gN9r8kmy3/AHc6FltxgmYgjlhhBg4Ynimk5bCbS3OYb7xoobqaKQwooooAKKKKACiiigAooooAKKKKACiiigAooooAKKKKACiiigAooooAKKKKAPSP2dP+Pvxl/wBfdv8A+iFr2ivk7wN4Vj1zWPEmox6jqulXUdzFBFd6XfSQEbYVLAqDsfBYfeU16HY+OvGvgPDaoP8AhOdDX781tCsOqQL/AHti4jnA9FCN6BjxW/sZ8vMjH20eblZ7dRWX4a8TaX4w0W21bRr2O/0+4XdHNGeOuCCDyrA5BU4IIIIrUrA2CiiigAooooAKKKKACsXUP+PyT8P5CtqsXUP+PyT8P5CgDaooooAKKKKACiiigDw/4g3R+IXxGl0Gf5/DfhoQzXNueUvL9xvjV/VIk2vt6FpFJ+7T/FHh238V6NNp9wzR7yrxzR/fikU5R19wf8Kp6Wh0/wCI3xC06bi5bU4tRXP8UM1tEqMPbdDIv1Wuhr2KMV7NeZ5NaT9o/I+ZZvjJpGjeKn8Laibq61uMsoOn2E7pMFbYWClAVG7APVcngmu0+33n/Qv67/4LZP8ACuhutH1Fv2iNO1hbWY6XH4WuLRrvH7sTG6jYR59SoJx7V4r4f+CN7eaL4Hh1XR9XkefTdauNaWa6nBkvCALXzfn6j+AdBgelcrw6tf1/M6VXex6T/aF5/wBC/rv/AILZP8KT+0Lv/oX9d/8ABbJ/hWd8A/A2r+DfEemyXNpqVvDfeD7F9TkvZpJPN1MSN5hcux/e7Tzjtj0r3itFhY23IeJl2PErzXJNOs57u60TW4LaBGlllfTpAqIoyWPHQAUSa7JHeW1q2i60Lm5gN1DF/Z8m6SEEAuOOVyy8+4r0z4h6lFpPgPxDdTDeiWEwEfUuzIVVAO5ZiBj3qveaRceE/HHga1vz88vhIaYkh6Ge3aNpFz6lWz77D6VlKhGM4xvuaxrSlBytscD/AGhd/wDQv67/AOC2T/CuZ8RfF7QPCOoQ2Gsx6pp15MypFDNpswMjEEhVwvJIBOBzwa+ja86+Lmi6jrGufDOWxtZrqKw8URXd00QyIYhbXCl29BllGfcVo8KtLMyWJfVHMWetTahaw3NvoWuywTIHjcabKNynoeRU39oXf/Qv67/4LZP8K4/xh8LdU17WvG2oSafq0t1e+MdMigmiuJUJ0sC1M4j2sAseRJuI9DTvAvwr1Hwj440LULLTdUtkh8X6rbs8lxK6R6QYJTAmGYgQ79hXjqahYdN/15f5/mW8Q0v68/8AI63+0Lv/AKF/Xf8AwWyf4Uf2hd/9C/rv/gtk/wAK9noyByTgdya1+qx7mf1qXY8Z0m+vNes/teneHtevbbzHi82HTZGXejFXXp1DAg+4q59l1v8A6FPxH/4K5P8ACvZP2d42k+Hsuoci31TVb/ULYH/njJcOUP0YAMPZq9OrzXo2j0Fqrnyb9l1v/oU/Ef8A4K5P8KPsut/9Cn4j/wDBXJ/hX0fr1n4rnutSbR9U0u0t304x2SXdk8rRXu44lkIkXfFjA2AA5B+arWmW+vR6xcSX99Yz6W1tCsMEFsySrON3muzlyCjfLtXAIwck5pDPmb7Lrf8A0KfiP/wVyf4UfZdb/wChT8R/+CuT/CvrKigD5N+y63/0KfiP/wAFcn+FV9SuNQ0fT7m/vvDev2llaxtNPcTabIqRooyzE44AAJr66riPjfpNzrnwf8Y2VmjS3Uul3HlxKMmQhCdg+uMfjQB87R6pcyxq6aBrrKwDAjTZOQe/SqmreKBoNjJe6ho2uW1rGQGkbTJSBk4HQE17Po+pW+taTY6haOJLW6gSeJ16FWUEfoauq21gc4r0vqsejPP+sy7Hzv4T+KGkeOo3k8PW2q6vGgy0ltp0xXglTyVweQR+FdXZ+G9d8WH7P9hudB01+J7u8ASdk7rFGCSCem5sYzwDXGaX8O9Z1D4OfDbw7qOl6hHGnil5dVs1Z4mFoZ7pj5m0g+WQyE88gisrS/gfNfeKNIm1PSdWe2uPFOtR3/mXc4RtM8uT7KjjfjydyxlR6/WojQW7/rb/AD/BlSrPZf1v/kfTtjYwaZZQWdtEsNtbxrFHGvRVAwB+VTMoZSCAQRgg9CK4X4F2OraZ8IPCtnriXUWq29mIp0vCTMu1mChieSdoHWu7r0TgM/4S3reB/Glx4KB/4kN/byalo0ZPFqyMBcWy/wCxl0kQdtzjoBXtFeG2KnUfjZ4Nt4Pmk0+0v7+4x/BEyJCuf9524/3D6V7lXjV4qNRpHrUW5QTYUUUVgbhRRRQAUUUUAeSfGzVrjW9S0jwLZzyW0OpxSXmrzQsVcWMZVfKUjkGV2C5/urJ3qs+j2L6QdL+yxLpxh+z/AGVFCoI8bdoA6DFR+OVOn/HO3lm4j1Tw95Nsx6F4LhmkUe+2dD9FPpWhXq4aK5L9zy8RJ89j5u8ZfEHSvhD4gh8Oa1d3N8HZY7Oa3tJpJWypZY3AXDMFB5QnIGSBXTWusz31tDcQaDrskMyB0YabKNykZB6V03xW0XUdW8U/C+eytZrmDT/Ef2m6eMZEEX2Sdd7eg3Mo+pFeX+KvhXqWu654q1CbTtWluL7xxYRrNHcTLnSQLcyhMMAsRIk3Y6/NWTw6b+f+X+f4GqrtJf13/wAjr/7Qu/8AoX9d/wDBbJ/hSf2hd/8AQv67/wCC2T/CuU+Hvwt1Lwh428N6haabqlssfifWrad5Z5XRNKMcptUIZiBFuCFOOpr6Spxw0ZK9wliJRdrHjP8AaF3/ANC/rv8A4LZP8KpJ4oSSxsr1NK1hrS+na1tphp8m2aYFgUXjlgUfI/2T6V7kXWMF2YKq8licAAd6830+2ks/hn8OvEEwZNOm8U3d7hhgRw3j3S27n0BMsf8A38rOpQjBxV9zSnWlNN22MH+0Lv8A6F/Xf/BbJ/hWD4s+Juk+BLZbnxDa6rpFuwLedc6dKEABAJJC4HJHX1r6Frzv9obRtQ8RfBTxbpml2k19f3NqqQ20C7nkPmocAd+AfyrSWFSV0zOOJbdmjj9F8WJ4isVvdN0fXLu1ZiolXTJQCR1HIFXvt95/0L+u/wDgtk/wrL+MHgPVfFHjTxDqEdlqN0tn4ImTSmglkVF1EvIBsCsAZdpGM84NcNf/AAV1LSP7dutK0rWVu7Wx8P3WmsLudsXvm/6bIoL4MhUDfntU/V1f+vP/AC/FD+sO39eX+f5npn9oXf8A0L+u/wDgtk/wo/tC7/6F/Xf/AAWyf4V7Q33jjpSVp9Vj3I+tS7Hi+n6ndatdXltZaBrl1cWbKtxHHp0haIsu5Qwxxkc1e+y63/0KfiP/AMFcn+Feq/BdDeeOviFqUXNp5tlpwYdGmhiZpMfTzlX6qR2r12vPnHlk0juhLmimz5N+y63/ANCn4j/8Fcn+FH2XW/8AoU/Ef/grk/wr6e1SDWJNT0p9Pu7SDT45XOoRXEDSSTR7CEEbBgEIfBJIbIBGB1rL0ex8YQton9qatpNysaz/ANqC2sJIzOSf3BhzKfLCj727du7bags+dfsut/8AQp+I/wDwVyf4UfZdb/6FPxH/AOCuT/CvrKigD5N+y63/ANCn4j/8Fcn+FH2XW/8AoU/Ef/grk/wr6ypG5BGcUAfHOn+IW1a0S6s9G1q5tnLBZY9PkKnaxU4OOxBH4VJcaxPa28k82g66kUal3Y6bLwoGSeld18IlNv8AD/TtPkXZd6Y02nXMfdZoZWR8/Ujd9GFdjXoxw0ZJO5wPEyTtY+cNA+MHh/xVqkmm6RHqmoX8TbJLeHTZiyNtDbWyvB2kHB7GuwtbLxBrjCDTtFurEtwbzVI/Jjj99mdzn2AH1Fc/4o8K+JJPCv7QUdjZahHeaxeo+mNbbkluB9jt0LREHP3lYZHcGuX8cfBC5/tTxV/ZOlaxHBZjQU0U2t3OojBmJvWiw/3irHeeuDULDpNXKdd9D6R8L+HbfwrosOn27tLtJeSeT780jHLO3uT+XTtWtXnHwY8M3Pg9vG2l/Zbiy0eLxBM2kwzuzKLVoYT+7LEnZvMnfrmvR69COyscEt3c5/SLw/Dj4j6de2v7vQ/E10LHUrYcJHeMp8i5Udi5Xyn9dyHqOfeK+ffHqm+bwxpUXN5f6/p4hUdcRTrcSN9Fjhc19BV5eJilPQ9PDtuGoUUUVynSFFFFABRRRQAVi6h/x+Sfh/IVtVi6h/x+Sfh/IUAbVFFFABRRRQAUUUUAeb/FXwBf6td2Xijw2sZ8S6bG0LW0rbI9RtSdzW7t/CwI3Ix+62c8M1cp4b8Xaf4oWeO3MlrqFqdl5pl2vl3Vq/8AdkjPI9mGVPUEivc65Txp8L/Dnj5oZ9UsSuo24xb6nZyNb3cHskqEMB/s5we4NdNKs6ej2OerRVTVbnJUVXuPhH4y0kn+xfGkGpwD7sPiLTxJIB6edC0efqVJryP44fFLx78En0DTm8O+HfFPiPX3uI9K0jT9Tmhnu2hiMrhQ8RGdowBnkkAcmu5Yim+pxPD1EeyVV1LVLPRbCa+1C6hsrOFd0lxcOERB6kmvzQ8N/wDBTT4ofEn4q6F4UsfCNvocN3frbXVrpdg+oamFBPmLHHIygyAA8EdRX2d4a+NnwR0PVIL7x3d+LbbXbdt0U/xB0G8t47dvWNBCLdD/ALQ596iWKivh1LjhpPfQ9Q8H+HL34ra5p+s31pNYeDNOmW6s7e6jMcuq3CnMczIeVhQ/MoYAuwDYAAz6P8SvAaeP/Dy2sdydO1W0mW803UFXcbW4XO1sfxKQWVl7qzD3rK8KftB/DHxztGgfEDw3qrt0it9UhMn/AHxu3fpXfRTRzxh4nWRG6MpyD+NefKpKcuZnfGCjHlR4NoviyQ6odA8Q2o0PxTEuWsZG/d3Kj/lrbOf9bGfb5l6MAa6Su+8V+DdD8caWdP17TLfU7TdvVZ1yY27MjD5kYdmUgj1r5x/aO1GP9lT4c3HjYeJ9dudAt547drC7sk1Tyi5IU7y8coXOBlnbGRXbDFK1pnHPDO94HqFFfCvgf/gpFq3je11jU7DwFC/hjR2hS/8AEV9dPZ20DyyLHEhGJCXZm+6CTgE9BWP+0N/wUB+MnwN8VP4a1b4P2OgX8pxZ3d1dy3lvdgnAeF0CrIDxwDnnkDpW31in3Mfq9TsfoCzBVLMQqqMlicAD1rkoVu/jHcSaJ4dkki8NbjFqviKPhGjzh7e1b+ORhlWkHyoCeS2AOI+F/j/4PfEqLT4fGXxQg1rxC0cbXHhvW5Do9vHNgbk+ySLG0gDZAEhevrTTVs0sIE08QLZKgWFbbb5YUDgLt4x9K5qmJ5laB0U8PZ3kLp+n22k6fbWNnCltaW0awwwxjCoigBVA9AAKsUUVwnaFFFFABRRRQAUUVFcXUNpEZZ5UhjXkvIwUD8TQB4Nr2iXHwUvrljBJcfD+4laaK4hQudFdjlo5FHP2csSVcfcyQflwR0NrdwX9rFc2s0dzbSqHjmhcOjqehBHBFani79pL4UeB0kGv/ETwzp7LkPDLqkJkH1QMW/Svk/xz+2F+zHo2rTN4M8ba1aa1cOWa28FabNcW87nubeRPJJPqoBPrXbSxHKuWRx1MPzO8T6hor80vhd/wUQ+Ofi74lTeCtN+HNr441L7U8MVrHZy2F2sYYgNMNxWLAxu3AAHvX278JPHHjb4xx+JINNs/CWnaj4c1R9H1W3bU57r7PcoisygrEoYDdjIOCVb0rq+sU+5zfV6nY9QrB8R+MLXQbiCwhhl1bXrof6Jo9kA1xOfXHREHeRsKB3rXtvg94q1dh/b3jb7Hbn71r4csVtiR6GaUyN+KhTXdeDPhz4e8AQTJomnJbTXB3XF5IzS3Nw3rJK5LufqeO1ZTxS+wawwz+0Y/wq+H914Vt7/V9ckiufFOsMr3skOTHBGoPlW0RPOxATz/ABMzN3wO9oorzm23dnekkrIKKKKQwooooAKKKKAOP+J3gEePtDhjtrkadrenzC80zUNu7yJwCPmH8SMpZGXurHvg15poXi43OpNoWt2p0LxTCuZdMmbiUD/lrbv0ljPYjkdGANe91h+LvBGheO9NFjr2mQalbq2+PzRh4m/vxuMMjf7SkGt6VZ0/QwqUlU9Tg6Kiufgrr2kE/wDCN+NrkW4+7ZeIbYX6L7CUMkv/AH0zV538ZvF3jP4EeBp/E/iCPwnd2UdxBaR7b24tTJLNKsca4aNwOWyTngAntXesRTe5xPDzWx6TTXdY42d2CIoyzMcAD1Jr8yPi9/wU6+LnhHxjqPhFfh1pfhDXbO4+yy22o+bdzI+cDAyitnggjIIII619caF8W/hwkNnL8Xl+IUN2ER5LbxR4YurXSlkwCT5dvG0TjPTzGalLEwW2o44eb30PVLW3ufjVcNpGitJF4Q3bNV15Mqt0gPzW1q38ZblXkHyqMgEsePate8HaT4k8J3Xhu7tVGkT232XyIvk8tAAF2Y+6VwCCOhA9K4Xwf+058HPFUcNroHxE8LybVCR2g1CKB1A4CiNypH0xXp1nfW2oQia1uIrmI9JIXDqfxFefUqOo7s74U1TVkeBw6tqHgHUYPDvjSUJOzeVp+vMNltqa/wAIZukc+PvIcbjkrkHA6uvTNW0ex1/TZ9P1Ozt9QsZ12S211GJI3HoVIwa8T+JXw5tfhJ4I1zxT4e13W9K0zR7SS+l0eOJdShMaLuYRRSsHXgH5VkUegrqp4mytM5amHu7wOgor4O8Gf8FKtS+IHihtE8JeB28VCGCS7ub6UNp0VrbRqWknl+eUIiqMk59AMkip/jV+3x8T/hd4U0HxRD8JrC48Ja/aR3emeJI9RlubOVXUEKxWNTHIDwUfByDjNdH1in3MPYVOx91Vy9/4ivvEGqy+G/BqR6hrv3Lm8I3WmlA/8tJ2HBcDlYgdzHGcDJrwf9n39oTwP8ZPBOh33xa+JK+Ftf1NDLJ4WPmaJZbC58sCeQK0ysm05WXad2K+2/Bdr4csfD9tb+FE02PRUH7ldLKGHnuCnBJ9e9YVMVpaBtDDa3mN8DeDbLwD4Xs9FsWkljgDNJcTHMtxKxLSSue7MxLH61v0UV553hRRRQAUUUUAFFFNZ1jUszBVHUk4FAHjvxD8H6l4O8R3ni7w/ZS6npl/tbW9ItV3TB1AUXcC/wATbQFdBywVSPmGDHofiDTvE2mx3+lXkN9aPwJIWzgjqrDqrDuDgiux8VfHD4eeB1Y+IPHPh3RyvVLzU4Y3/wC+S2T+VfLfxX/bC/ZVh1abU4PHssHiaThr7wbBO08x7CTahim/7aBq66WIcFyvY5atBTd1ufQdFfmZ4h/4KSfEvQfi5L4e8LeHZPGmh3jx/wBj2+taLJY6pdIyjB2RHBywbBC4IHQV9kfCn4rfEb4heLJ/BmreFfDfhHxta6RBrN1o95q8s0sEErsi7xHEQH+UEruyA65612LEU31OR4ep2Pa6yvEfijTPClmtzqdyIRI3lwwqpeadz0SKMZZ2PooNW4PhX461bjVPF+naPCfvJoeml5fwlnZgP+/ddd4O+EfhzwXfNqVvbzajrbrsfWNUmNzdkd1Dt9xf9lAq+1ZyxUV8OppHDSfxHO/DDwPqd9rv/CaeJ7U2N95LW+k6Q5DNp8DYLvIRx58mFzjhVAUH72fVqKK86UnJ3Z3xioqyCiiipKCiiigAooooAKxdQ/4/JPw/kK2qxdQ/4/JPw/kKANqiiigAooooAKKKKACiiigAr8wv+CgXw9+N/jL9sj4Xav4Q0eM2enypH4XLahDF9puYV+1XLMC3yAhdvzYyE96/T2vBPjp/ycR+zx/2FtW/9NslAGZr37Cfwl+IPxKuviP4g8KCHxFqunCG9tIJzGkdySrG5RoyCs642+Yp569eaJfh/wDGT4Kqx8G69H8W/CSdfDPi+cR6nEn92C/xtkwOizr/AMCr6Orl/iD8T/Cfwp0N9X8XeILHQNPXgS3koUyH+6i/edv9lQTQB4Lo/iP4AfHHWv8AhG/Gvw+0nw144P8ArPDvjLRYbW9Y9zDIRtnHo0TtVnxt+yv8Dvhno9xr0mpah8LLCAbnvtJ8TXWmxJ9F83Zn2C/hWH8RNS8SftiaE2heGPhfYWfhCX7vjD4jWTIVz/y1srIYmLd1d2jHSuXg/YZ8W/CzW9E8VaJ4jt/jVf6RapAuh/EtnkWPbzusZgWW3fsN6P0HzUAYWir8ZvHGtWq/AXx745uvC6yDzfE/xKgt302SPPP2ZJIRcz+zYVfepfHv7FPxk8b3us3vjbxR4V+MovLeSC2tPEBvNNi03epG61hhLwq4zkOykgjrX0P4K/at8MalrkHhfxlp2ofC/wAYN8iaN4nQQxzn/p2uQfJnHptbP+yK9M8Q/Ebwp4RhMuueJtH0eMDJa/v4oR/48woA/Kr9sT4J/Ffwd+yv4b+H+ifCWy8I+CdBv47vVNQ0vX4b46jcOVhieQFY5CxkkySVPJXoBX018O/jh4an+B/gvwn+0T8PPE2m+INDgt0uJ9Y8L3VzaefbkCK4jniRwCQiMTkckjpU/wC2f+1h8JvEnwL17QdD8aWOv6tJd6eyW+kJJd52XsDt80alR8qnqeTwOTXqy/tYXmujHhP4N/EfxFn7k1xpKabA3vvuZEOP+A0ASXXxs/Zw+OEH9n6r4l8D+Ig42/ZNcMCyD22TgMD+FUrX9kH4ZSZv/h3reueApWG5ZvBevyxW/wBfJLPER7bcVh+KLH4s/FdDHc/AD4e6fBIMeZ421aO/fHqY4IGx9N9eZ3X/AATl8QeKrr7VdeJfCvw0kLbj/wAK30a5tJR9JXuQP/HKAPb/APhXP7QHgnB8O/FLQ/G1onSy8aaN5MxHp9ptSvPuYzVLVP2lPiH8Mbcy/Ej4P3MNjHzJq3hPWba/hx6+TK0Uo/75NcP4m/YnGieB/sOr/tNfEzSYIx817f8AiCKKHGO4ZRx/wKvmWTwJ4K+HmqNF4b8YeDf2gNYibiz1TwlqGt3jt6Ge3mkjB9yBQB9kaF/wUi/Z41vTZrt/iFb6U8PEtpqVpPDOjem3Zyf93NX9N/bf8JeMLcT+AvCPjn4hwN9y60Pw/KLZv+203lrj3zXjHhPxn8btT8A3sEH7HfhW0Tbtit7i/tbOGZfU2zx7vwJBrxGH4W6//wAJNHrvjfw342+A0scm94PhR4XmFuf9+4huJQ34RCgD7Zu/jf8AGfU7V59L+CMPh60HP23xj4otbVVHq0cAlYfiRXkXir9qLxvBfGxv/jH8MdBvjx/ZfgzR73xNfg/3QqNjP1XFeM6t4C+GHiTxUNWh/aKi8T33G3w98bLS6ktwR2w7QbT77W+lfSPwz+KXi34e6atvpfwe8F+JNIQAfbPhJrlo4ZfX7LKI2P4O1AHnCw/G34mHGmXHxg12GT/l61CXT/BtiR67Qj3BX6DNSQf8E8/GXjyYTeMvEWj6XE/LRtPfeIbr6GW8lWLP0ixX0DY/trfDWC4W08VPrfw7vycfZ/GGj3FgufTzSpiP1D17B4Z8beHvGlmt34f13TdctWGRNp13HOv5oTQB8yeEP+CYvwW0Fo5dbsNQ8XzryV1G4ENuT7QwLGmPYg19CeBfg74F+GVukHhTwhovh5FGAdPsY4m/FgMn8TXY0UAcHeeAdN8A6Z4217wN4V09fGOsJNeyNCqRSahebDs8yRuxYL1OBya+Df8Agln8Nvi98N/i58Vh4t06NtEur2Sz1e5W+ikMWrxFZCQoYlgyztlhx0r9Lq8B/ZX/AORk+Ov/AGUG9/8ASe2oA9+ooooAKKKKACiiigAooooAKKKKACiiigAr8+/+CvHgn4jfEH4eeEdO8MaasvhS11GOXUrpruOMtdSyLb2sewkEjdKTnGBuHpX6CV4F+29/yQtf+xi0P/0529AHG6P+xpoHxy8H/CrX/jZ4TgHxE8M2SWmppHMkqagI0aMJOyEiRT8sg5yCSM4yK6R/gH4/+DpNx8HPGjXOjR8/8IP40lku7Hb/AHLa55mt/YHevtX0XWb4i8SaT4R0e41XW9TtNI0y3XfNeX0ywxIPUsxAFAHzVN8UvhZ4r1SLw18cfhjYeAPE1w3lxp4s06CfT7xun+j34UxPnsGKt7V0Wsfsb/A7TbGXWLPSf+EJt4085tS0DWbjS40XrvzHKqAe+MVk+KvjpcftB6XeeG/hd8OYviFo1zmKfxH4tgNr4dA6ErvUyXWPSNcf7VeWj/gnL4h0nQtMuLf4gQ+JL3T7t75fBWv20r+Eyzc+THaiQvGq/wALFnx/doAzLy88Ua9qEmlfs2/Ef4leNbqF/LfVtXuoLnw5aEdQ11dQlpcf3Yd5PrXQ+Lv2T/2gvH95pt944+JHhf4h2VvEpm8IX9pdadpMko7v9mYGb/touP8AZr1fw3+09ZfDySx8M/FbwdN8JLpcW9teqBP4fn7AQ3cahYweySqhFe2X3jnw3punR6heeINLtbCRBIl1PexpEynowYtgj3oA/N3xx+zZ8Vfg3+zZ8SvBvgf4NaHYXfiYyT6p4k0fxIkzLZhzI8KxzRxuI1QFFUE8Ek5JrT/YY+K8nw//AGWbbwH8avh54ouvC1wXm0y+Hh6bU9PudOnAkAcxK+MMzkZHRh6V9S/Fz9r34NWXgnxNpi/ELR9Q1CbTbmGO20uVr1yzRMAMQhscnvXn37Nv7UkVj8APh5o2g/DT4heLb2y0Kzt3l0/QzDal1iUHbPO8asuR94ZBoA7/AEL9of8AZu8ReHbDwmPE3hWLSrOBLS30bX4hbCKNVCqnl3Sr0AAplv8Aso/A/wAUTHU/BBXwveudw1DwDrb2Jz67YH8s/ipqn4g8SfFr4mW5hT9njw7b2z8eb46122k494YIpT/49Xles/sC+KPiBcNcahD8MfhxI5yZvBOg3X2pc+kxniGffZQB7Qfgx8Z/BnzeD/jU2t26n5dP8daRHeZHobiAxyfiQaivPjN8avh3C0njP4S6f4gsI/v6n4L16I8Dq32e78pvwDGuG0f9hG78HeE7qzvP2jvijDCVwbj+20ghi/BlbA/4FXzX4o+Dfw9+HOuSiP43+Hvi/q4fK6R4q0a78R3LN/d/0Sc4/FKAPrjw/wD8FH/gRql3c2OreK5PCOrWufP0/wAQWckEkZHUblDIfwY1oaf+3p8M/FkksXga28UfEeaNtrDwtoFzcIG9DIyog/OvDfhB42+Lotbu10f9kTwuulrERBqEYj0GO444Pk3EZkwfQ15R40+Gfjzxf4ilv/Gnwiv/AIJRpJuGp/Cvw6b68YZ6tcwXKgf9+jQB9qN8evixryM3h34BataQ9Rd+K9ds9OQD1KI0r/pXmHjj9pr4h6DN9n174kfB7wBcMcfYLF7vxBqIPoIoymT/AMBrwjxR4L+GXixtNS+/aY8aW93ZoEOi/Fazu/sMxHaSNhBx/wADNe3/AAf8U638M7WNPCPw8+EPjqxVf+Pv4Z61b2N4w9TDODuPt5tAHM/8JR8X/iUcaJr/AMXPF0cnC3Gk6DY+EdPPuJroGbb7hSaVf2G/ib8SHEninVbDRrd/vDW9f1HxJd/ipeC3B/4CRXv8f7Z3hHRZFh8deHPF/wAN5ujSeItDm+zZ9riESRY9ywr1PwX8WvBXxHt1m8LeLNG19GGcaffRysPqoOR+IoA+Y/Cf/BLf4U6ayy+JLrU/E8uctCnladbH/tnbqpI+rmvoD4f/ALN3wt+Far/wingLQdGkXpPDZI031MjAsfzr0iigDmv+Fb+Fv+E6PjQ6BYt4rNotiNXaEG4WBSSI1Y9Blj09a/N74T/D/wCOlj/wU+1/xlqehQxxXINxqdqNShbydGnZ4LcjDfMV8lG2jnKe9fqNXgPhn/k+Txz/ANiPpf8A6V3VAHv1FFFABRRRQAUUUUAFFFFABRRRQAVi6h/x+Sfh/IVtVi6h/wAfkn4fyFAG1RRRQAUUUUAFFFFABRXjX7Qkcuoat4D0z7dqFnZ3moXP2hdPvZbVpQlrIyhmiZWIDAHGccVyH/CuNN/6CfiT/wAKO/8A/j1fKZpxHhcqr/V60JN2vpbr6tHp4fAVMVDng1Y+lK+X/wBrv4jeHvhH8VPgX4u8Waiuk+H9O1LVTc3jozhS2nuqLhQSWZiAAByauf8ACuNN/wCgn4k/8KO//wDj1U9U+Dvh3XIY49RfWtQijcSol1rl7KquOjANKcHk8+9eR/rtgP8An3P7l/8AJHV/Y9f+Zfj/AJHkesf8FDtV+MWoT6Z8MNL1Xw3oobYfEM/hy61bUJh621nEvlrns00gH+zWz8PtJn0vX08Sad8B/iF8S/Gh5/4Sz4kXdpZyIf8ApikrkW656LHGMV6ZB8M9KtYxHBqHiKGMcBI/EV8qj8BNT/8AhXOnf9BPxJ/4Ud//APHqP9dsB/z7n9y/+SD+x6/8y/H/ACNX+2v2lvE2RbeGfh94Jibo2p6ndapMv/AYkjUn/gVN/wCFM/G7xGv/ABUHx3/sqNvvW/hPw1b22PYSztK341F8O9LPhn40aJaWepaxLaXmk3zz299qtzdxsyPb7G2yuwBG5uR6mvQv2h7iW2+CXjGSCaS3lFg4EkLlHGSAcMCCOD2r67A5hTzDCrF0k1F33300PLrUJUKnspbnmms/sJ+CPHUEUXxB8S+NfiRHG4kEHiHX5Tbhx3EUIjQflXA33/BPnTfhf4nuPFPwptPD+qSSHzJvC/j6xGpWr47W90wM1ufrvX2rtP8AhU/hf/nxuP8AwYXP/wAco/4VP4Y/58bj/wAGFz/8cr43/XfB/wDPqX4f5nrf2PV/mR5H+018ftHsfgJrXg3xb4GvPhP4pe608w2c9qraddiO+gd2tryJfKcBVZsHawA6V71d/tqfD6+uGtfB9t4i+JF4DgR+EtFnu48+85VYgPffXMal8EvBmtWbWuoaJ9vtWOTDdXc8qH32s5FS2vwf8JWNusFtpklvAowsUN9cIoHsBJij/XfB/wDPqX4f5i/ser/MjcX4mfHvxtgeG/hPpPgy1f7t9421oPIB6m2tQ5z7FxTR8DPi54yIbxr8cL7T7Zvv6b4F0qHTEA9BPL5sp+uRWT/wqjwx/wA+Nx/4MLn/AOOVi+KvA2j+GbPTtS0uK6s72HVtPCTJf3BIDXcSsMGQgggkEHsa3w/GOExFaFGNKScml06u3cieU1acXNyWh6Bon7Ffwl068S/1Xw9N4z1RTu+3+Lr6bVZSfXEzMo/BRXsmj6Dpnh2zW00rTrTTLVeFgs4FiQfRVAFX6K+/PECiiigDN1jw3pHiKEw6rpVlqcRGDHeW6SqfwYGvLPEH7HPwV8STNPc/DnRLW6bn7RpsBspQfXdCUOa9looA+ebz9i3QIbaSDw/48+IHhqFhgWsPiCS8tvoYboSqR7V4/wCJv+CcOryXjX+hePtKXUM7lurnw4tjc59TcWEsDE+5Br7mryX9o6E3nh3wxZNNcRW154gtoZ1trh4Wkj2SsVLIQcZUcZ7Vz4issPRnWkrqKb+5XLhF1JKC6ny4Pg3+2n8K2B8I+PdF8WWcf3bHV79rlWHpm4iDj/v7+NdBpH7Vn7T3gNhF8RP2bLrXIIx+81DwberKT7iLMmf++hXo3/CrfD3/ADz1H/wb3f8A8do/4Vb4eH/LPUv/AAb3f/x2vgv9d8F/z6l+H+Z7f9j1v5l+JS8O/wDBRb4X3Ekdt4usPFXw2vm4aLxVoVxbop/66qrL+JIrW/Yz8RaZ4uk+Muu6LfQ6po2oePLye0vrZt8U8Zt7cbkboRkEfhVK6+Efhi/iMVza3tzEesc2qXTqfwMtV9L+Cvg/QrQWmm6Zcadahi4gtNRuYkBJyTtWQDJNH+u+C/59S/D/ADD+x638y/E+o6K+aP8AhVvh7/nnqP8A4N7v/wCO0f8ACrfD3/PPUf8Awb3f/wAdo/13wX/PqX4f5h/Y9b+ZfifS9FeAfBvR4PDfxm1OwsJrxbKXw/HO9vcXs06eYLll3ASO2DjjIr3+vtcBjIZhhoYqmmlLvvvY8itSdCo6ct0FFFFegYBRRRQAUUUUAFFebftEXFxb/CfUvs13c2Ukt3YQGazneGUI97AjhXQhlyrMMgg4NeaN8N9N3H/iZ+JP/Cjv/wD49XzWbZ9h8nnGnXjJuSvpb9Wj0MLgqmKTlBpW7n0pXz1+3fqFvpP7Pc+oXkot7Kz13Rrm4nbO2KJNRgZ3b2ABJ+lUP+Fcab/0E/En/hR3/wD8eqvffCfRNWs5bS9udevbSUbZILjX76SNx6MplwR9a8L/AF2wH/Puf3L/AOSO3+x6/wDMvx/yPMvGn/BTLS/FeuT+HfhDpVxqzKSj+J9R0y7ntE7ZhtoEMs59M+WvvWf4fsZ/F2sW3iDxP8Lvij8dPEkbeZbz+K7G30bRbVs5Bt7KaRUQD+8yu3vXrtj8KdD0uEQ2Vzr1nEvAjt9fvY1H4CUVYPw5049dU8SH/uZL/wD+PUf67YD/AJ9z+5f/ACQf2PX/AJl+P+RpweK/2itcjSHSfht4J8FWqqFjOua/JeNGvb93bRBePTdR/wAKv/aA8SZ/tn4z6N4cibrB4W8LIWHsJbmWQ/jtrAm8Or4V8TeDrvTtW15ZZNetLeRbjW7ueOSNyQyskkhUgj1FfTlwxW3kIOCFP8q+qyvM6WbUHXoppJ21+XZvueZicPLCz5JvU+etS/Yv0zxnp8tl49+JPxB8c2c42z2N9rX2azlHoYbdIwR7EmuA8U/8E0vAWk6pZ6/8NI7PQNYsY9kel+JLX+2tHuFH8LwzEtGf9uNgR6Vc+G/w90PXfAOgajqEN3dX11ZxzTzyahc7pHYZLH953NdH/wAKn8Mf8+Nx/wCDC5/+OV8rU40wlOcoOlLR26f5npxymrJKXMtTm9d+Mq/B7wH4h8P/ABK+F0Pw4km025trfxD4ZtBdaDcu0TBR5saB7cscYWVR1+8aZ+z1+158N/C/wB+HGg2+oaj4q8RWmgWUE+k+GNLuNRuI5FhUFG8tCqkHjDMK6Sb4P+FLy3kgm0yaeCQbXjkvrhlYehBkwRUGmfBLwVodv9n07RBp0A/5ZWl1PEv5K4FZ/wCu+D/59S/D/Mf9j1f5kdF/wuz4w+MuPB3wSudJt2OF1Dx1q0VgAPX7PEJZfwODTW+Fvx48bZPif4vab4RtH+9YeB9EUSAen2q6Z2/EIKyf+FUeGP8AnxuP/Bhc/wDxys3xL8L/AA5aeG9WnhtLmOaKzmdHXUbnKsEJBH7z1prjbByaXspfh/mDyiqlfmR19n+xP8N7q5W78W/298Rr4HJm8YazPfLn18ncIh9AmK9f8LeBfDfgezW08O6BpmhWyjAi060jgXH0QCofhvPJdfDvwtNNI0s0mlWrvI5JZmMKkkk9STXR1+inghRRRQBVv9Ls9VhMN7aQXkJ6x3Eaup/AivM/E/7KXwe8YSNLqvw28OSztyZ4bBIJfrvjCt+terUUAfP8n7FPgzT1YeGfEnjjwYD0j0XxNc+SPbypmkQj2215X40/4J03Ov3LXdr8QLW+vOqXGveGLR7kH1+02pt5c++a+1K4D4+3U9n8FvGk1tPLbTppcxSaFyjqdvVWByD7ilJ8qbGtXY+QP+Gaf2tPhcqt4D+KGnajBH9yxvdQuJoT7eXdpNtH0lrY0n9oL9sP4cskXjf4C6f43tUOHvfCt+iSsPXYGkyf+AivTV+Fvh7av7vUeg/5i93/APHad/wq3w9/zz1H/wAG93/8dr87/wBd8F/z6l+H+Z7v9j1v5l+Ji6J/wUW8IWrrB4/8C+PPhndZ2u2uaBM9up/66xhuPcgVb+CfxO8K/F79r/xx4g8G65a+IdH/AOEN0uBruzYsiSC6uSUbIyrAEHB55q9J8K/DsyFJItQkQ9VbVrsg/h5tUdN+BvgrRZrmXT9Il0+W5Iad7W/uYjKR0LFZBuI96P8AXfBf8+pfh/mH9j1v5l+J9TUV80f8Kt8Pf889R/8ABvd//HaP+FW+Hv8AnnqP/g3u/wD47R/rvgv+fUvw/wAw/set/MvxPpeivmbQ/DFl4U+K3gCTS5dQgN1f3ME6yajcSpIn2OZtrK7kH5lU9Oor6Zr6/LMxp5ph/rNKLSu1r5Hl4jDyw1T2cncKKKK9Y5QooooAKKKKACsXUP8Aj8k/D+QrarF1D/j8k/D+QoA2qKKKACiiigAooooA8f8Ajp/yNnw3/wCwhef+kctVKt/HT/kbfhv/ANhC8/8ASOWqu0+lfh/Gf/IyX+Ffmz7HKf8Ad36v9BK+bfA8Ov8Ainx14ruLnTvF2qWtr4qubWK+s/Egt7OCFHTCfZ/NBKrk5AXn3r6TwfSuGm+B/gqfWrnVjoey/ubk3k0sV1PGJJiQS5VXC5JAzxzXyeFrwo8/N1X6+qPTqwc0rf1+Z3FFcn4N8P3+i+JPF81zJdT2l9exXFq91OZPl8lQwQZ+VQwIC8V1u0+lck4qLsnfb8jVO5R8N/8AJcvC/wD2B9S/9Dta7D9o3/kh/jL/AK8W/wDQhXH+G8/8Ly8L/wDYH1L/ANDta7D9o3/kh/jH/rxb/wBCFfuvDP8AyJYf9vfmz4zMf97fy/I5yil2n0NG0+hr8GPtD5j03RNR8VfFj4jSTaBc6/a2fiFLeK5bxVPYrbRi2t2KLApwQCxb3JNfTSsvKgg7eCM9K5DVvg14H17WLjVdR8JaTealcuJJrqa1UySMAAGY45OAB+FYfw78Lalp/wAQfE+qXnhx9BtZt0Fo0VzHKl1H5hbzZMOXMjE8BgAi4Ud69avVhioJp25UtPklp73z0SOaMXTb63f+fkemVy3xI/5F+0/7C+m/+lsNdVtPoa5b4kKf+EftOD/yF9N/9LYazyz/AH6h/jj+aKxH8Gfo/wAj6Tooor+mT88Ciuc13TfE91c6i2k63ZWEEmnmGzjuLAzGC73HEzHzF3pjA8vA6Z3Va02z1uHWLia+1O2utNa2hSK1itDHIkw3ebIX3nKtlcLgbcHk5oA2aKKKACvKf2hP+Qb4M/7GW1/9FTV6tXlP7Qn/ACDfBn/Yy2v/AKKmrzM0/wBwr/4Jfkzow/8AGh6r8zKopdp9DRtPoa/mc/Qzxj9oq+1aPU/h1p2lrq1wuo6zNDc2WjaiLGa5RbSZwvmllAAZQ2M9q7r4Z6bcaV4b8u7sdW0ydpnc2+t6oNQnA4GfNDsNvtnirvjD4f6D4+t7OHX9MXUEs5jcW5LvG0UhUqWVkIIO1iOvevMvHPwPvrO4tLnwHGdNmsdOvvKjmvZGinuJfKXypN7E7XRWGf4SFNetTqUq1GOHb5Xrr06vv8tjmlGUZue57Z9KKy/Cen3Ol+FdFsrtNt1b2UEMy7t2HWNQwz35B5rV2n0NeXJcsmk7m8XdJkHw5/5Lte/9i0n/AKVNXuNeHfDkEfHa9yP+ZaT/ANKmr3Gv6D4a/wCRTQ9H/wClM+HzD/ep/wBdAooor6Y84KKKKACiiigDzP8AaM/5JRef9hHTP/S+3rBb7x+tb37Rn/JKbz/sI6Z/6X29YTKdx471+P8AHH+80f8AC/zPqsn/AIc/UbXzx42bXdd+PPiTS7ew8Ua1p1no2nzR2uh6+NNjt3kecMzAyJuLbV55+7X0RtPpXHeJPg/4R8Xa4+sarowuNTkhS3e6juJoXaNSSqnY4yBubGfWvgsJWhQm5TW6t+XmvzPbqxc1ZHS6Tbm10qzhZZkMcKKVuJfNkBCjhnydzepzzVuuL03whcaL8Rbe7szdjQ49E+xLDJcs8MTrKmwKhP3iobLck9zXa7T6VzVEk7p3uXHt2Oe8Uf8AIY8Ff9jJY/8AoRr6Guf+PeX/AHD/ACr568UA/wBr+CuP+Zksf/QjX0Lc/wDHvL/uH+VftPBf/Iul/jf5RPks2/3hen+Z81/CH/kl3hX/ALB0P/oNddXJfCFT/wAKt8K8H/kHQ/8AoNddtPoa/HMX/vFT/E/zPq6X8OPoj53+KVhqPiD9oL+zotIuPEFnD4YiuBZr4hl0uOKQ3UimT5D85IAHtivc/C9ouneH9NtPI+xtFbqPszXRuWjwOV8xjl8HjcetZ3if4X+E/GmoRX2veG9O1e9ii8lLi7t1d1jznaCecZJOK46DwDPp/wAWtKk07woNM8OaZbgQ6lZzxDexjZfKZC25IlDH5VX5mO49K65VaeIpRp3tyr5af9vdfJXMuVwm573/AOB5Hq1ZPi7/AJFPW/8Arxn/APRbVr7T6Gsnxcp/4RPW+D/x4z9v+mbV5lP40dEtmetfDD/kmvhL/sEWn/olK6auZ+GH/JNfCX/YItP/AESldNX9UH5sFFZeqWurT6npUlhf29rYwyu19BLbGR7hChCqj7h5ZDYJOGyBjAzmszR9L8V27aKdS16wvFgWcakIdOMX2osf3Jj/AHh8rYOv3t3tQB09FFFABXnn7Q3/ACQ/xt/2C5v/AEGvQ688/aG/5If42/7Bc3/oNRU+BlR3RyyfcX6CloRTsXg9B2pdp9DX8rn6SeYftLatqOi/BjXLvSp7q2vhLaRxvYz+TMQ91EjKj5G0sGIznvVv4U6Je6TNqL32j+ItILhFRde14akJOv3AJH2Ed+mc12HifwrpnjTQ7rRtbsU1DTLkKJreTIVtrBhyCCMEA8eleb+LvgHprWOnweFobjRrj+0re5nvI72ZniWMOyuA7nOHKnb3GQeK9SjVpSofV5Ozbetumnmuz6M5pxlz861sv8/I9byD0OaK474S6Lr2ieC47fxLFDFrT3l3POttJ5kf7y4kdSp9CrA47Zx2rstp9DXn1IqE3FO9upvF8yuYs3/JUPht/wBhS5/9IbivoSvnyZSPih8Nsj/mKXP/AKQ3FfQdfuPB/wDyK1/iZ8dmv+8/JBRRRX2x44UUUUAFFFFABWLqH/H5J+H8hW1WLqH/AB+Sfh/IUAbVFFFABRRRQAUUUUAcz43+HOgfES3sotdtJLgWUxnt3huZbd43KlCQ8bKeVYjGcc1y/wDwzj4G/wCfXVf/AAeX3/x6iisZ4ejUfNOCb80i1UnHSLsH/DOPgb/n11X/AMHl9/8AHqP+GcfA3/Prqv8A4PL7/wCPUUVn9Tw3/PuP3Iftan8z+8P+GcfA3/Prqv8A4PL7/wCPUf8ADOPgb/n11X/weX3/AMeooo+p4b/n3H7kHtan8z+81/CfwZ8KeCdcGsaXZXQ1JYXt1nutQuLkpGxUsFEjsBkquceldPr2g6f4o0W90jVrSO+028iaG4tphlZEPBU0UVvGEaa5YKyIcnLVs4X/AIZv+HH/AELEP/gTN/8AF0f8M3/Dj/oWIf8AwJn/APi6KKz9hS/kX3Irnl3D/hm/4cf9CxD/AOBM/wD8XR/wzf8ADj/oWIf/AAJn/wDi6KKPYUv5F9yDnl3D/hm/4cf9CxD/AOBM/wD8XUtp+zz8O7G8truLwxb+fbSpPEzyyuFkRgythnIyCAfwoopqjSTuor7g55dz0WiiitiAooooAKKKKACsPxh4J0Tx9pS6br+npqNkky3CxuzLtkXO1gVIIIyeh70UUmk1Zgcj/wAM4/Dv/oXz/wCB1z/8co/4Zx+Hf/Qvn/wOuf8A45RRWH1ej/IvuRftJ9w/4Zx+Hf8A0L5/8Drn/wCOUf8ADOPw7/6F8/8Agdc//HKKKPq9H+Rfcg9pPuH/AAzj8O/+hfP/AIHXP/xyj/hnH4d/9C+f/A65/wDjlFFH1ej/ACL7kHtJ9zc8HfCfwn4A1G5v9B0hLG9uYlgln86SV2jUlguXY4GSTxXXUUVtGKirRVkS23qwoooqhBRRRQAUUUUAZHizwnpfjjw/daLrNsbvTrnYZIlkaM5R1dSGUhgQyqQQe1cR/wAM4+B/+fXVf/B7ff8Ax6iisp0aVXWpFP1VylOUfhdg/wCGcfA3/Prqv/g8vv8A49R/wzj4G/59dV/8Hl9/8eoorL6nhv8An3H7kV7Wp/M/vD/hnHwN/wA+uq/+Dy+/+PUf8M4+Bv8An11X/wAHl9/8eooo+p4b/n3H7kHtan8z+8s6X+z/AOCtI1aw1KGwvZLqxmW4tzdardToki52tseUqSM8ZFeiEBgQRkUUVtCnCmuWEUl5aEOTlrJ3PNF/Zt+Gsa7U8K28aZJCRzTKoyc8APgfhTv+Gb/hx/0LEP8A4Ez/APxdFFT7Gl/KvuK55dw/4Zv+HH/QsQ/+BM//AMXR/wAM3/Dj/oWIf/Amf/4uiil7Cl/IvuQc8u4f8M3/AA4/6FiH/wACZ/8A4umyfs2fDaWNkfwtA6MCrK1xMQQeoPz0UUewpfyL7kHPLuei2NlBptlb2lrEsFtbxrFFEgwqIowqj2AAqeiityAooooAKKKKACqGu6HYeJtGvdJ1S1S9069iaC4t5PuyIwwVP1FFFAHB/wDDOPw7HH/CPH/wOuf/AI5S/wDDOPw7/wChfP8A4HXP/wAcoorn+r0f5F9yL9pPuH/DOPw7/wChfP8A4HXP/wAco/4Zx+Hf/Qvn/wADrn/45RRR9Xo/yL7kHtJ9w/4Zx+Hf/Qvn/wADrn/45R/wzj8O/wDoXz/4HXP/AMcooo+r0f5F9yD2k+5f8P8AwO8D+FtctNY03Qkg1K03GC4e4mlMZZSrFQ7kAlSRnHQmu7ooraMYwVoqyJbb1YUUUVQgooooAKKKKACsXUP+PyT8P5CiigD/2Q==;strokeColor=none;strokeWidth=0;points=[];labelBackgroundColor=none;rounded=0;html=1;whiteSpace=wrap;" vertex="1" parent="1">
            <mxGeometry x="299" y="289" width="487" height="211" as="geometry" />
          </mxCell>
        </UserObject>
        <UserObject label="" tags="Background" id="LqAOF11i0ZwZVFPnW95y-12">
          <mxCell style="vsdxID=12;fillColor=none;gradientColor=none;image;aspect=fixed;image=data:image/jpeg,/9j/4AAQSkZJRgABAQEAYABgAAD/2wBDAAMCAgMCAgMDAwMEAwMEBQgFBQQEBQoHBwYIDAoMDAsKCwsNDhIQDQ4RDgsLEBYQERMUFRUVDA8XGBYUGBIUFRT/2wBDAQMEBAUEBQkFBQkUDQsNFBQUFBQUFBQUFBQUFBQUFBQUFBQUFBQUFBQUFBQUFBQUFBQUFBQUFBQUFBQUFBQUFBT/wAARCAE6AxoDASIAAhEBAxEB/8QAHwAAAQUBAQEBAQEAAAAAAAAAAAECAwQFBgcICQoL/8QAtRAAAgEDAwIEAwUFBAQAAAF9AQIDAAQRBRIhMUEGE1FhByJxFDKBkaEII0KxwRVS0fAkM2JyggkKFhcYGRolJicoKSo0NTY3ODk6Q0RFRkdISUpTVFVWV1hZWmNkZWZnaGlqc3R1dnd4eXqDhIWGh4iJipKTlJWWl5iZmqKjpKWmp6ipqrKztLW2t7i5usLDxMXGx8jJytLT1NXW19jZ2uHi4+Tl5ufo6erx8vP09fb3+Pn6/8QAHwEAAwEBAQEBAQEBAQAAAAAAAAECAwQFBgcICQoL/8QAtREAAgECBAQDBAcFBAQAAQJ3AAECAxEEBSExBhJBUQdhcRMiMoEIFEKRobHBCSMzUvAVYnLRChYkNOEl8RcYGRomJygpKjU2Nzg5OkNERUZHSElKU1RVVldYWVpjZGVmZ2hpanN0dXZ3eHl6goOEhYaHiImKkpOUlZaXmJmaoqOkpaanqKmqsrO0tba3uLm6wsPExcbHyMnK0tPU1dbX2Nna4uPk5ebn6Onq8vP09fb3+Pn6/9oADAMBAAIRAxEAPwD9MKKKKACiiigAooooAKKKKACiiigAooooAKKKKACiiigAooooAKKKKACiiigAooooAKKKKACiiigAooooAKKKKACiiigAooooAKKKKACiiigAooooAKKKKACiiqc+qQwSMh3MV4OB3rxM1zvLskpxq5lXjTjJ2V+r8jSFOdR2grlyis/+2oP7r/lR/bUH91/yr5n/AIiBwv8A9B8Px/yN/qtf+VmhRWf/AG1B/df8qP7ag/uv+VH/ABEDhf8A6D4fj/kH1Wv/ACs0KKz/AO2oP7r/AJUf21B/df8AKj/iIHC//QfD8f8AIPqtf+VmhRWf/bUH91/yo/tqD+6/5Uf8RA4X/wCg+H4/5B9Vr/ys0KKz/wC2oP7r/lR/bUH91/yo/wCIgcL/APQfD8f8g+q1/wCVmhRWf/bUH91/yo/tqD+6/wCVH/EQOF/+g+H4/wCQfVa/8rNCis/+2oP7r/lR/bUH91/yo/4iBwv/ANB8Px/yD6rX/lZoUVn/ANtQf3X/ACo/tqD+6/5Uf8RA4X/6D4fj/kH1Wv8Ays0KKz/7ag/uv+VH9tQf3X/Kj/iIHC//AEHw/H/IPqtf+VmhRWf/AG1B/df8qVdZgJAIYD1xTXH/AAu3b6/D8f8AIX1Wv/Ky/RR6Ecg80V99GSnFSi7pnKFFFFUAUUUUAFFFFABRRRQAUUUUAFFFFABRRRQAUUUUAFFFFABRRRQAUUUUAFFFFABRRRQAUUUUAFFFFABRRRQAUUUUAFFFFABRRRQAUUUUAFFFFABRRRQAUUUUAFFFFABRRRQAUUUUAFFFFABRRRQAUUUUAFFFFABRRRQAUUUUAFFFFABRRRQAUUUUAFFFFABRRRQAUUUUAKv3hXNXv/H5P/10b+ddJWLeaZO11KyqGVmLAg+pr+ePGPK8dmWDwbwVGVTllK/KnK10rXt6M9bL5xhKXM7Hy1o+vX+tftOeN9Pvr3x1cWml6rp8NjDpDsNIt0axhkZbgDjBdmJz60/wn8cfFF5pXhXR/C3h2HVtQ1ay1jUTPr2tPiFbS+8na0giZn3b+MD5eB0Ga9+0H4a2vhvxD4k1qzilF74guIrm9Ly7lLxwpCu0fwjZGv41g+F/gDong+80q50+C6EumWd7Y2/mXG4eXdXC3E2fU71GD2HFfh8ssxlWKVTLKr5Y00l7Odm405Jt2t9tp+ere7T9Lnitprr18/8AI8n8aftWSaB8M/D3jWzs9DjttQ0b+2pdK1TVHivnUAF44USJtxHI3sQucDiuw+EuuXGtfFT4pM9xPJZibSpLaCVyVhWSwjchRnC5Jycd6dqP7Ifhe+0ez0yKfW9Os4dE/wCEdmSx1ExG8sNzMIZmAyQGdzldp+Ygkg4rv/C/wts/COraxqOnxTC51UWwufMl3D9xCsMe0dvkUZ9TUYvIqscJUp4LLqynJSV3Tnt7SEorrsoy1W916JxqrmTlNff5Hy7NrXivSPhb48+KVr431s6v4f8AEWp7NLvLlZdNuLWC9aMWphZflzGNoZCGDEHPavQvEH7Ret6f/wAJNrth4XtbrwV4Y1WLSNUup75o75pD5QmeGHYVKxGZRhmBba2O2eqt/wBlLw3HqlxPcz61qGmTapJrJ0G61Nm077U8vnFzAMBwJPmCuWXParWs/sxeH9c8TX2qzvq0dpqN7FqWoaHBflNOvbqPZsmlh7t+7jJAIViilga9CplU8RUvXy6rJJtr9zJWi3D3Pds20lKzeictuqhVLLSa+8q+AfiZ4j+IXifVZbDQbCLwZYapd6Qb6W+YXry27GOSQQ+Xt2eYrKAX3YGcdq8N/ad+Imv+Gvip4ogsNZ8W2AsPCun3OmNokirp1pezXV1GJr7d8oiJSIMWBAVT0r6O0H4C2HhnxnfeINMvtatI726lv5tGj1FhpzXUg/eTeT/eY5YjO3cS2M81e1r4K6P4h1nxFqWoWclzLr+jpoV/G8v7t7VWmIUL2OZ5Ofp6VxYPKcVgcd7eOW1ZU+VK3sp3vzRbve93ZNNqye1kmXKpGUbc6v6ni3ij9qe+8KeLtR0BdJs9Wl8PtYW2rrHLMLq6mnjjdzaRpEysEWVW+dlzyB0zWnq/7Q/iPS9W8Q3jeE7I+D/D/iWDw9f351E/am81oFE8cPl4IRrhNylgTg46V3Fn+zbp+l6tb6hpes+I9JmEFrBeLZansXURboscT3AKnL7FVSy7SwABzXN6H+yks3jXxPrviK+vbm21DxMuvQaPaai4sZTHHCIGnhKgGRHi3YU7ThN27HHVT4eptXeW1fdir3p1Lyd481krJP43HVpXV1ppPtn/ADr70c/rH7TmuaHovibXbzwvY2+i2OvyeGNNkfUWMt3eC68gSOqxHy4QMsT8zZRgFOQTHJ+1Fqsfgu51NtBso5rTXE0i51aSW4GkRRNAZhdtJ5PmCLOIySmFc8nHNesXv7P+h3/hLVPD0kN2lnf6rJrRniuilxb3jz+eJopBgoyyYK46YxyM0y4+BdxdeGxpEvjDxaz+e0z6h/ai/aJAU2GNvk2bMdgvB5HPNc8cjTWuVVb838lT4bK3R67382tGtE/a/wB9fgeTeN/2s5fDXiC+0zTtJ07V30fT7K+1FIbyV3u2uE8zyrHZEyyEJ8wZygbcoHcjT8S/tFeIdF8R+KDB4UtJ/CvhrV9O0y+vpdQZLqRbuK2cPFD5ZGYzcjcGYZA45rtYP2YdE0i6sZvD15rnhQW9jbabLFouomFLu3twRCsoIbLKpKhxhsHGcVr6t8A9F1q38UQ3MN0U8SX9rqV/tuMEzW6wLHt/ujFvHkd+fWn/AGFGMocuVVmrJO8Kl780OZ2VktFPl1e6vsrHtX/Ovw/rseW+GPi945tYvile+ID4Yh0/QdefT9PnvtQa2iiXZAQkjeVyMSZB5Ys23pg1gf8ADRfjbxlB4Kl8MWehxTS+Mbjw5qitdSPbXPl2skymJzDuCMu1s7QwZQvIJNet65+zHoeu3+v3T3WsWh1i+t9WeK1vtsdtfwmMpdQqQdkn7pM5ypx93k0wfsvaGmgjT473XI7ka5/wkS6sNRJvVvjGI2kEhB4ZMqVxtwxwBxjeGTf8vJZZU53b/lzPlXuKL06+9d97q6F7Tpzr7/M4my+NGpWeraloOiaW2p+JtT8YX2j2cWq6m/2WNYLVJ5pS+wlI1XhYlBOT15OC3/aI8Uapd6P4f0/wlp7eLrjWdQ0K9guNTZbO2mtYVm81ZBGWeNkdCBtDDdjHBrv9W/Zr0LVLefZJqmnag+tSa/Dqlje+XdW148Qido3wRtZBtKMCpycjpi34b/Z70LwrcaDc2kV5Le6Rc3d6l3dXZllubi5XbPLOx5dmH0AwMAAAVzSyOXJzf2ZWlKz3p1Pi5ZWbafw35dLXum720de01+NfejzBf2nNRuNI8E3TaJp2iDWpbu2vb3WL2RLG2ura5+zvbJMkZG92V2QvsBC+pxX0GDkA15vqX7L+ian4ch8PG+1y30DzLmS60uDUNsF6J7hriRZlxyN7tgqVIU4zivUotGnjVI0jCqoCgZGAK8fM+G8ZV5PqGX1ou87/ALuezl7m99bafJO927XTrRXxzX3m/H/qo/8AdH8qdSKu1VXOcAD9KWv7/wABTlSwlGnNWajFP1SR8rLWTaCiiiu8kKKKKACiiigAooooAKKKKACiiigAooooAKKKKACiiigAooooAKKKKACiiigAooooAKKKKACiiigAooooAKKKKACiiigAooooAKKKKACiiigAooooAKKKKACiiigAooooAKKKKACiiigAooooAKKKKACiiigAooooAKKKKACiiigAooooAKKKKACiiigAooooAKKKKACiiigAooooAKKKKACiiigAooooA4L4g/Gvw38OS8N615f6gF3LZabavO/sCQNq/ie/SvmL4gftneLNYlnstA06PwtCMozXC+dd8jqcgKhwQeAcepr7ar5J+NX7Lvjfx58TNY17SW0drC8KNH9pvHjkGECkFRGfT1r6bJpZf7W2Litt29L+lvzueTj44nk/cv5JfqeSeD/2mPiH4PunkGuPrUEjF3ttXBnQknJwchl59CPQYr6T+Hf7XmjeKIYU1/Q9T0CaQcXUVvJc2j9eQ6ruA47jv1PWvD/+GL/iT/1Af/Bi/wD8ar7G+F/hq88G/Dzw9omoGJr2ws44JjAxZNyjB2kgZH4V6edVcrlBSoRUpP8Aldrfhb8DjwEMYpNVG0vPU6O0u4b62iuLeVJ4JFDJJGcqwPcGpaKK+GPogooooAKKKKACiiigAooooAKKKKACiiigAooooAKKKKACiiigAooooAKKKKACiiigAooooAKKKKACiiigAooooAKKKKACiiigAooooAKKKKACiiigAooooAKK+YtU+JXxE0Xw38SviJH4mt73R/CfiDUrY+F7jTIhHLY20+1lSdcSLL5e4hm3AkAEc5rvdc/aS0zRLnVbn/hHtVuvC2j30Om6p4jiaIW9nNJ5eRsLeZIqGWMOyA7ST1waAPYKK81t/jUNQ1fxClh4X1S90DQpbu2vNfSSFYBPbQtJKixl97KCvl7wCN5x2JEF5+0Bo1lpNrqDWF60Vx4Rn8Yqqhc/ZohDuj6/6w+euO3B5oA9Rorwi6/aq+xy6nDL8O/E0U9ho8fiOSN2tgTpbbx9o/1nDAxv+5Pz/LV7xb+1V4X8M6hcww2txqtlp9na3+pXkVxBF9khuFDxERSOHmbyyHKxgkKR1JxQB7TRXkF9+0fY2HizUtMPhjWZdI0zXLXQL3X08r7NFcXCQtCQpbzHQmeNSyr8pbmr3wa+Kmv/ABG1zx3Zav4aGj23h/XLjSra8jnR1uFjEZAZQxIbD5zgDGBgEGgD1GivnL4W/EzXvHHxm8XaVfeM9St49I8R3mn22g23h3dZyWsMaMN975JCsdzZHmA8DjnnqPBX7TWmeLZ9DmufDmraDoetpef2frN+YfJmktQzTIVVyy/LHIysRhgp6YoA9loryG1/aHSTwcPE1z4O1yz0y+NsuhhzC02rvcSBLdI4w+6Nn3K2HxhSSTxim3H7R1pp8GoWOoeGNVsvGFrqNppieGDJC89zJcqzwNHKG8sxsqSEuSAvlvkcUAewUV84eEP2kLnSU8Xy+J7C9TU5PGUmhaTod1PbwumyygmZTMXEQjUGR95Y5BHUnFdTD+01p+p2fhYaN4Y1bWtX168v9PTS7WSDdbT2ZX7QJZS/l7QCSHUkMMY5YCgD2aikRiyqSu0kZKnt7UtAHLfFDx7b/DPwNqniO4gN0LOMeXbhtvmSMQqrnsCSK+OJ/wBs74kyTO0MmiwRMxKxnTy+0HtuL84r6N/a4/5IXrf/AF1t/wD0clfn/X6Dw7l+GxOHnVrQUne2vov8z5nNMVWpVYwpysrHt/8Aw2V8Tv8An50X/wAFn/2yj/hsr4nf8/Oi/wDgs/8AtleIUV9X/ZGA/wCfMfuPF+vYn/n4z2//AIbK+J3/AD86L/4LP/tlH/DZXxO/5+dF/wDBZ/8AbK8Qoo/sjAf8+Y/cH17E/wDPxnt//DZXxO/5+dF/8Fn/ANso/wCGyvid/wA/Oi/+Cz/7ZXiFFH9kYD/nzH7g+vYn/n4z2/8A4bK+J3/Pzov/AILP/tlH/DZXxO/5+dF/8Fn/ANsrxCij+yMB/wA+Y/cH17E/8/Ge3/8ADZXxO/5+dF/8Fn/2yj/hsr4nf8/Oi/8Ags/+2V4hRR/ZGA/58x+4Pr2J/wCfjPb/APhsr4nf8/Oi/wDgs/8AtlH/AA2V8Tv+fnRf/BZ/9srxCij+yMB/z5j9wfXsT/z8Z7f/AMNlfE7/AJ+dF/8ABZ/9so/4bK+J3/Pzov8A4LP/ALZXiFFH9kYD/nzH7g+vYn/n4z2//hsr4nf8/Oi/+Cz/AO2Uf8NlfE7/AJ+dF/8ABZ/9srxCij+yMB/z5j9wfXsT/wA/Ge3/APDZXxO/5+dF/wDBZ/8AbKP+Gyvid/z86L/4LP8A7ZXiFFH9kYD/AJ8x+4Pr2J/5+M9v/wCGyvid/wA/Oi/+Cz/7ZR/w2V8Tv+fnRf8AwWf/AGyvEKKP7IwH/PmP3B9exP8Az8Z7f/w2V8Tv+fnRf/BZ/wDbKP8Ahsr4nf8APzov/gs/+2V4hRR/ZGA/58x+4Pr2J/5+M9v/AOGyvid/z86L/wCCz/7ZR/w2V8Tv+fnRf/BZ/wDbK8QrrtP8N6c3ww1bX7tZ/wC0E1CGystsgEbAozSkjGSVAXv/ABVnPK8vppN0Vq0tu5UcZipbVGeg/wDDZXxO/wCfnRf/AAWf/bKP+Gyvid/z86L/AOCz/wC2V4hnt3rotL8Mw3/gXxBrrTSJNptzZwJEANriYyZJ78eWMfWnLK8vgruiui27uwRxmKlops9N/wCGyvid/wA/Oi/+Cz/7ZR/w2V8Tv+fnRf8AwWf/AGyvM9N8A6pq+iS6nayWMkcUT3DW322L7T5SnDyeVndtHJJI6DPSpj8M/Ef9panp66eXu9OlhhmjRwcvKwESp/e3ZyMdsmo/s/K02vZx0K+tYzfmZ6N/w2V8Tv8An50X/wAFn/2yj/hsr4nf8/Oi/wDgs/8AtlcEvwl8RTalYWNrFZ6hJfPNFDJZXkc0XmxJvkjLqcK4XnB9RWSNLsNB8RTWXiCSS4t4ARI2izxTZbAI2ucqRzzQsvyyXw0ot76A8Vi1vNo9T/4bK+J3/Pzov/gs/wDtlH/DZXxO/wCfnRf/AAWf/bKxfFXwgtT4m1fRfCr3c8miqJdQvNYuIIIEjYIQ4bIwAXwc1yE3w91aPQ5tUR7C6gg2GaK1vopZoVdtqO6KxKqWIGT6j1rOngsrqJNU462/Hb7ypYjGRdudnpP/AA2V8Tv+fnRf/BZ/9so/4bK+J3/Pzov/AILP/tlcHrXwh8TaDbvJc2sEjRzxW0kFtdRyzRPKcRb0U5UOfuk9ePUVt+C/hCbrxbfadrlzp7R6fp9zez29vqsKEvECPKZ+dh3feOOBzSlg8qjBz9nFryBV8a5cvMzof+Gyvid/z86L/wCCz/7ZR/w2V8Tv+fnRf/BZ/wDbK4O6+Fuutp8+pw2tvHb+S17HY/bY5Lr7Lk4lEedzJj+LHIGcYp6/B3xO9xp1stvaNd6hb/are1F5F5ph8vzPMZc5VSvdsDINV9RyrrCP4C+sYz+Znc/8NlfE7/n50X/wWf8A2yj/AIbK+J3/AD86L/4LP/tlcVd/BbxRZ2z3BisJovs7XcLW+oQyfao0BLtCA2ZNoBzt6YrMb4ca4ugnVTFb+ULUXxtvtMf2kWxOBN5Od2zkc46HPTmmsDlUtoRD6zjFvJnpH/DZXxO/5+dF/wDBZ/8AbKP+Gyvid/z86L/4LP8A7ZXmPivwJq3guO0bVRbQyXSCSOCO5SSUIVDK7IDlQQeCeuDXbf8ACvPDsmsfZZRf21rYeGv7au5beVXluH2RttUMNqD5yPwqZYHLIxUlSTT7LsNYjFt252mbH/DZXxO/5+dF/wDBZ/8AbKP+Gyvid/z86L/4LP8A7ZXHah8M11a10K/8Iy3Op2erSTW4hvEWKa2liAZxIwOzZtYNvyB1zjFUZPhP4iGpWVpFDa3aXkMtxDe215HJa+XF/rXaUHaoT+LOMZHqKawOVvenFeum3/DMX1jGfzM7/wD4bK+J3/Pzov8A4LP/ALZR/wANlfE7/n50X/wWf/bK8v1TwTqmk2l3dyC2ntLWeG2e4tLlJoy8qM6bWUkEFVP0xg1s2Xwb8T311eQLBaQm0vRp8r3N5HEv2gqGWNSxG5mBGAOtU8vyuKu6cf6/4dCWJxjdlJnb/wDDZXxO/wCfnRf/AAWf/bKP+Gyvid/z86L/AOCz/wC2VwGofCXxPprWKSWEcs93c/Yhb29wkskU+ARFIqk7Gwc4NKPhP4im1OxsbSK01F74S+RNZXkcsLNEMyIZAdoZRjIOOopfUcqtfkiP6zjNuaR33/DZXxO/5+dF/wDBZ/8AbKP+Gyvid/z86L/4LP8A7ZXKaP8ABPWNQ1iSxub3TbNP7Mn1OC7+2RPBMsYOVVw2M7gQ3Py9TxWTqnh6wt/hzZapHEy6omrzadcSpceZFMqxhwyjGB1xkEgjmksDlcpKMaUX6fP/ACD6xjErubR6D/w2V8Tv+fnRf/BZ/wDbKP8Ahsr4nf8APzov/gs/+2V4hRXT/ZGA/wCfMfuMvr2J/wCfjPb/APhsr4nf8/Oi/wDgs/8AtlH/AA2V8Tv+fnRf/BZ/9srxCij+yMB/z5j9wfXsT/z8Z7f/AMNlfE7/AJ+dF/8ABZ/9so/4bK+J3/Pzov8A4LP/ALZXiFFH9kYD/nzH7g+vYn/n4z2//hsr4nf8/Oi/+Cz/AO2Uf8NlfE7/AJ+dF/8ABZ/9srxCij+yMB/z5j9wfXsT/wA/Ge3/APDZXxO/5+dF/wDBZ/8AbKP+Gyvid/z86L/4LP8A7ZXiFFH9kYD/AJ8x+4Pr2J/5+M9v/wCGyvid/wA/Oi/+Cz/7ZR/w2V8Tv+fnRf8AwWf/AGyvEKKP7IwH/PmP3B9exP8Az8Z7f/w2V8Tv+fnRf/BZ/wDbKP8Ahsr4nf8APzov/gs/+2V4hRR/ZGA/58x+4Pr2J/5+M9v/AOGyvid/z86L/wCCz/7ZR/w2V8Tv+fnRf/BZ/wDbK8Qoo/sjAf8APmP3B9exP/Pxnt//AA2V8Tv+fnRf/BZ/9so/4bK+J3/Pzov/AILP/tleIUUf2RgP+fMfuD69if8An4z2/wD4bK+J3/Pzov8A4LP/ALZR/wANlfE7/n50X/wWf/bK8Qoo/sjAf8+Y/cH17E/8/Ge3/wDDZXxO/wCfnRf/AAWf/bKP+Gyvid/z86L/AOCz/wC2V4hRR/ZGA/58x+4Pr2J/5+M9v/4bK+J3/Pzov/gs/wDtlbXg39r74hal4r0mzvzo91aXF1HDJGlkYiQzBchg5xjOfwr52re8Bf8AI8eH/wDr/g/9GLWdTKcByStRWxcMbieZe+z9RaKKK/Fz70KKKKACiiigAooooAKKKKAPFJv2bZNQuvEdhqHjPUJ/BWu6xPrN54bhtIYhM8solaF7jBkMRYcqNpI4JwTUuv8A7N8WuatrVuvia8tfBOvajHq2reGFtomS4uFKMwScjdHG5ijLIBzg4K7jXs1FAHmGk/Be60TxFr5tPFl7H4P1u4u7y78Nm1hIM9zGUm2zkb1jJYuEA4bvjIPMaN+y/Ja2U9pqvjbUdagXwrd+D7KOS0hiFrZTGIqx2DMkqiFQXY/N6Dv7tRQB5rq3wPsNW1TWr19SuEbU/Ca+E3QIuEhDSnzR/tfvjx04Fc5J+zLb2HiK31fRNagsZZLKxstSW+0a2vjdfZYxFHLG0gzC5QbTjcpwDtyM17bRQB5rqnwPsNUh8SRNqNxGuteIrPxFJtRf3clubYrGP9k/Zlyf9o1q+B/hu/gbxV4u1G21iW50vxBe/wBpnTJYF/0a6ZUWV1lHLKwjX5SOOeea7WigDy3wj8Hta8EeM9c1PS/GkqaFrOsza1d6LLpsT5llVQ6rNncB8gxxUWh/s86RpPhfwToUt/cXtl4YnvpV8xFBuluo543R8dABO3T0Fer0UAeKWf7Ouor4JTwxe+P9UvbLS3tZfDk/2K3SfSZLaQPbyFwv791ACHdgMuRjJ3U67/Zxk1S2u9U1Dxdd3Xj2bUrTVI/Eq2cSLBJao6QRpbfd8oJJIpUklvMY7gcY9pooA8Lm/ZagutLuXuvE9xqHiR9ffxHFq99p8E0aXL2yW0iG2I8toii/d4IyCGyMnsdF+Ea2OoeC9QvNUW5v/Df24q1rYxWkM5ulVW/dR8IFCjHUnuTXodFABRRRQB45+1x/yQvW/wDrrb/+jkr8/wCv1B+IXgiy+I3g3U/D1+zRwXse0SoMtGwIKuPcEA18k3H7DvjJJ5Fg13Q5YQ2EkkaZGYdiVEbAH2ya++4fzLC4TDypV58rvf8ABf5HzWZ4StWqqdON1Y+dKK+h/wDhh/xv/wBBnw//AN/p/wD41R/ww/43/wCgz4f/AO/0/wD8ar6n+28v/wCfq/H/ACPH/s/FfyHzxRX0P/ww/wCN/wDoM+H/APv9P/8AGqP+GH/G/wD0GfD/AP3+n/8AjVH9t5f/AM/V+P8AkH9n4r+Q+eKK+h/+GH/G/wD0GfD/AP3+n/8AjVH/AAw/43/6DPh//v8AT/8Axqj+28v/AOfq/H/IP7PxX8h88UV9D/8ADD/jf/oM+H/+/wBP/wDGqP8Ahh/xv/0GfD//AH+n/wDjVH9t5f8A8/V+P+Qf2fiv5D54or6H/wCGH/G//QZ8P/8Af6f/AONUf8MP+N/+gz4f/wC/0/8A8ao/tvL/APn6vx/yD+z8V/IfPFFerfEL9mXxz4EuNFtbe2tvE19qssqRWukOxeNY1DPI5kCAKNw6EnnpVuP9lPx63jKLQDaxrHJAJv7X8uU2KEqWKNIFyGHTG3GTjNH9t5d/z9X4/wCQf2fiv5Dx6ivQ5vgf4gs/CGo+I7yO8tbSxuxZyWraJqD3bMQDvjhSBmdOfvKMcGtK4/Z71W18RaBoc+uabDqeuW63NnFJb3ija3QOTB8jccq3Io/tvLv+fq/H/IP7PxX8h5VRXpum/BBdYtfFNxZ+O/C08PhdimrvHLcv9kYErhgsJJOVIwOeK0v+GbNTa30O4TxRocsGt/8AHhJHDfMJecc4t/k5P8e2j+28u/5+r8f8g/s/FfyHkFFe2Q/sq65PqWp2CeKPDn2vTUMt3G0lyoiUdWJMOMfQ1Tf9nCaHQ7TWZ/iF4HtdIu5vs8F9dao0MMsuCdiu8YBbAPHXij+28v8A+fq/H/IP7PxX8h4/RXuX/DJeuf29Jof/AAmXg861HH5r6b/aD/aFTGdxj8vcBgg5xjFPtf2RdfvbN7y38X+EZ7RH8triK/kaNX6bSwjwD7Uf23l//P1fj/kH9n4r+Q8Kor6EX9ibxnJs2674dbeNy4nmOR6j910pw/Yi8atnGt+Hjjr+/n/+NUf23l//AD9X4/5B/Z+K/kPnmvQtN8X+F/8AhD/D2h6paarNFp95cX91DbtGI7qVwiqMnlQFQKT15NejD9h7xwems+Hz/wBtp/8A41R/ww744GM6xoA/7bT/APxqsqmbZbUSvW29fTt5lxwWLhtD8jgJdNu4fhTPeXOn2Msd0I2tjCkataIsxzIzfeaRydgXk7Bk9qy/BfifQ7Dwr4g0HXIL1oNSmtZ0msiu5DCZOCG658z9K9T/AOGIfHG3H9taBj086f8A+NUn/DD/AI3/AOgz4f8A+/0//wAarJZplzjKMqy1d9E12t+Rf1PFXTVPpbocjo3xU8P6B4ak06y0++hkbT7qwdFSEJO0m/bPI+C5YBlXbnHy8VqXnxYj8N6P8OLy3ihutWt2iv8AVAsgJmEG6C3V+6sIt3rnINbX/DD/AI3/AOgz4f8A+/0//wAao/4Ye8b/APQZ8P8A/f6f/wCNVjLG5TJ3dX1313/zv8l2LWHxqVlD8jkJ/i5Zw69YXMN3rWoWFuLtvst95KLG8tu8S7fLAyRuGWPUDoK8m2/Jj2xX0Q37EHjZfva14fH1mn/+NVUu/wBjfxRYTW8Vz4m8L28tw2yGOa7lVpW9FBj5P0rppZpldH4Kq/Hz8vMyng8XP4oHD+Ivida63qPjm6jspoR4gihjhVnBMWwx53ev3D09a07j4taMvgm+0ay0y6tZLywtbVrdFhW3ikimjkeUMBvcv5ZPzHgt3Fag/ZZ1Rp9Vgj8ceDZ7nSlZ7+3h1F5JbQL1MqLGWT8QKhj/AGYdYm0fTtUi8TaHPY6hN5FtJBFeyb2zjkLbkqv+02B71l/aGU2S9rtZ9elrdPJF/Vsbq+Tf06/8Oc/qfxMstQv/ABjL9kuootentJEaKRRJCsMwkbnH3iBwexrQ1f4taXd3zTx2d5e3D6Le6ZNqV0sUdzcvOMI8gQYOwcbuWbJya3G/ZB8ZrrN3poubF5LaIytcLFcfZ24B2rJ5WGbnoPQ1np+yb8Rrrw+2pWWn21xceb5a6dNKba4Zf7/7wKoH1bPtS/tDKdP3v59ku3ZB9Wxv8n5d7lFvipo3mLrw0+9HioaT/ZW3zF+yZ8jyPO6bv9X/AAevOazV+JVrH4y/tkWcxh/sM6T5e8bt5s/I3Z9M849K7BP2M/iS2r2tsRoqWUkIklvWvW2xOQf3ZUIWJBAGQMc9aztO/ZD+J954svNHlfwvBDawxTvdjULplZZC4AX/AEUZYbORnjI5NL+0spj/AMvN1b7W3bbYf1XGv7Hn0MHQ/iXa6TeeE5ns5pBo2l3dhIFcAyNMs6hh6AecM/Q1o6x8YE1jwnDardatYagmmx6dJbW3lfZZtihd5bG8AgDKc9+a2X/Y3+Jsf9p4t9Hl+zKTbCO/5vD2VdygIf8AfIHvVc/sl/EKDTdKubq1tbee9lMUtrG7zyWnzYDSmNSu3vlS3FU8wymUlN1Fdevdvt3YvquNS5eT8vT9Dzzx94li8XeJJ9TgheCOSGGMRyEEjZEqH9Vr0HUPFmkaLr0d1dv/AGhpmreFl0pzp86NLCxjjViy5+UgoeDjNXv+GRfGK6pf2T3djF9jjMrXTw3PkSqBk+W4iO8+wGaz3/Zp1aHQ01eXxJo1vp7z/ZxJPBfRkSehVrcMB/tYx705Zllkoxh7bRK3Xy8vISwmLTcuTV+hR0v4saT4fn0rTdO0q6Hh21ivIpxNODcztdR+XI4IG1cLjauDjB9adp3xQ0DQ7Sz0Gz0/UJvDi2l7bXE07ot27XOzLrgbRt8tML35yemNwfsn60fEMWgf8Jn4PGuywC5j0ttQkF08RBO9YjHuK4BOQO1WNN/Y+8Sa1bG40/xV4UvrdW2GW2vZJEDemVjIzUPH5S96v5+evrqylhsavsfl5f5I4jTfFXhOx0nWNCks9Xk0ae6tr6CRZIxO00SupVuNqq289Mke9XfEXxYsdYvbqWHT7iGOXxKmuKryKSI1jCeWf9rjr0ruR+xB42bprXh8/wDbaf8A+NUf8MP+N/8AoM+H/wDv9P8A/Gqr+0MqcuZ1dfn5f5IX1XGWsofl/XU43Q/jPBoOr31/Fp8krT6+NWEZkA/dfvAyZxw2JOD2Ip1x8XLWPXrS7S61nU7KGG9Vbe9EMYiaeFo8qEGDjIyTyQK7D/hh/wAb/wDQZ8P/APf6f/41R/ww/wCN/wDoM+H/APv9P/8AGql47KG+b2i2t19Ow/q+Ntbl/I8/8L/ErTtJsNBsL2yuZLa1sNQ0+6eF13lblSu5Ae65zg9ao6s9nb/CWwtoLqJ3l12e5it2mRpxD5IQNIin5eRjmvTv+GH/ABv/ANBnw/8A9/p//jVH/DD/AI3/AOgz4f8A+/0//wAarT+0ssUuaNa2t+vm+3dk/VMXazh+Xl/kfPFFfQ//AAw/43/6DPh//v8AT/8Axql/4Yd8cHkaxoBH/XWf/wCNV1f23l//AD9X4/5GP9n4r+Q+d6K+h/8Ahh/xv/0GfD//AH+n/wDjVN/4Yj8a4B/tvw9j18+f/wCNUf23l/8Az9X4/wCQf2fiv5D56or6CP7FPjBZmiOv+GxKqlin2ibcAOpx5XSs26/ZP1my019RuPGng6DT0k8pruXUXWJX/ulzHgH2zR/beX/8/V+P+Qf2fiv5Dw+ivbpP2VNWh1qx0d/G/gxNWvo/OtLBtScT3EeCd8cfl7nXAJyARwaqx/sz30+m6nqEHjnwfc2emOIr2a3vpZVt3JxtfbEcHPaj+28v/wCfq/H/ACD+z8V/IeN0V7LL+zDq8LaOp8U+H2/tfH2Ex/a3E2enIgIX/gWKpzfs73tvfeIbObxd4fgn8P273WpCVLxBbxKMs+42+GAH90mj+28v/wCfq/H/ACD+z8V/IeTUV6HcfCO3h8N6Fr6+OfDdxpGuTtbafdW7XLrNIrbWUfucjB9a1z+zfr3/AAml54WGpWj6paWxupHSyvTbbNu7CzeRsLEdFByaP7by7/n6vx/yD+z8V/IeS0V6t8Nf2ddc+Ktjf3Ojana2hsZhBcW2s2V7YXCMUV1PlywBsFWGDjnmux/4Yf8AG/8A0GfD/wD3+n/+NUf23l3/AD9X4/5B/Z+K/kPniivof/hh/wAb/wDQZ8P/APf6f/41R/ww/wCN/wDoM+H/APv9P/8AGqP7by//AJ+r8f8AIP7PxX8h88UV9D/8MP8Ajf8A6DPh/wD7/T//ABqj/hh/xv8A9Bnw/wD9/p//AI1R/beX/wDP1fj/AJB/Z+K/kPniivof/hh/xv8A9Bnw/wD9/p//AI1R/wAMP+N/+gz4f/7/AE//AMao/tvL/wDn6vx/yD+z8V/IfPFFfQ//AAw/43/6DPh//v8AT/8Axqj/AIYf8b/9Bnw//wB/p/8A41R/beX/APP1fj/kH9n4r+Q+eK3vAX/I8eH/APr/AIP/AEYte0/8MP8Ajf8A6DPh/wD7/T//ABqtjwf+xd4r0nxRpd9f65o8dpa3CTubbzZZDtYNgKyKOcY68e9Z1M6y/klaqtvP/IqOX4nmXuH2JRRRX44fdhRRRQAUUUUAFFFFABRRRQAUVxll8YPC2peNLjwtZ3s93qtvObWdoLKZ7aKcJvMLzhPLWQKQdpbPIHWuzoAKKranqdpounXN/fXEdpZW0bTTTyttSNFGSxPYAVNBPHdQxzROskUih0dTkMpGQRQA+iiigAoorgPG/wAdvBXw58QNo3iDVJbK8js01Cdlsp5Yre3d3RZZZEQrGu6N+WIxtJPFAHf0UyGZLiGOWJ1kikUOjqchlIyCD6EU+gAooooAKKKKACiiigAoqrql+ul6bdXjIZFt4mlKqcE4GcV4uP2o7IgH+wbn/v8ALXlYzNMJl8lHEz5W9tG/yR6+BynGZjGUsLDmS31S/NnuVFeG/wDDUVl/0Abn/v8ALR/w1FZf9AG5/wC/y15/+smV/wDP38Jf5Hpf6sZt/wA+fxj/AJnuVFeG/wDDUVl/0Abn/v8ALR/w1FZf9AG5/wC/y0f6yZX/AM/fwl/kH+rGbf8APn8Y/wCZ7lRXhv8Aw1FZf9AG5/7/AC0f8NRWX/QBuf8Av8tH+smV/wDP38Jf5B/qxm3/AD5/GP8Ame5UV4b/AMNRWX/QBuf+/wAtH/DUVl/0Abn/AL/LR/rJlf8Az9/CX+Qf6sZt/wA+fxj/AJnuVFeG/wDDUVl/0Abn/v8ALR/w1FZf9AG5/wC/y0f6yZX/AM/fwl/kH+rGbf8APn8Y/wCZ6xqv2/8A4SbQfI0+3ubDbc/aryQAyWx2p5YTnI3ncDgH7o6VtV8w+NP2itYvdW0HUfDml28T2DTi4ttUncRTLIigH93zlSvGePmNZ3/DS3xEkumle08NQwquEt4orhtx55Zy4I7cAHpT/wBYsrtf234S/wAif9Wc2v8Awfxj/mfV9HXk18it8eviDcWUME2t2UEsjA3FzY6YiSRrkZWESO69M/M4br0p4+M3iq41D7RdeJb8RWsZWyht7S3RXfOQ93x++6AbY/KHWl/rHlf/AD+/CX+Q/wDVnNv+fP4x/wAz6xurG3vreW3ubeK4t5V2yRSoGVx6EHgisubwL4cvJNNabw9pU8mmEtYNJYxM1ochiYiV/d8qD8uOgr5b/wCFmX506ZH1jWpL++lLalcG4kMUybiwSCFpStqOSMx84x6CrzfEbRLi+tlu9JvL7RrFP+JfptzJHJ9lk/56iVlMjNnn5mI9jR/rJlf/AD9/CX+Q/wDVjNv+fP4x/wAz6M/4RXw1Dqmr3AhhhvdQhK3xW5aNnj7k4Ybev3hg+9YmuaX4L03wlaRTa+dF0SK5Pk3UOsugMvIKecXJbv8AKSea8Nj+JFj9iui8uuJrd1Jm512NNN+2TRbQpgbNoYzGcA42buB82OK2rH4zaNpuqWtzZ6XqVpZW6ELpFu9tFZM56yGNYgd/fIIHtR/rJlf/AD9/CX+Qf6sZt/z5/GP+Z699p8Nf8LKkiXxDdP4hurM7dLFwXiSIoP3ix7cKcLnJPOT1rkNQ0rSL74ZavaWk2uXltDqCtL5nhFJJpWLfdW3ltVWZef8AWBTjH364yP4xaUNJ1PT5Y/FFxHqEgkeZtbdJ4cNu2xSIVaNe2AeRxVxPjhoiyaTIdL1930yNY4N2u3G2TAwDMvmbZm9WkDE0f6yZX/z9/CX+Qf6sZt/z5/GP+Z302glviD4N1CPw9DNDb6akYvpvDts01mNrYQXBmWS2I3cokbAZI4zxlW3hvxLF4Z8e28XgXw7JeXU4aytxENPh1MZGfPZJJTn/AGjjP92uWX42eHFbVWPh3UpP7TBF0smpyurA9QoLkJ/wDFQTfFvwbc6bplhP4Ke4tNNkMtpHNcl/JcnJYEnJOfUmj/WTK/8An7+Ev8g/1Yzb/nz+Mf8AM71vC/iO4svAjSeC9GgaxZWvYl164RdO+cZMO2LE4wM4fbzx71HHZ6/a+IfiFeS6Dpdtpl5bOmnX41yaSW9lwcI8bOqW4JPRCPqO294D/sDxvp154tt9DjtdQ1BZbW4aQ7mlVfl2nHBBAFckdbsvDfwT8P6hq3gyxtpLvy57jRTDtignbkna2eQR3r15Y2hHDfW3L93a99dvTc8WOBxEsV9TUf3l7Wut/XYo3mh6/J4H8LaLPe6hp2vLdNcTQ6HteaOPJwGWW+JZSBndvfgH5RW9JfWMfxQ1PxBL4y8SxaNa2HlSWfm27aEGC/fVlQv53Odpfk9Aa5D/AIaFsDqEOoHwjZHUII/KiuyiGaNMEbVfG4DBIwD3NQW3x20izs5rS38F6dBazPvlgjiRUdv7zKBgn3NeL/rNlf8Az8/CX+R7v+q2bf8APr/yaP8Ama3/AAkPgzS/hzDZ3/xO8aWceoXmYNR1Fp7bVJDtA2xq1urmHn7wQqT/ABZrZvdZ+H8vjjTtVl+JjLf6BbmGXTf7YTy3CDDPPF1LjuTiueX9pWOMxlfDkKmNdqEMBtHoPQVY/wCGppsEf2Lweo86j/WbK/8An5+Ev8g/1Wzb/n1/5NH/ADIreH4aWXhXXvL+IEN7p3iy8VhdXEdreRxSLIX2bWhZMZbGJg2OMYPNdTZ2GhNq3h/SrHVYzc+GbMSMqeHItk8QAP7h1hCITkYW39eFrirj9oHTrq1ntp/CFjPbXDBpoZURklIOQWUjDc+tQXXx10m+utOuZvB9m8+ncWb8A24yDhMD5RkA4HpR/rNlf/Pz8Jf5B/qtm3/Pr/yaP+Z6Yvi6/h0u/wBdW91KfTtQdoNNtG8HXy3NpIejyxYWV4x/eKoD/eqZta8Wpf6XoKXcEmqj99eao3hm5/s+WLqEQ/asRSY45d8n+EV5HF8YtCt31eSDwhFbzauc300Ny6POck5LBsg5J5GKjuPjFYTWWl2kemataQ6a26D7Nrt1GW56SESZlHtJuFH+s2V/8/Pwl/kH+q2bf8+v/Jo/5nr6eNvFMk2r6nF4bvpdGtz5VtpZsBHqUr8DeC1wI2jzk/wnHr3ibxV8QodM06FfCdjea1eMkhlNy0FjawkZKzN88glHQhFZcn7xryz/AIX1cprGpahGdVQ3kBiW0N1G1vbNgASRK0ZwwxnksvJypqm3x+8Sw6BBZWuo3DahHOZH1K/ht5pJY8/6tkjjiQDtkKDR/rNlf/P38Jf5B/qtm3/Pr/yaP+Z7avibxzJrFwi+DrUaXbwAmZ9UCzXE2DlYk2EbM7cM7KeTwMVi6X4q+KC32pTXngrT7iORohBYW+vRb7QbfmMjGMbt3BAA4xXnS/tKeI18RrcG3sW0XytrWPksJjJt+95u/GM9tvTvWHa/HrxVZ319qcFjo8WqajPGbx2814jDGgSNY1yCrbc5JJGcGn/rLlf/AD9/CX+RL4XzZf8ALr/yaP8Ame/f8JR42a/jhXwJF9mYDdctrUQ8v1JXZkge3Jqo3ij4jPpF9IvgbTodSt3/AHMMutgxXSZP3WWIlW4HDADnrXk6ftJeJBr15O0dkdHkhK29itsRNFJjhzN5mGGeduwfWs5fjt4ll8OrY3Wr3y6j5/mtqdjFawymPbjywskMqAZ5ztJ98Uv9Zsr/AOfv4S/yK/1Wzb/n1/5NH/M9wm8YeL7bU7GV/Bpl0W6j2yLb3ivfW02P44yBGY891kJx2quviLx5Iupac2h2tvqkI82HUxE0umyJgHyx+9WVpOT/AAquR1ryz/hoCc67BqTR6kyxReV9h+1ILZzjG9lCAlv+BY9qow/F7T49L1HT5dO1i7t7+QSzG4167eQEHIEb+ZujX/ZQgEdc0f6zZX/z9/CX+Qf6rZt/z6/8mj/meuXHjTxAllpOuNpl1b6cr/Z7/S28Pyz6hJJ3eLy5yI4z6lX7VkX2kQ3h1nwrq8GizR6oVvbPd4Km+wWoBJH2t3keGSTaFGWaM5HTkAcD/wALk0Rr7SLyTwms93pMax2U093JI0IAIByWO489WyfepoPjdo1u2osng60zqJzd7iGE/wDvA9aP9Zsr/wCfn4S/yD/VbNv+fX/k0f8AM6G+1rws+l6D4ivPEP8AZjeGpVtJLtvDVxaC6O7aEt4XXJTOP9UHA65ApDfeCLPXPEdmnxK1Cwn8SWvniwjm2y6dkeYsyF0LRMNxbbJhcHBXAArEHx40hbeygHgvTxBZHNrGI02wE9Sgx8v4VpJ+055bOyaAitJ99lkwW+vrR/rNlf8Az8/CX+Qf6rZt/wA+v/Jo/wCZXj8ZeCn8FaWIvjX4j1FPDk5a71WyaOe5uUySFulitiDGAMbwi8D71dDD4u8PzePYr2H4ma5LDr9s8emWxgT+x0fG3dDP5AR5FYY2GViGIBXJArJX9qORTkaIAfaaoZv2l0uNvm+HYpNpyu9wcH1FH+s2V/8APz8Jf5B/qtm3/Pr/AMmj/mR2a69/wre90rT/ABZ4qudfs78zXUmqW6f2nLDt6JEt3B5cfbJYDg/Ka6q61TWpviBoWrRNBd+EvsgjF2dXEJt5tv3Z1EpjlY8k7Rnp1xXKL+0RZyXklwfCtqbidfLlm+Xe6nghjjJHsa9C8Vaelj8OLA+HfCWl3ZuL7T5G0v8As9JIVjluIVuJQgAG5Imkbd22556V6WBzTCZi5Rw0r8u+jX5nl4/KcZlqjLFQspbap7ejOd0uHxb/AMI74stL3wXpv9sXU4+z2Efi6aWO9gLH94JTGrwEDnCr361bvtA8SXetfD6Ox8FadPZ2aebfXz+J7gDS5N24okaqTdfdGGcgcjtmt34mazpnw7t7bxKmiWt1qXmLZrOECyKhUnG7GcYXGK8dX4seG00m80xPBFmlheSCW4t0chZGHQnFY4vOsDgavsa87S9G/wAkbYPI8fj6Xt8PC8dt0vzZ6HZ6Xqdnqfj3V7nwitrDcRtDHDHZm5u73J+8U+0hHXk5QeWfeqF54TsrjwX4T0DUNMsrd5rvzoY4fAklxbW+flCvC7TrbP8AMMyO+OD0HTkZvjLodxd6RdSeEIWudJQR2Mv2hwYVBBwMHkcDrmmw/GXSbZtWaHw5PE2qnddtHqU6ljknKkP+75J+5iuP/WbK/wDn5+Ev8ju/1Wzb/n1/5NH/ADPUVt/C0XxL8T+IX1VLW9sLNodRiudIt4VijCKC/wBqe3ErgBe0rJjjGAKr6dovgi68CwWkPi5JNH1S7M1rf2d5b2/mSBvuxNGqqeeOBmvNpvjTZTabp1iNN1iG309w8PkeILyN2wc4lZZQ0o9pCwpt78aLTUtWv9QutN1C5ku4vKMFxqUktvCcKA8UTkpG425DKByT6mj/AFmyv/n7+Ev8g/1Wzb/n1/5NH/M95Xw9pLeIdNkOrXUmo6ZbCJLX+0G+ZACN8sQPzE5+8w7Cnw+AfDrafqVrHaPJa6kQ10DeTSCUg5GCXO3k/wAOK+cG+JlotmqQW+o2+peYXk1pZbd7+ZP+eUkrwtuTHGCOg61Sk8aaI8yQjRrhdAD+c3h+OSCOzaYIUExKw+dvxjpKBwPl7Uf6zZX/AM/fwl/kH+q2bf8APr/yaP8AmfUbeA/Dkg0vzdDsLk6Xj7C1zbrK1sR0KMwJU+45q3b+GdItby9u4NKsYbu+z9qnjt0WS4z18xgMt+Oa+UV+J+qxiS6j1bWP7ZUhba8kul8uGLp5Zt0VIZB7uhb3qL/haXia1WODT/E2sWdpLta8aVo7q4ZwckwyTBhED/d2MPTFH+s2V/8AP38Jf5B/qtm3/Pr/AMmj/mfYUcMcMaxpGqRrwqqoAH0FPz27V8eL8b/iNDJuXxRDOsKhYI59JhAkx3nKkbmIxzGIh/s1Ov7Q/wAT4UY/bfDlzI3RZNLljWPnsRMS3HrjmmuJcrf/AC9/CX+RL4XzZf8ALr/yaP8AmfTegySt4o8Tq+jrYRrLBsvwpBvh5K5YnHOw/J3+7XQ18ueD/wBorxJp1xq1z4hht9Rlu5kaCCzd0gtkWNVIUOSQWILH3NdL/wANRP8A9AMf9/aHxLlaf8X8Jf5DXC+bNX9l/wCTR/zPfqK8B/4ahk/6AY/7+0f8NRP/ANAMf9/aX+s2V/8APz8Jf5D/ANVs2/59f+TR/wAz36ivAf8AhqJ/+gGP+/tH/DUT/wDQDH/f2j/WbK/+fn4S/wAg/wBVs2/59f8Ak0f8z36ivAf+Gon/AOgGP+/tH/DUT/8AQDH/AH9o/wBZsr/5+fhL/IP9Vs2/59f+TR/zPfqK8B/4aif/AKAY/wC/tH/DUT/9AMf9/aP9Zsr/AOfn4S/yD/VbNv8An1/5NH/M9+orwH/hqJ/+gGP+/tW9J/aTfVNUtLT+xQnnyrHu83pk4zTjxJlkmkqn4P8AyJlwvmsU5Olt/ej/AJnudFFFfTnyoUUUUAFFFFABRRRQAUUUUAfNmoTan4W+Mht/hgdeSbWtal/4STQdS0qZdKTMR8zUorh0Co29IjhHYSZPy55rzn4Z+D/EcfhDU7+TVNStfGi+FtUh13SE0DUYrq/vmhba01zLO8UrrKCY2iUZDYXCkAfbWT0zxRuPHPSgD421j4K3a+CLvRrHRNavI/Enwxml1e3uJrmX7Vq0ZhaHeXY7bjLOMZBIXGMLiqXinwn/AGtN4Xs41vNC8Bf8Ip5OkNdaBqt39i1PzW89vKhlikhuB8hRpARgHaRzn7VyaXceueaAPkLxh8MNa8QN8UL/AFM+Itb1jQ/CGk3Hh7UYxc23n6nHbXDPPDCjYMxkjiyo3Fd+3+I56zQbW3uPjjrd74z0nxBP4qN5Ynw1erbXhsYbY2seQGj/AHSKJvP85XxnIyCMV9IZPFLk9M8UAfJf7M/hPWbXxloeqa7qt5Z+LIob6PxFp8uhahFJfSux2tcXck7wOEYBozGo4OFwOKv/AB++Gfi/xp8SPH8+gXep2to3gazgaxgt1+z61tur1prEzMpKs8TFPkIYeap9K+pcnGM8UlAHxn4g8P634v8AiRqVzcXuo+EbWaHRpPBlxN4d1K6uNPtxBD5kUTxTJFC4lEqyLMmSpG7K8CLXIo9a+KPj+PTbPxJefEW0+INomh3sK3TWVrb7bMzjep8lIfL87zVbBbcODkV9pbjzz161naXoGnaHPqU1haR20upXRvbx0zmeYqql299qKPoooA8P+B9pNovxf8XWkVleazbXSTXcvie9tLu1uUk+0sBZz+b+7n2gny5IuAiYI5BP0BS5PrSUAFFFFABRRRQBkeLv+RV1f/r1k/8AQTXxAv3R9K+3/F3/ACKur/8AXrJ/6Ca+H1+6PpX5Txl/vFH0f5n67wT/ALvW/wAS/IdRSZozX56fpItFJmjNAC0UmaM0ALWt4TttOvPEmnQatL5GmyTBZ33bcL7nsM4BPYGsjNaGk6haWX2pbywW/jmi8sfvDG8RyDuU4PPGOQeCa1pNKacrWXfb52MaqcqclG9323+V+xp+MrN9Ku49OudHttMvYSztLaMxSeNsFCMk5AGeQec+1Y+l6Vea1eLa2NtLd3DAkRwqWbA6nFdh4f8AE76trkjTyWthZRaVJYRRzSKAqiJxGoZ+SSzZJHc9hXC8xtjIyp7HIrprqnzKpF3i2+y0Vv6vb5HLh3U5XSkrSSXd6u/n+F/mbfi7wjfeDtWls7yKQRh2WKd4yizAYyV/Ok0Hww2vWWo3C31vaixi8+RZt3+r3KC2QCP4hx1PaqGsarNreqXN/clfPuH3vsGBn2FdFoGpadpfgbWFuFS6ub27gia1E3lv5Kbn3A4PG/aD7elOCoVK8rK0NWrvydtvOwpyr08PG7vP3U7LzV9/K/8AwCPVYf8AhDbPUtIby7q41CO2mju0X5fs7L5nG4ZBOU4xxg1y1aOsa5c69rDX0wjSZiqpGoxHGqgBVAPRQABzWn8QJkuvECXCXFvcq9rbqXt5FZd6xIrj5enzA1NXlqKU4P3YuyXk7v8Ar1Lo81NxhNe9JXb80kv69Njm6KTNGa4juFopM0ZoAWikzRmgBaKTNGaAPqj9nvd/wq2HZ9/7TcY+u6uR+J0mvS/Azw6/ihVTxCxiN8qgACXB3Yxx+Vdb+z2Gb4WxBThjcXAB991cj8TtM1fQ/gX4dsPEF8NR1m38qO7u9+7zZADlsnrmv2Gp/wAk4v8AAj8Vp/8AJT/9xH+p4PRTd6/3h+dG9f7w/Ovx4/ah1FN3r/eH50b1/vD86AHUU3ev94fnRvX+8PzoAdRTd6/3h+dG5f7w/OgDvNEs7JPByanZWFnq1xZvI2q21znzliOAjLzwnPLLznr2ripreaHa0sLxLINyblIBHtnrW2/jMR290lnp1np891arZzTQl+YwFBwpYhS20ZPXr0yau+Lr63Oi2NnBrkWrBZTPMx8wyNKyAM2WUAKAoUAcnr9PTq+zqU/dfwr73t1s9ld7637nlUva0qnvRfvP1st+l1u7LbS3Yi0P4e6rr3h++1S3tpGjhCGFV24my5Vup4xiuYC/vArEJzgsegqxbatNaWN7ZxyKILzYJgQCTsbcuD25qC38uS4iV5VjRnAZ25CjPJNck3SlGCpqztrd7u/9f1q+ymqsZTdRpq+llsrL9f66LsdQ+HK2cN8V1aKeS3so78QrEys8TbepP3T82QD1x2yKxPEGpT+KNYur+K2cRYVVjjUkRRqoVQcew6/Wtvxx40hvNV1i30qO3jsrny4Dcxly00MeNi/N0HAJAA5A7VB4DvrfT/Pu5NbisJoXDW9tN5hjeQqR5rBFOQoJ47k+ma76kaMqvsKTtG+r6aXtu+33/iedSlXjR+sVleVtFbXVK+y7/d+BydFIzKGb51bn7w7+9JvX+8PzryD2h1FN3r/eH50b1/vD86AHUU3ev94fnRvX+8PzoAdRTd6/3h+dG9f7w/OgCSL/AFifUV9ea5D4guPh3oyeGZFi1TzdMZmYqB9nE8JuR8wxzCJR688c18hROvmJyOo719d+IND1DxD8OdFtNM1IaTcrNpdwbhnKZjjuIZJI8j++iMmO+/Ffo3Bv8Wv6L9T8z43/AIVD1l+SOd/aY/5EWz/6/wBP/QHr5lr6Z/aYIHgSzzx/p6f+gPXzJvX+8PzryOKv+Rk/RHscI/8AIrX+JjqKbvX+8Pzo3r/eH518gfaDqKbvX+8Pzo3r/eH50AOopu9f7w/Ojev94fnQA6u6axtLbwXZ6pp1hZ6lbi3aHU2kyZ4LliwVuvCD5MEcHBz1rhFkVWByp56ZrpZvGaTG6itdPsdKjv5Yzd+TvZCqsGChWJAXPOB1xXbhpwhzOb3Wn9bb6O/Rs4cVCpPkUFs9e1vPrs21bqkc1n3zXVaD8O9V8QaDeanb28jRxKDCF24l5w3U8Yqz421rR9W09jp5tIpF1GcrHDD5bGEqoRugGCQx68ZxgVy9rrE1nY3dpFIohugolBAJODkc9qfJRo1XGo+eNns+ttO/X+uguevXpKVNckrrdX0vr26f11K2395sY7ecEntXZXHw5EMMrR6tDPKunJqccQiYF42xwc/dPPGeo9K46DypZ40klEUbMFZ/7oJ5P4V2PjTxlBNqmrW+lR2yWtwkdobuEuWlt4woVQGPyg7VJAHanh1R9nOVXytvfZ/8Df8A4DWIdf2kIUdN77W3X/B2/wCCsDxPrn/CQazNdiPyIdqxQxf3IkUKg+uBWXXWeCda0rTbaVNQ+yl5L22CtNB5hjj3EySA4PQDGP8Aa6Gud1eWCTVr1oGjMLTOU8rIXaWOMZwcYrKrHmiqzldy3XY1oy5ZOgoNKNrPuVaKbvX+8Pzo3r/eH51ynWOopu9f7w/Ojev94fnQA6im71/vD86N6/3h+dADq1fCf/I0aT/19R/+hCsjev8AeH51reE2H/CUaTyP+PqPv/tCtaP8SPqjGt/Dl6M+4aKKK/pM/l8KKKKACiiigAooooAKKKKACivP/Gfxq0XwV4oOgTabrmq6kliNSmj0fTZLvyLcuUDvs5GWVuACeK6rw94s0fxZ4c0/X9J1GC+0fUI1mtryNsJIp6Yz34IweQQQeRQBrUUySeOH78ip0HzMB16UNNGkixs6rI33VJ5P0FAD6KYk0cjuiurOn3lUglfrWPbeM9Ku/GV94WilkOs2VnDfzRGIhBDK7ohD9CSY347Y96ANuio/tEW5181NyfeG4ZX6+lOaRVzlgMDccnsO9ADqKj+0ReWJPNTyz0bcMfnQtxEz7FkRnxu2hhnHr9KAJKKKKACiiigAooooAjuI45oZEmVWiZSHV+hHfNcx/wAIz4L/AOgfo3/fEdavi4keF9WI4P2WT/0E18RrdTbR++k6f3jXxmfZtDLqkISoqd116fgz7fh/J55nSqTjXdPlaWnX8UfZH/CM+C/+gfo3/fEdH/CM+C/+gfo3/fEdfHH2mb/ntJ/30aPtM3/PaT/vo18x/rRR/wCgSP4f/In1f+qlb/oMl9z/APkj7H/4RnwX/wBA/Rv++I6P+EZ8F/8AQP0b/viOvjj7TN/z2k/76NH2mb/ntJ/30aP9aKP/AECR/D/5EP8AVSt/0GS+5/8AyR9j/wDCM+C/+gfo3/fEdH/CM+C/+gfo3/fEdfLVj4J8Q6lY211bIJhdIZIIVuk86VQSCVjLbm5B6DtXPNNcKWBklBU4ILHj61pLiONNJzwUUnt/XKZw4ZlUbUMdJtb26f8Akx9jf8Iz4L/6B+jf98R0f8Iz4L/6B+jf98R18cfaZh/y1k/76NH2qb/ntJ/32az/ANaKP/QJH8P/AJE0/wBU63/QZL7n/wDJH2P/AMIz4L/6B+jf98R0f8Iz4L/6B+jf98R18cfapv8AntJ/30aX7RPtz5kmOmdxxR/rRR/6BI/h/wDIh/qpW/6DJfc//kj7G/4RnwX/ANA/Rv8AviOj/hGfBf8A0D9G/wC+I6+RILPULnTbm/jMjWtuypI+88Fs4H6GtCz8K63qGkvqNviWBI2lMa3KmXYDguI87sA55x2rWPEUZ/Dgk9L/AC7/AAmUuGZQ+LHSWtvn2+I+q/8AhGfBf/QP0b/viOj/AIRnwX/0D9G/74jr44+1SgZ86TH+8a3brwj4gsdStLCeCWO5u4BcQqZOHjIzkHPoKmPEkJ6xwUX/AMHb7PUcuGJ09J46S/4G/wBrofVX/CM+C/8AoH6N/wB8R0f8Iz4L/wCgfo3/AHxHXxyZ51yDJJwcH5jxR9onHJlkx/vGo/1oo/8AQJH8P/kTT/VOt/0GS+5//JH2N/wjPgv/AKB+jf8AfEdH/CM+C/8AoH6N/wB8R18cfaJv+esnTP3jR9pm/wCe0n/fRo/1oo/9Akfw/wDkQ/1Trf8AQZL7n/8AJH2P/wAIz4L/AOgfo3/fEdH/AAjPgv8A6B+jf98R18cfaZv+e0n/AH0aPtM3/PaT/vo0f60Uf+gSP4f/ACIf6qVv+gyX3P8A+SPsf/hGfBf/AED9G/74jo/4RnwX/wBA/Rv++I6+OPtM3/PaT/vo0faZv+e0n/fRo/1oo/8AQJH8P/kQ/wBVK3/QZL7n/wDJH3Dp1jp9npbQaYlvb2fzYFsAEBPU8cVzPgXQ9L8L/DPw/pN/qtnrNpaWscK6hcMpjuCB98FiQc/U1j/s/t5vwti812I+0XALE5IG6uJ8dWOjaT+z94WtPDd8+o6HCsKWd43WWIA4Y8Dr9K+6lj1HKvrqpq3Kny9PT+kfARy9yzf6i6jvzNc3X13/AFPXs+D/AO9on5w0Z8H/AN7RPzhr4y81/wC+350ea/8Afb86+F/1rX/QLH7/APgH3/8Aqg/+gqX3f8E+zc+D/wC9on5w0Z8H/wB7RPzhr4y81/77fnR5r/32/Oj/AFrX/QLH7/8AgB/qg/8AoKl93/BPs3Pg/wDvaJ+cNGfB/wDe0T84a+NI2llkRFZizMFHPcnFdHrHgPWdEhvZJJbW6+xNtuo7O6WV4OcZdRyBnjPStocTTqRcoYSLS3/qxjPhaFOSjPGSTe39XPqjPg/+9on5w0Z8H/3tE/OGvjRjMqqTvAboTnmhjMgy3mKM45yKy/1q/wCoWP3/APANv9Uf+oqX3f8ABPsvPg/+9on5w0Z8H/3tE/OGvjT99vCfvN56LzmkaSRSQWYH0JNH+tX/AFCx+/8A4Av9Uf8AqLl93/BPszPg/wDvaJ+cNGfB/wDe0T84a+NZBPDt8wSJuUOu7Iyp6Ee1WrzS72ws9OuZjiK/jaWAh8kqrlDn05BqlxS3e2Fjp/XYl8JpWTxctf67n2Bnwf8A3tE/OGjPg/8AvaJ+cNfKGteENS0PTY7957e6tGl8hpbO5WUJJjO04Pp36Gs/Q9LvPEOrW2nWbA3Nw4RPMfauT6nsKuXEs4zVN4SN309fkRHhenKDqLGS5V19PmfX+fB/97RPzhoz4P8A72ifnDXyPdeHdUsV1VrhDEdLmWC6Vn5VmYqMeoyDyKzN0o253jd068/SolxRKGksJFf1bt3KjwpGavHGSf8AV+/Zn2Xnwf8A3tE/OGjPg/8AvaJ+cNfGn77IH7zJ6Dmk3ShckuBnGean/Wr/AKhY/f8A8Av/AFR/6i5fd/wT7Mz4P/vaJ+cNGfB/97RPzhr4y81/77fnR5r/AN9vzpf61r/oFj9//AH/AKoP/oKl93/BPs3Pg/8AvaJ+cNGfB/8Ae0T84a+MvNf++350ea/99vzo/wBa1/0Cx+//AIAf6oP/AKCpfd/wT7ODeD8jDaLn6w1U+JOh6b4h8I21nd6mmkWS6jp1xHcrjaWiu4ZI4x2+dkVP+B18fRSv5ifO3Ud6+sfFltoN18MtEj8RzyW2m/aNJZXhzn7QtzAbdeAeDMIwfYmvqshzf+051I+yUOVLbre/kj5LiDJv7KhTl7Zz5m9+lrebOy1f+zfsy/2obUW+7j7WV27sH+9xnrWPnwf/AHtE/OGuL/aWYr4Fs8Ej/T06f7j18zea/wDfb864c5z5Zfi3Q9gpaLV/8Md2ScP/ANo4NV/byhq1ZeXzPs3Pg/8AvaJ+cNGfB/8Ae0T84a+MvNf++350ea/99vzrw/8AWtf9Asfv/wCAe/8A6oP/AKCpfd/wT7Nz4P8A72ifnDRnwf8A3tE/OGvjLzX/AL7fnTo2kkkVFZizHA57mn/rWv8AoFj9/wDwA/1Rf/QVL7v+CfZefB/97RPzhoz4P/vaJ+cNfK+s+A9Z0WG9kkltbsWLbbpbO6WV4MnGXXqBnAz71ze6UKGJcKejc4Na1OJp0Xy1MJFP+vIxp8LQrLmp4yTX9eZ9mZ8H/wB7RPzhoz4P/vaJ+cNfGjNKq7iXA6ZOcUfvtwX94GPRecmsv9av+oWP3/8AANf9Uf8AqLl93/BPsvPg/wDvaJ+cNGfB/wDe0T84a+MjJIpILMCOoJNPkE8O3zBIm5Qy7sjKnoR7Uf61f9Qsfv8A+AH+qP8A1Fy+7/gn2Vnwf/e0T84aM+D/AO9on5w18f3mm3ljZafdSnEN8jPDh+SFcoc+nIrR1fwjqOj6SmpPcW1zaGUQO9pcrL5chBYK2D6A89OK1/1lm039Ujpr8n8jL/Vemmk8ZLXReq07n1fnwf8A3tE/OGjPg/8AvaJ+cNfH2j6dd69qtpp1qwNzdSLFH5j7V3E4GT2FW7zwzqtg2rrcR+U2lOqXSmT7pZtq7f7wJ7jtzSjxNOUedYRW/wAlft21HLhWEZcjxkr9vV2799D62z4P/vaJ+cNGfB/97RPzhr40JmVQx8wBuh55o/fcf6z9az/1q/6hY/f/AMA0/wBUf+ouX3f8E+y8+D/72ifnDRnwf/e0T84a+NGaVeSXAzjnPX0pvmv/AH2/Oj/Wtf8AQLH7/wDgD/1Rf/QVL7v+CfZufB/97RPzhoz4P/vaJ+cNfGXmv/fb86PNf++350v9a1/0Cx+//gB/qg/+gqX3f8E+zc+D/wC9on5w1JAfCfnJ5LaP5ufl2GLdntjHevi7zX/vt+davhORz4m0oFmI+1R9/wDaFaQ4qUpKP1aOvn/wDOpwk4wcvrUtPL/gn29RRRX6sfkIUUUUAFFFFABRRRQAUUUUAeG+LNc1DwD+0Nf+IG8KeI9f06/8LW9jbyaHp5uQZ0upXMbtkKh2upBYgc9a8d174O+K9Ds/BcniLSZZtDmTWrq80mx0Q6/Fpl7eXYnjUwRupIWJnjEqhgjBugbdX2pRQB8pv8A117Uzba9o+oeJ7Cy+Gy6fY3usQMshvRLOyAqGIWcApjksvGDmpdD0HxBa/Ej4farJ4e1HWPEVzpWk2etNrmjM8NgsduTJdW19kCGRWJEkJyZCegxmvqeigD5H/Zf+GuteH/F2gT+I49YsfFWmWl5FrMzeHWt4b+aQglptQ8xluwW+dCBkeidK9F1bWr3wP+0tq+q3HhnxFqelat4f0+xgvtJ0yS6hSVLm4LrIy/cwJEJz2Ne50UAfH2m/D/WPiB8ZrQat4Ll8OWV8df03XnstEkt08ieORIXkv2lb7WZMJIpVAqMQPlIAPM2fhv4g/FP4Za9r11bz3GoaLe6d4RuLa3j+1PqWn6dc51CVI/MUTedKc7NylxAUPXFfc/TkVS0fRdP8P2K2Wl2Vvp9mru629tGI0DOxZjgcZLMSfUk0AfK+mfBePxDofhW0fS9T1Pw7c+O49UvdJu9CfR7W2hXTrqN9toWLLC0hj3BsKzMeOa6/wL4Wfwt+0RqK6L4YuH0W7Mz3d/qeim3bS9kMccMdpe52z27hQBCATHgnI6V9DUUAFFFFABRRRQAUUUUAZHi7/kVdX/69ZP8A0E18QL90fSvunWrBtU0e9s0YI1xC0QZhwCQRmvn4fsv6wAB/bNj/AN8PX53xRluLx1alLD0+ZJO+3c/SuFMzweAo1Y4moottW37HjFFe0f8ADL+sf9Bmx/74ej/hl/WP+gzY/wDfD18X/YGZ/wDPl/h/mfc/6xZV/wA/1+P+R4vRXtH/AAy/rH/QZsf++Ho/4Zf1j/oM2P8A3w9H9gZn/wA+X+H+Yf6xZV/z/X4/5GBbad/aFn4Gvk1KysrXT7fFzcS3catARcO/3M7ycEEADqRXQWviDTLrS/t+mWcU4ku7qXULZ7u3twylz5e8SDcVKY+6eDnvTf8Ahl/WOv8AbNj/AN+3o/4Zf1j/AKDNj/37evYp4HNKfw4Z7LquiS07bdnuzxamYZTV+LErd20fVt2dtXvpqrWXzy9L161XS9H03zLNLK40m9NzCUQ5k3SGMMSM5HG3n0p0EmnTaf4Zm1aW3srK3ubWNrFZoZYLiPndNhcuhHG8NnOfwrS/4Zf1j/oM2P8A37elH7L2sZ41ixz/ANc3/wAKmOBzVJJ4du3mulvw0vbTcqWYZQ23HEpX12d9W/x1tez20OX+J1+J7W1hltU81biVo7o3lvO7RnGFAiAwg7Z9eKop4g0Ffh+2nnS2N/8Aaw+PtjZLeSV87G3GM/w1B4w8M+Dvh7FI/iP4qeEdH8skOk94PMUj1QEsPyrz2bxnousBo/BMPiT4iXJyIv8AhHPDly8Eh7ETzCOIj6PWEsszaVSVRUPiVteVm8M1yeNKNN4he676cyPS/CNm2reDde0+CW3F5JPDIsc9xHDuUBgSC7Adx3rQ8P6BdeHPDV9qdvLZXGrXUctskYvoB9kjBIkcgvlmYAhQMjBJ5yK89/Zp8FfEf44eGbrV/E3g8eAIYpGhga/lYvdMrFXKxFdyKCCNzHk9M9a9l/4Ze1j/AKDNj/37erjlGY0+VSw7bimk1Jd279ddX/wGTLOstq8zjiUoyabTjLokrPbTRf8ABR4qzL5ZAI6V7jZ+JdM1TxJNY3t7An2G2jutPumcbc/ZVWWDPv1A/vKfWtj/AIUx4w+z+T/b+k+Xt2Y/s9M4xjrszWB/wy/rH/QZsf8Avh6eHyvMsI/3dFyu03ey2v8A3n3v5NIWIzbK8YrVa6jZNK13vb+6u1vNNlfQLy1jsdDkS409fDS2839rQyPF5rSEtwVPzlj8u0joO9VtK8Q20Ou+D7MzWa6Ytr5twpVNpkCyYLkjr93rWj/wy/rHX+2bH/v29H/DL+sf9Bmx/wC/b1pHA5rFRSw70t1XS2nktNvNmUsflEnJyxK1v0fW+u2r97fyRR0Hxkb2Pwqt9cWObyeWHUHaGJWaH+FXOOFGePSvJ5MeY2AAMnAHTrXs3/DL+sf9Bmx/79vS/wDDL+sf9Bmx/wC+Hrkr5Tm2IjFTovTzXZLv5X9Wzsw+cZPh5ScK618n3b7edvRI8Xor2j/hl/WP+gzY/wDfD0f8Mv6x/wBBmx/74euP+wMz/wCfL/D/ADO3/WLKv+f6/H/I8Xor2j/hl/WP+gzY/wDfD0f8Mv6x/wBBmx/74ej+wMz/AOfL/D/MP9Ysq/5/r8f8jvv2fdv/AAqyLeMp9ouM/TdXFePJtCuf2ffC0vhiCa28PssJsYrjO9YsHaGySc/U16t8N/B83gHwYulXU8d5JHJLKzRAhSGOcc1ydv4fsvjN8GPDT6Jbw+FtPuIIrq2svLDpAmOIwF2jj2FfpssHXlkawqj7/IlbzPyuGNw8c++tuX7vnbv5fmfMlFe4/wDDLd7/ANDFb/8AgK3/AMVR/wAMt3v/AEMVv/4Ct/8AFV+af6vZp/z5f3x/zP1H/WTKf+f6+6X+R4dRXuP/AAy3e/8AQxW//gK3/wAVR/wy3e/9DFb/APgK3/xVH+r2af8APl/fH/MP9ZMp/wCf6+6X+R4nZsI7y3djhVlUk+gDCvS9Zu9O0XxD4x1k6rY30eppPDaWtnP5ryeY4O58DCqAM4JznFdD/wAMt3v/AEMVv/4Ct/8AFUf8Mt3v/QxW/wD4Ct/8VXZRybNaMXFYe/XdaaNd/M46+d5RXkpPEWW2z11T7eRmeLvFVncWbx2ctlPpEz2xt0bUNz24XH3bfaDGRyDzj61X1bxqNUvNWL6hZ3b2+u282nJeMPJWMb95GOiEhdxHsa2/+GW73/oYrf8A8BW/+Ko/4Zbvf+hit/8AwFb/AOKrtngc5nJv2G/nHz8+l7o4YY/JIRUfb7eUvLy62s7WKEOuaZD4gv5xqgfVLvTMIZdUBS2k8zLRJdbSOV5B7ZIzXBeMtYXUPFn2yW2tJQiRLJHDcGaOYqoBLSDG5m7kd67/AFj9neLw7ZG81Xxlpml2anBuL1PJjH1ZnAFeTeIvEXwo8N37ae3xb0nVtTBx/Z+hWM+pXJ+kcG8n8Kxr5Zm9eHI6Fle+8f8APz9PI2w+a5NQn7RYi7tbaXltp5evmdB428S6brlvpUdlp1vA8FlDE8sbSbkKg5jAZsEDPXBPvVnVbKHWvB/hp4NT06N7G1mint5rlUlDGdmGEPJ4INeNfEDxB42h8K3Gq/D74Y+NPEawvGVutU0JrG2lUuqkKrS+cWw3/PMfzr374c/s6+L/ABF4N03UvFX2PwrrlxH5k+kRsbr7PnorONo3eoGcdMms3k2ay5pzoX5laycV1Tvv5GizvKI8kKeItyu92pPdNW1XmZ/jKzt9E8NWmkaVqWnX9kkomuJba6WSa4mYY+4OQigYHuSe9YngO4j0zxZp1xeMLaBZPmkl+VRwepNerWP7NGqabdR3Nt4nhhnjOVkS2YEcY/vVe1L4C+I9Xtvs954wW4hyG2PbsRkf8CqnkuYyqKsqDTjayvFrTbXmX5PvuSs8y2NJ0HXTUr3dpJ676crX4rtscVJ4q0XWPBtzd386nVmubO3u7c/fuoopCRKPU7DtP+6K09R8SW63F0dS16y1S0n1KCXTo4Zg/wBnQNnfj/lmAvy4OPpxV3/hlu9/6GK3/wDAVv8A4qj/AIZbvf8AoYrf/wABW/8Aiq3WAziyvh9bW3Wu+r113+/UweYZLd2xGl77PTbRaabfdocxcfEG7aPxfcrrG28knt0snRgGEQlcsIsdAAR07GrHjDxhBrlv4otZdRiuLYiCW0iXG0ycbmQAdeWzj8a3/wDhlu9/6GK3/wDAVv8A4qj/AIZbvf8AoYrf/wABW/8Aiqh5fnUoODouzv8AaXXm8/734IuOZZHGamqyurfZfTl/u/3fxZ4dRXuP/DLd7/0MVv8A+Arf/FUf8Mt3v/QxW/8A4Ct/8VXlf6vZp/z5f3x/zPW/1kyn/n+vul/keHUV7j/wy3e/9DFb/wDgK3/xVH/DLd7/ANDFb/8AgK3/AMVR/q9mn/Pl/fH/ADD/AFkyn/n+vul/keIRf6xPqK+s/Ft/omm/DLRZvEFk1/p5uNJjWFOona5gWB+o+7KY2/4DXnqfsuXqupPiK3wDn/j1b/4qvTPHepQ+CvAunNdabHraQ3umWXkOvG57qGFZcEHlCwkH+5+NfbcMZbi8BUqvEw5bpW1Xn2Z8JxXmmDzCnRjhanM03fR+XdI5r9pj/kRbP/r/AE/9AevmWvsT4peApfiJ4fh06K9SxaO4WfzJIy4OFYYwCP736V5Z/wAMt3v/AEMVv/4Ct/8AFV53EGUY7GY51aFPmjZa3X6s9PhvOcBgsAqOIq8srvSz/RHh1Fe4/wDDLd7/ANDFb/8AgK3/AMVR/wAMt3v/AEMVv/4Ct/8AFV81/q9mn/Pl/fH/ADPqP9ZMp/5/r7pf5Hh1S2rCO6hZjhVdST+Ne2f8Mt3v/QxW/wD4Ct/8VR/wy3e/9DFb/wDgK3/xVNcPZonf2L++P+YPiTKWre3X3S/yOf1S607Q/EHi3WX1axvo9Sgnt7azs5vNeTzSBubAwm0ZPJ61c8WeKLKbS2hs5LKfSZhaLGjX4LQbGQkpbbQUIwwJ7gk5Oa1P+GW73/oYrf8A8BW/+Ko/4Zbvf+hit/8AwFb/AOKr1nl+b2nGOHspX6x63vu/P8jxlmOTXhKWJu426S6WtsvLz3fywtY8anVrvxCs2pWt35OtWs+mLdMPKCrJJuIx/ARt3Edua0F13TE1y+uH1NX1a703EXmaoGjtZfO3NHHdbSFDJnHpnbnmrv8Awy3e/wDQxW//AICt/wDFVS1f9nWPw/ZNeap4x0zTLNThri8TyYx9WZwBVLA5xfmdC79V3fnvrZfkS8fkluWOIsvR9ku2ztd9d9dzgPGesrqXiw3k9vazlUiWVYrkzpMVQAlpFxuY45I71Z8b+JtM1y302Oy0+CB4rdFeVGkyhGcxjcxGP85rnfEniD4UeGb57CT4u6Pqmpqcf2dodlNqNy3+7HBvLfhXBfEDxJ4wg8L3Wp/D/wCG/jLxH5LIy3eqaC1jayqXCkKry+cWO4ceWP51x/2Nm83NOj8b1vy/mdyzvJqag1X+BaW5vyseyalYxax4L8PPDqenRyWME6zW89yqSgmZmGEPJyDVnxZYwaL4VtdI0vUtOv7USrc3UtvdK8s85XA2xjkIgJHqcknti98Nf2ePGXibwZp2peLUs/COuXCb5tIRzdmDPQM4wN3qozj1NddZfs0app10lxbeJ4YZkOVdbZgR/wCPVo8nzJ3Tw+rSje62Stpr1t/wbNmSzrK9GsTom5WcXu3fXTpd2++10jybwPKmneL9IuLtvs9vHcKXkl+VVHqSa7JfFWj6t4Pv7jULhTqwntbWeA/eu7eObcrj1ITKn6Cu21H4C+I9Wtjb3njFbiHO7Y9uxGf++qyf+GW73/oYrf8A8BW/+Kp08pzTDxdOnRunffl6q38z2/ViqZxlOIkqlSvaSttzdHf+Vb9fRMz9S8RW63V62o67ZanYz6rbTaZDDKH+zwrLkttx+5CphSpxnpjisif4gXbTeM7xNYIvGbyrCRWG4RiclRF6cZPHqT3rp/8Ahlu9/wChit//AAFb/wCKo/4Zbvf+hit//AVv/iq1ngM5k7qi1v8AaXW/n0vp20MqeYZJFWddPb7L6Nf3evKr99TnvFnjKPWo/FVo+oxTWT2tpJawqRsMw8syFAP4txck9eua8vr3H/hlu9/6GK3/APAVv/iqP+GW73/oYrf/AMBW/wDiq48Tk+b4qfPOjrr1XVt9/M7MLnWTYSHJCuradH0SXbyueHUV7j/wy3e/9DFb/wDgK3/xVH/DLd7/ANDFb/8AgK3/AMVXJ/q9mn/Pl/fH/M7P9ZMp/wCf6+6X+R4dWr4T/wCRo0n/AK+o/wD0IV65/wAMt3v/AEMVv/4Ct/8AFVc0f9mm70vVrO8bX7eRYJVkKC2YE4OcferSnw/mcZxbovfuv8zOrxHlUqckqy27S/yPeKKKK/cj8DCiiigAooooAKKKKACiijpyaACismHxdoVzcpbw61p8tw7bFiS6jLlvQAHOfarupalaaPYy3l9cxWdpFt3zzuERcsFGSeBkkD6kUAWaKKKACio7m6hs7d57iVIIYxueSRgqqPUk9KjsdQtdUtluLO5hu7diQJoJA6EjryOKALFFFFABRRRQAUUUUAFFFFABRRRQAUVk+LtWl0Hwvq2pQKjzWlrJOiyA7SyqSAcduK+OF/be8bFQf7J0P/vzN/8AHK9fBZXicwjKVBKy7uxw4jGUsM0qnU+3aK+Iv+G3vG3/AECtD/78zf8AxyuM+Jf7UnxP8eWNpaaT4jj8ExRs5uZNFtFaa4BA2jfKXMe3B5Xru56CvRfDeYW+Ffejl/tXDd39x+h7sI4zI52oOrNwB+NeeeM/2ivhf8PZpYPEHj7w/p93Fy9kb+OS5H/bFCXP4LX51LdJqzGTxjJqnxEnY5dvE2t3skT9eGhhljiYc90NeieEfjVp/gCNE8N/C/wFoojO5GtdJIdT6hi5YfnT/wBW8w7L7w/tXDd39x9K/wDDZ3hfXvl8EeEvG/xCLHEU2heH5haufT7RMI41/wCBEU7/AIWZ8fPFnGgfCHR/Cdu7YS88YeIFkkT/AH7a2Un8pDXq/g7xRdeIvh3p2v3EcSXdzYC6dIwdgbaTgZOcfjXyV/w2942/6BOh/wDfmb/45Xn4XKcTjJTjSSvB2ev9djprY2jQUXP7Wx69/wAKv+PPizJ8QfGHS/CsDNlrPwd4fVnT/cublmb84zSL+xj4T1plk8a+J/GnxDYndJD4g1+Y2sh/694jHGPwUV5D/wANveNv+gVof/fmb/45R/w2942/6BWh/wDfmX/45Xof6t5h2X3nN/a2G7v7j6c8G/s9/DL4fNFJ4d8BeH9LuIjlLqPT42uF/wC2zAyfm1egKoRQqjao6KOgr4k/4be8bf8AQJ0P/vzN/wDHKP8Aht7xt/0CdD/78zf/AByj/VvMOy+8P7Ww3d/cfblFcd8IfGN54/8Ah1ouv38UMN3exF5I7cEICGI4BJPb1r5X8TftfeO9J8RalZQLpfk29w8SbrYk4BIGfmrz8LlOJxdWpRp2vDe7+R01sbSowjOV7S2PtmivhM/tnfEAckaUB/16n/4qkH7aHj5uB/ZJP/Xqf/iq9P8A1Zx/937/APgHJ/a+G8/uPu2ivhT/AIbO+IH93Sv/AAFP/wAVR/w2d8QP7ulf+Ap/+Ko/1Zx3937/APgB/a2G8/uPuuivMv2dviLqvxQ+HI1vWRAL37bNb/6OhRdqhSOMnn5jXzx8Sv2ovHvhn4g+ItJsb61jsrK+lghVrRGIVWIGSRzXn0MnxGIxFTDQa5ob66fkdVTHUqVKNV3tI+1KK+B1/a8+JLMANQtCT0Aso/8ACnt+1v8AExV3G8twvXJsEx/KvS/1Yx3eP3v/ACOT+18P2f3f8E+9aK+Bv+GvviR/0EbP/wAAo/8ACj/hr74kf9BGz/8AAKP/AAo/1Xx3eP3v/IP7Xw/Z/d/wT72mYrE7KNzBSQPWue+G+uan4m8CaHqus2H9lard2qS3Nl5bR+TIRyu1vmGPQ8151+zF8UPEHxS8H65f65NFPd2t75ELRRLGAvlK2MDryaofEX4p+Nvhf8EPDesajDanxZN5UOoLdRhlWQglsCNgueO3FeG8vrLF/UtOe9vLuegsTB0PrH2T3iivhn/htTx9/wA+2jf+Az//ABdNP7a3jxeDBooP/Xs//wAcr2f9Wcf/AHfv/wCAcH9rYbz+4+6Kz9c8RaT4Xs5brWdUstItYhl5r+4SBF+rOQBX5qeP/i/8RfiP4gnvrzx7rWlaVIqoNE0Kb7FbbQoBBZP3jZIJ+8Dk8VlaBdeHNDvI76bwJ4e1/UUOVv8AxELrVLgH/fuJ3P4dKS4ax/ZfeP8AtbDef3H3Lrn7Zvwe0e7Nlb+MrbxDqJGY7Pw7DLqUk3shgVlY8jvWe37SnizxHuXwX8DvG2qqcBLvxCkWh2+f9rz2Mo/CM1498LP2mPEEfijRNBsdC8OaRpl5exQSQ6bp/wBnUKzAEgKwAOD6V9LfH34gan8M/h1ca5pKW73kc8UQFyhZMMcHgEV59fKMTh61PDztzT21OqnjqVWnKpG9o7nE+Z+0p4u6Q+Afh3aucMGkuNZvIvcECOJx9QO1L/wzj418Tc+NPjp4v1FHbMtn4aig0O2b6eUGlX8Ja8U/4bU8ff8APto3/gM//wAXTW/bW8eL1g0UfW2f/wCOV6P+rOP/ALv3/wDAOT+1sN5/ce86R+xb8INPvBe3/hX/AISjUs5a/wDE15PqU0n++ZnZW/EV6z4d8I6F4Psks9B0XTtEtEOVt9NtI7eNfoqAAV8XD9tTx63It9GI/wCvZ/8A4ul/4bU8ff8APto3/gM//wAXR/qzj/7v3/8AAD+1sN5/cfc+47s5OfWkr4k0f9srx1faxYW0tto/lTXEcT7bZwdrOAf4/Q19WfFjxJfeEvhvrus6c6x31pb+ZEzqGAO4DoevWvOxWU4jB1KdKra83Za+n+Z10cbSrxlOF7R3Ovor4G/4a++JH/QRs/8AwCj/AMKcn7XXxLk+5e2r/wC7Yof6V6n+q+O7x+9/5HH/AGvh+z+7/gn3vRXwQ37XXxKjxvvrVM9N1jGP6U3/AIa++JH/AEEbP/wCj/wo/wBWMd3j97/yD+18P2f3f8E++aK+B1/a++I5YD+0LPr/AM+Uf+FfYupeJb+H4OXPiCOVU1RdCa+WTYCBN9n3529Mbu1ebjMnxGBcFVa952Vn/wAA6qGOpYjm5E9Ds6K/P7/hrb4nf9Bu3/8AACH/AOJp8P7V3xTuGIi1aKUgZITTomx+S16n+q+M/mj97/yOP+2KHZ/h/mff1FfAc37VnxUt8edqscWenmabEufzWov+Gtvid/0G7f8A8AIf/iaP9V8Z/PH73/kH9sUOz/D/ADP0BrmfiJrGr6H4diutDsP7Svm1CxgMHltJiGS6ijmfA5+SNnfPbbk9K+JP+Gtvid/0G7f/AMAIf/ia+tLLXPFvij4OeG9V0iRZfEV5Jp01xIFjQGE3MRujg4UfufN4HPpzivLzDJ6+WwjUqtNN20v/AJI7MNjqeKk4wT07nptFeV/tG/E7V/hT4HtdX0ZLaS6lvktmF0hddpRyeARzlRXzb/w2p4+/59tG/wDAZ/8A4uqweS4rHUvbUrW82FfH0cPP2c73Puaivhc/trePF4MGij/t2f8A+OV5d8QPjF8RviPrs15dePta0jSpFVP7F0GYWdsQBzuZf3hyefvA12PhrHrovvOf+1sN5/cfpVrWv6X4atJbrV9Ss9KtohukmvrhIUQepZiAK8k179sv4O6Lc/ZIfGtnr9+3+qtPD0cmpPMfRDArKT7Zr4X0Obw3o94l7c+BdA8R6ihyt94kN1qk4Ps9xO+PoOK9x+G37TniG08RaTo2n6F4b0iwvbyGCWLTdO+zjazhSQFYDPPpRLhvHRTk7aef/AGs1w7dlf7j2U/tNeJ/EikeCvgh441hWOI7vXootDt/+Bee3mAe4jNK0v7SfizeFtfAHw8tmwCJJ7jWbuP/AGlZRHE30IFdz8dvHuo/DX4d3euaUlvJeRSoircoWTDHB4BH86+W/wDhtTx9/wA+2jf+Az//ABdcOCyfFY+l7Wja17as3xGOo4afJO9z2o/s4+N/E3PjP46+LtQRj+8tPDMEGh27D/tmHlX8JBV3R/2LfhBpt4l9f+F28U6kpyb7xPez6nM/s/nOyt+IrwZv21vHi9YNFH1tn/8AjlKP21PHrci30Yj/AK9n/wDi69D/AFZx/wDd+/8A4Bzf2thvP7j7Q8N+D9A8HWaWmgaHpuh2icrb6baR28a/RUAArXr4Z/4bU8ff8+2jf+Az/wDxdT2P7Z3jy4vraJ7bR9kkqI2LZ+hYA/x0v9Wcf/d+/wD4A/7Ww3n9x9v0Vy/xX1+88J/DvxLq+nMsd7Y2ck0LOoYBlHGQetfF3/DX3xI/6CNn/wCAUf8AhXn4DKMRmMHUotWTtq/+AdOJx1LCyUZp6n3zRXwQn7XXxKkOEvrVz6LYxn+lDftdfEqPG6+tVzyN1jGP6V6f+rGO/mj97/yOT+18P2f3f8E+96K+Bv8Ahr74kf8AQRs//AKP/Ckb9r/4kBSf7Rs+n/PlH/hR/qvju8fvf+Qv7Yw/Z/d/wT76orl4/EF43wx/tvev9of2QbzfsBXzPJ35x0xntXxKv7W3xOKg/wBt2/T/AJ8If/ia87A5PiMfz+yaXK7O9/8AI68RjqWG5edPU/QKivgGP9rD4pTNtj1eGRuuE06In9FpZv2rPipb487VY4s9PM02Jf5rXp/6r4z+eP3v/I4/7Yofyv8AD/M+/aK/P7/hrb4nf9Bu3/8AACH/AOJrW8J/tT/EfVPFGkWVzrNu9vcXcUMiixhBKs4B528cGlLhjGRTblH73/kNZvQbtZ/h/mfddFFFfIHuBRRRQAUUUUAFFFFABSEBgQRkHrS0UAfJHxDstE+FvxN+LXijRPDeiw6ro3hfS72ymksYzHazyXNyjXBAAPyg72IwSEqn8ZfF3iPS/DvxD8HT+Iv+FhadFoOka3FfmK3hkguH1SJBblogE2yqodNwyADyRzX1vJo+ny3FzO9havPdRCCeZoFLzRjOEdsZZRub5TxyfWsrSfh34U0HSrnTNM8L6Lp2mXTrJcWVrp0MUEzKQVZ0VQrEFVwSONo9KAPmr/heXjrxIfB+m211ex6n4gudUk1O10mKxhutIntfLUaYn2x1Qum/e7Nl3AyqhDkbFv4u+KninXNB8N3viSDwjqh8GXOs376fa212XuoroQxsGy6AMrKzKpYZyoI617/rHw+8LeIo7lNV8NaPqaXMy3M63lhFKJZVXasj7lO5gvyhjyBx0q5Y+F9F0vyBZ6Pp9p5Ft9ii8i1jTy7fOfJXA4jyAdg446UAfPnx08VXvjj9hG/8Q3iwjUNV8P2N3MqArGZZGhZgBzhSSeOeD3rhG8VeI/g7N8S/sumab4Z8UXmtaHYNpOh+WNPtbO4PlrqMTXBjjZ3JeMs4jUOig56n7Am8OaRcaINGl0qxl0dY1hGnSWyNbBFxtTyyNu0YGBjAwKZqfhXRNaa7bUdG0+/a8tvsdy11axyGeAMW8p9wO5MknaeMknFAHznqfxC+JGgaLoWn6xra+GW1LxlDo9vqurCwnuzYyWruRMIHaFZfMUqpyMjaSOxqyfFLx3H4T1uRfEEmqaT4T8S6jZanrWmx2i6leadBbxyLNHHIBDIY5JGSUJgkRnbzkV7T4g+BPg7XdP0LTY9E0/TNI0rVBqw0yysYUtbiTy3jKyxbNrAiQ54zwK3Ln4Y+Dr3S9P0248JaDPpunsXs7KXTIGgtmPUxxldqE5PIAoA2ND1CLVtE0++gnNzBdW0c8c7JsMisoYNt7ZBzjtmrtIqhFCqAqgYAHQUtABRRRQAUUUUAFFFFAHN/Er/kn3iT/sHz/wDoBr8v0+6v0r9QfiOrSeAPESqpZjYTgKoyT8hr8x10282r/odx0/55N/hX6Twr/Aq+q/I+Uzn+JD0O1+DMxm8aWOki1tJY9RuYVnuLm3SZoIUYvJtDAgZA5PXA96qeMvEF540a7a30W3gs9Puri4aewtFjEccjgKrlFA2rgBc+pqh4R1rWPBesf2lYWBe68mWAG4tmcKsiFGIHrtYjPvWp4KuE03QvFFjfT3lp9vsDb29utrLIrSeZG244GBwmM/SvqqkOWq6yV9rfk/wseNGV4KDff/gficRRVn+zbz/nzuP+/Tf4Uf2bef8APncf9+m/wrvujmP0a+F//JEND/7A4/8ARZr83K/SX4YxsnwT0RGVlcaQAVIwQfLPGK/OP+zbz/nzuP8Av03+FfF8PfxsV/i/WR7+Z/w6Pp/kdP8ACuWebxdZ6TbWttPPq8sViJriFZTAjSoXdFYEbtqkZxkAnFanjTVL74gatqtnomg28lhbanNLby6dZKjiJvkjiJRRkYQsBySWNc74R1fV/BevW2sWFgXvLfd5RuLZnVSRjcBjrzW38Ofsml6lcajqFxdadfW7LNp8f2OSSITAn96yjqU6qvckZ4Bz9JVhy1HWSvZK3XXrt8vxPJhK8VTb9fQ4MgqSCMEcEGkq9d6fdvdTssF1OrSMRK0DAvyfmIxwT1/Gov7NvP8AnzuP+/Tf4V6FzmP0M/Zo/wCSIeFv+vdv/Q2r4G8cf8jlrn/X5L/6Ea++/wBm2N4fgn4XSRGjcW7ZVgQR87dq+FPG3h7VJPGGtMunXTK13KQRC3PzH2r4jJJJY/F3fX9WfQZgm8NQ9P0RleFdYvdD1qK40/Yt7IrW8UjIHMZkGzeoP8QBOD2PNemfFfV9d17xZ4h8J2Ea3llZvbRSjKfJJAgiZw5IA3u2TzySK850ew13Q9UtNQtdNn+02sqzReZbF1DKcgkEYPNbej/2hP4sn13VrO6W7aX7UMab58TyFgWDIcDGM498V9PWhF1Paqzsvxurfdb8TyISajya6s46+srjTbye0u4Xt7q3kaKWGQYZHU4KkeoIqCul8Uaffa14l1XULXSNQhtrq6knjjmRndVZiQGY9TzWZ/wjeq/9A26/78t/hXZGonFNvUwcXfQ+2/2MP+SL/wDcUuf5R18jfGr/AJK54w/7Ck//AKGa+v8A9jqznsfg35dzDJBJ/adwdsilTjEfODXy38YPBPiG8+KniyeDQ9Rmgk1KdkkjtXZWBc4IIHIr43LZxjm2Kbf9XPexcW8FRSR5/oetXXh3VrbUrLaLu2bzIi6bwG7HHqOo9wK9T+KHiTxAuuW3gu1mlvZX0my0+6hY+a01y4SaRgf7xZguew3CuAtvBHiq0uIp4vD+pCSJw6k2TkAg5HBXmuo0uTxnH4xm8Qap4b1DUbu6IWeVrGRXCkruZNu3DFQRn3PrX0tb2cpqorOyf36W+7U8qnzKLhqr/l1PPNQsJ9L1C5srqMw3VtK0MsZ6q6kqw/Ag1XruvG/h3XfE3i7V9Vs/Cup2dreXUk8cP2KQMAzFvm6/Nzzg4rE/4QDxN/0L2qf+Akn+FdUK0HFOTSfqYSpyTaSPq/8AYdVm+HvicKcMdTAB9/JSs79pLStZ0P8AZ18Laf4hvP7R1u3mhjvLrzDJ5sgU5bcRk59TW7+xloWoaP4A8Sw6jZ3GnyS6jlRcxGMkeSoyAccVgfHzwy2hfs2eEdHtL8a+tnJBEt/b/Os4Cn5xgng/U1+cSknxBdPTmX5H1ST/ALMt5fqfIlesfDnxZqOnfDzxTKsqW1ppVj5Fr5agE3VxMMO57tsD7T22jFeaf2Nf/wDPlP8A9+zWtbX+vWnhm90GK0YadeTx3E6/ZvnZ0zsO7rgZPHua/RMRCNaKjpuvz1/A+XpycHfyYni6TW9cmi8R6tZPBFqGI4rjyvLjmMaKpK+vG0k9yc1ztdrqDJdfDvSdJjjvn1G1vp7qRWtWEe2RIlChs9R5fp3rl/7Gv/8Anyn/AO/Zq6Mly2eltPktvwJmne+5u/Cv/kpnhX/sJ2//AKMFfZv7YH/JFb3/AK+7f/0Kvj34W6Tex/ErwszWkyqup25JMZwP3gr7G/a6t5bn4M3iRRtK/wBrg+VASfvV8lmzX9p4T1/VHt4K/wBUr/10PgSvVvhP4ov9N8L+KZEdYbDR9MnnURKAz3VwyQRO5/i2k5A7Yz1rzb+xr/8A58p/+/ZrXsNQ17TfD+paNBaMLHUGRrgNb5dihyuGxkCvqsRCNaHJpuvz1/C541KTpyuTeIoPEfiy3/4SO9smkt0tYle5jCjMaYhEjDOeWHLYwWJrla7y0WxsfAd1ZWw1WHW7xcXiixykqhw0cQk3fLGMBz8uSwHYVyH9jX//AD5T/wDfs06MlZx2Sdl00FNbPqyXw3/yMmkf9fkP/oxa/Q74/f8AJF/FP/Xn/wCzLX5++G9Hvl8R6STZzgfbIf8Almf+ei1+hHxys59Q+EPiW3toZLi4ktQqRRKWZjuXgAda+Rz6S+t4R3+1+sT28tT9hX9P0Z+bNeo/AXX7/TvE3kRTeTptqs2rXWFH7wwwuURz3QtgY6ZYVxv/AAgHib/oXtU/8BJP8K1ND0Xxv4dj1BLDRNShW/tmtLjNgzb4mIJXleAcD8q+qxHs61KVPmWvmePS5qc1Kz0I9QbxP8QtNtr24H26LT7eZYy0q+cYkYySEgncwTf1xwPpXIV6X4T0nU/Duj6rDJ4b124ur61mtZIBp+IzuX92wl++u08lQMNgA8Vyf/CAeJv+he1T/wABJP8ACnSqwi5RuklsKcJNJ63MJPvL9a/RrV/+Tdbv/sVm/wDSSvgNPAHibcv/ABT2qdf+fST/AAr9A9S0+6uPgJcWMVtNJev4bMK26oTIZDa4CBeu7PGOua+V4inGTw9n9r/I9nK4ySq3XQ/NyvQvgdfXv/Ceabptvc/ZbG7uYpb9xwTbwkyupYchSFwfXisz/hT/AI6/6E3Xv/BbN/8AE1p+H/AvxM8K3kt1pXhfX7S4khe3dxpcjZjcYZfmQ9RX1FepSq0pQU1drujx6cZwmpOLKesax4l+KP8AaUhVrqy0xrrVH3ED7PHIylhknkDaAq/XHeuJr2PwPovjnwrp+p6fcfD/AFa7trm2nVQdHkZvNkQIrOSBuQAHj3PrXFn4Q+OmJP8Awhuu888abN/8TU0a1ODlC8VFbaoc6c5JSs2+pyFfoN4T0PV/EPwB8HWmiX402+X+zbgzmRo8wxXMUkyZUE/PGjpjod2DgE18Uf8ACn/HX/Qm69/4Lpv/AImvtfT/AAgNQ+A/hTR9av8A/hGZLeXS5pJL1dhWWG7hlWEhmXDSMixjnOXHB6H5XiirCeHpqEk/e/Q9nJ4yjVldW0Oa/ba/5JTp/wD2FYv/AEXLXw9X3L+2lbTXXwssEhieVv7ViO1FJOPLkr4n/sa//wCfKf8A79mvQ4baWAV+7ObNU/rL9EelfDnxZqem/D/xZOkiQWWk6f5FsI1Csbq5nVRKT/Eyqr49AK4rxZJrevNF4l1WyaGG/wAQxXAi2RzNGiqSvqcYJPck0tvf69a+GbvQI7Rhp11OlzKpt8uZEBCndjIABPHua07wpP8ADnT9JWO+bUre+mumja1by9rpGu0NnqNmenevajBUqrmkvef4W/zPPcnOCjfZfjf/ACOJrovhz/yUDw1/2Erf/wBGrWV/Y1//AM+U/wD37NdB8PNIvo/H3htmtJ1VdRtySYzx+8WuqtJezlr0ZlTT50faH7W//JFtR/67w/zNfAVfoD+1jBJcfBnUEijaRzPF8qjJ6mvgv+xr/wD58p/+/Zr5fhlpYF3/AJn+SPXzdP6wvRfqelfB3xNe6bo/iLa8cWnaTpl1esqoA0k0oSGNif4ijMrKO2Ca5PxFH4k8XWq+Ir+zMtvDaxo91GFGY1PliRgDnluC2MZNV9M1DXtI0TVdJtrRls9TCLc7rbLsEOVAbGRz6VtWi2Fj4Cu7K2/tSLW7xcXaixykqq4ZIvM3fKgxvOFJLbegFe7yKnUdSKV20vl1/G/4Hnc3NBQb0S/E4KrWlf8AIUsv+u8f/oQp/wDY1/8A8+U//fs1Z0vR78apZE2c4Hnx/wDLM/3hXe5K25zJO5+inx8/5I741/7Bs38q/NWv0v8Ajjaz33wn8YW9tDJcTyafMqRRKWZjjoAOtfnf/wAIB4m/6F7VP/AST/CvieF5xjhqnM7e9+iPoM4i3VjZdDsPgPrl5Y+JmgWUxaTbRy6xfrGo3SLbQyOqk913EfL3zWDfSeKPiNY291OFv1sYpxGfMUSsoLTSnBO5tobPThQB2p+h6P448OR36afoupQLfQNa3H+gM2+M9V5XjPtWx4N0nU/DVjqIn8Na7cXN3bzW0luun/u3V0whEvDoQxJO0EMBj1r6SfLCpKtCzelvx/zseVHmlFU3e2v6HmdI/wB1vpXQD4f+J8f8i/qn/gHJ/hSN4A8TbT/xT2qdP+fST/CvQ9rT/mX3nNyS7H6Fw/8AJDx/2Lx/9Jq/NWP/AFa/Sv0xtrG5k+Dq2awSNdtoXlCAId5f7PjbjrnPGK/PxPg/462L/wAUbr3T/oGzf/E18Xw7UhD2/NJL3v8AM97NIyl7Oy6F74MXd83jnTtLtblrS21C5hW9lj4fyI38xhnqF+XJA6gU7xFrPiT4pahq6RhruysLi81YpuAW3jdgXwT/AA4VQFH4VJ4f8B/EvwrqQv8ASvC2v2l2I3iEq6XIxCupVhyh6gkfQmui8A6L468Hx31tP8P9WvLW4hnyp0aQsZXjKKWOBlBk/L7nHWvoqs6cZyrQcW7K2q87/hZHlwjJxVOSaR45W94C/wCR48P/APX/AAf+jFrRPwh8dMSf+EN10fTTZv8A4mtrwT8J/G1r4w0OebwjrkUMd7C7yPp8oVVDgkk7eABXXUxFHkl7627owjTnzL3X9x+jVFFFfhB+jhRRRQAUUUUAFFFFABRRRQAUUUUAFFFFABRRRQAUUUUAFFFFABRRRQAUUUUAFFFFABUP2OD/AJ4R/wDfArmvin4+h+GPgPVfEc1ubs2kY8q3ztEkjEKik9hkjJr45uP2yviLLM7xyaVAjElYxZ7go9MlsmvZwOVYrHxc6C0WmrscGIxlHDSUam7Puv7HB/zwj/74FfMep3Pj5v8AgoHpGmwXump4IXwbLcyaY27c0X2hUaTG3Hm+bsx/sAjPOK8s/wCGxviR/wA/Ol/+AP8A9lXKSfH7xpJ8VIfH32yyGtR6M2hhPsY8r7O06zE4z97co5z0r0v9W8w8vvOT+1cL5/cfo19jg/54R/8AfAo+xwf88I/++BXwh/w2N8SP+fnS/wDwB/8AsqP+GxviR/z86X/4A/8A2VP/AFbzDy+8P7Vw3n9x96BQowBgelRfY4P+eEf/AHwK+EP+GxviR/z86X/4A/8A2VH/AA2N8SP+fnS//AH/AOypf6t5h5feH9rYbz+4+7/scH/PCP8A74FfMXxbuPiDD+2x8G9P0S90y28IXGmanLc6dMWBuVj8n7Q7gLjeFki8v0KvkjdXlv8Aw2N8SP8An50v/wAAf/sq5fWP2gPGWtfELw34zuLmx/tnQLW8s7PbaAR+XciMS7lzyf3KYOeOfWn/AKt5h5feH9q4bz+4/Rf7HB/zwj/74FH2OD/nhH/3wK+EP+GxviR/z86X/wCAP/2VH/DY3xI/5+dL/wDAH/7Kj/VvMPL7w/tXDef3H3oqhFCqAoHQClr4K/4bG+JH/Pzpf/gD/wDZUf8ADY3xI/5+dL/8Af8A7Kl/q1j/AC+8f9rYbz+4+9a+YvjxrHxItf2uPgTYeHdWsrLwrdf2h9rsZXcG8ZYC83mADGBGF8v0fkjgV5P/AMNjfEj/AJ+dL/8AAH/7KuW8QfH7xl4l8ceFPFd5c2X9qeGjdGx8u0AT9/F5Um8Z+b5Tx6Gl/q1j/L7w/tbDef3H6PUV8Ff8NjfEj/n50v8A8Af/ALKj/hsb4kf8/Ol/+AP/ANlT/wBWsf5feH9rYbz+4+9aK+Cv+GxviR/z86X/AOAP/wBlR/w2N8SP+fnS/wDwB/8AsqP9Wsf5feH9rYbz+4+9a+ZP2nNW+I2n/Hz4CQeEtVsrHQ7nWLhb60uHcG7IhYur7RgqIfMC/wC02a8l/wCGxviR/wA/Ol/+AP8A9lXKeLPj9408ZeJ/CWu315ZLeeGbqW8s1iswFZ5IjG28Z5G0n8aX+rWP7L7w/tbDef3H6QUV8Ff8NjfEj/n50v8A8Af/ALKlX9sb4kAgm40sj0+w/wD2VH+rWP8AL7w/tbDef3H3jMFaGQMcLtOT7YrlvhPYaNpfw28OWnh69bUtDhs40s7t+ssYHyseB/KsD4F/Fv8A4XB4DfVbqzWyvbeVra7ihYlCwAO5c8gEHp2ry/4ifHq1+FPwn8DQfD2zWO21az8ywfUIy4t7ZAvVc8sdwHJ4rxIYGvUxP1RL372PQliKcaPt2/dPpujnnGM9s9K+Bf8AhsD4mf8AQQ03/wAF6/8AxVH/AA2B8TP+ghpv/gvX/wCKr3f9Wcf/AHfv/wCAed/a2G8/uPWv2JT4+k1L40nxp4jtdfWDxxeWsawo6+RMscTSeXu6RFZIwq9QUJ53GvqCvzc8CfHjxp8OpPEr6RqFru8QaxNrl6bi0V83Mqxq+3kbVxEuB9a6n/hsD4mf9BDTf/Bev/xVH+rOP/u/f/wA/tbDef3H31RXwL/w2B8TP+ghpv8A4L1/+Ko/4bA+Jn/QQ03/AMF6/wDxVH+rOP8A7v3/APAD+1sN5/cffVFfAv8Aw2B8TP8AoIab/wCC9f8A4qj/AIbA+Jn/AEENN/8ABev/AMVR/qzj/wC79/8AwA/tbDef3HrP7L4+IC/tEftBw+KfElnrOk2+sWqQWkKSD7Mz2sUsQi3HhBDIiMOpZN3c19Q1+cPhv4/eM/CfiTxTr2nXVkmpeJrmG71KSS0DK8kUCQIVGflASNRgema6T/hsD4mf9BDTf/Bev/xVH+rOP/u/f/wA/tfDef3H31RXwL/w2B8TP+ghpv8A4L1/+Ko/4bA+Jn/QQ03/AMF6/wDxVH+rOP8A7v3/APAD+1sN5/cffVFfAv8Aw2B8TP8AoIab/wCC9f8A4qj/AIbA+Jn/AEENN/8ABev/AMVR/qzj/wC79/8AwA/tbDef3HrP7OjePm/ap/aAXxD4is9T0GG5sBbafFG4+zboi0PlkngCIbX/ALzAEYxivqGvzg8P/H3xl4X8WeJvEen3VlHqviN4JNQke0DK5hQpHtXPy4Unp1rpf+GwPiZ/0ENN/wDBev8A8VR/qzj/AO79/wDwA/tbDef3H31RXwL/AMNgfEz/AKCGm/8AgvX/AOKo/wCGwPiZ/wBBDTf/AAXr/wDFUf6s4/8Au/f/AMAP7Ww3n9x99UV8C/8ADYHxM/6CGm/+C9f/AIqj/hsD4mf9BDTf/Bev/wAVR/qzj/7v3/8AAD+1sN5/cetfCFvHsn7bvxoTVfEVreeFrfTdNEOlpG4MO9GaDZk4BUebvP8AEXyBX1BX5t6L8dvGmg/EDxJ4ytNQtRrHiCG1gvd9opi2wKVj2Ln5Thjnnmuq/wCGwPiZ/wBBDTf/AAXr/wDFUf6s4/8Au/f/AMAP7Ww3n9x99VyPxSttAu/CsUfiW6ns9M/tPTnWS3BLfaFvITbrwrcNMIlPHQnkdR8d2H7ZXxGsruKa5l0u+t0OZLdrIJvXuAwbIPvX1j4u8VeHdW+Gej65rmnzXekX13pUkdtGfnSeW7gFuxOV4SZo2Psp4PQ+TjsrxGXcrrJWfZnbh8ZSxV/Z9D0GivFv2mvjdqXwf0XSotEt4JNV1OSQJPdLvjgSPaWO3jcTuAHPHJ9K+bv+GwPiZ/0ENN/8F6//ABVdODyTF46kq1K3K+7Mq+YUMPP2c73Pvo5wcda+YP2L/wDhYDeJfjb/AMJl4ltfEFqnjK5ht44Y5FNtKqrvEe4nERUxBV6goTk7q8k/4bA+Jn/QQ03/AMF6/wDxVct4I+PPjX4f3PiSfSdQtfM1/VJdYvfPs1cfaJAobbyMLhRxXb/qzj/7v3/8A5/7Ww3n9x+kdFfAv/DYHxM/6CGm/wDgvX/4qj/hsD4mf9BDTf8AwXr/APFUf6s4/wDu/f8A8AP7Ww3n9x99UV8C/wDDYHxM/wCghpv/AIL1/wDiqP8AhsD4mf8AQQ03/wAF6/8AxVH+rOP/ALv3/wDAD+1sN5/cffX1r5f/AGa38et+0x+0FH4j8RWmq6JDqNkLaxijkX7OWhzEY9xO0CIKrDuwBzxXkv8Aw2B8TP8AoIab/wCC9f8A4qua8OfHzxl4V8UeJ/EGnXVlHqfiOWGbUJHtAyu0UflptGflwv50f6s47+79/wDwA/tbDef3H6P0V8C/8NgfEz/oIab/AOC9f/iqP+GwPiZ/0ENN/wDBev8A8VR/qzj/AO79/wDwA/tbDef3H31RXwL/AMNgfEz/AKCGm/8AgvX/AOKo/wCGwPiZ/wBBDTf/AAXr/wDFUf6s4/8Au/f/AMAP7Ww3n9x99V8wfARfH7ftd/Hz+3PEdnqPhu3fTY4dNjjcG3Z7ZZIPLycALGzK/wDeY7hjmvJP+GwPiZ/0ENN/8F6//FVzehftAeM/Dfi7xP4lsbuyTVvEb276jI1mGVzBEIoyq5+XCADjrR/qzj/7v3/8AP7Xw3n9x+j1FfAv/DYHxM/6CGm/+C9f/iqP+GwPiZ/0ENN/8F6//FUf6s4/+79//AD+1sN5/cffVFfAv/DYHxM/6CGm/wDgvX/4qj/hsD4mf9BDTf8AwXr/APFUf6s4/wDu/f8A8AP7Ww3n9x99V8v/AAxj+IP/AA3X8Wk1TxHZ3PhSDQ9Mli0eNJP3SSmb7OUycCRfKl3no3mj+6K8l/4bA+Jn/QQ03/wXr/8AFVzGl/HzxtpHxE8QeNYNQtf7a1yzs7G732amLyrbzPK2rng/vnyc85FH+rOP/u/f/wAAP7Ww3n9x+kNFfAv/AA2B8TP+ghpv/gvX/wCKrY8HftafEXUfFWk2d3dabPbXN1HDLH9hC5VmAOCG4PNTLhvHRTl7unn/AMAazbDt21+4+4qKKK+VPZCiiigAooooAKKKKACiiigDz7XPi09l8RpfBmj+Gr7xDqVpZW+oahJb3MMCWlvPK0cb4kYGT/VyEhegX1IFdJcePPDVr4oj8Ny+IdLj8QyKHj0p7yMXTAgkERZ3cgE9O1eQ/tDeBfEXjjWLUeGfBckfia0iQ6N4+tdXitTpkjPmRZo8iWSMAZMYWRXz0XrXNWHwL8RWvxT1P+2LHXdX0m78XReJ7fVdP1OxhskKmNkE0Tp9pDRlCm1CyspAyoJFAHvVr8TvB97rh0a38VaLPq4SSQ2EWoRNPtjz5h2Bt2Fwc8cYOawvBv7QXw98c+BpPGGneKdNi8PxXDWs13eXUUIhkEjRhXy2FLFSVBPzKQR1rzvw/wDA/VtJ0bwow0azg1ey+IF5r95cRtGJPscr3g3lxyxZJYVK5zjjHFcbD8EPHeneCfCFhHod5DceDfE+oXph0fULKOTVLe4a5MdzbtMGRXjE6/JMEP38EcEgH0lqPxQ8HaPpNnqt94r0Wz0y8jaa2vJ9QiSKdBjLI5bDAZGSOmRUms/Ejwn4d0vTtS1XxPo+m6fqWPsV3dX8UcVzkbh5bMwD5HPGeK8h8DfA6bS/Ffwz1CXQp49L0ltaur2HXLm2uri3nu2jYH92PLySH4jGFzjPNc14O+FHjT4aSeEtRbwRbeMo7XRL/Qn0j7dbR/2f5l+88TqZTsMTxFEYKSyhVAUjIoA+iLrx74ZsvElr4euPEOlwa9dKHg0yS8jW5lUgkFYydxyFJGBzg1ifEr4lz+BNU8LaXYeH7rxHqviG5nt7a1tp4oQnkwGZ3ZpCABtX868Xu/gX4gf4reIJNR0zXdU0DWPEln4hgu9M1Sxhtbfylh2xzpIguMxNCQPKJDKQPlya7T9pL4e6h441r4c39v4Sk8Z6domo3k9/pkN/HZybZbVo43DO6A4cjIDZoA7+7+KGgeG9Ps5PF2raV4P1CeJZX0/VNTgR49xIHzbsMMqRkcZBrQ1rx94Z8Oapp2m6r4i0rTNR1EgWVpd3scUtzkhR5aswLckDjua8j1L4S3virxDe6tP4St7C2l8Ay6BaWN7LDPJa3DSufI3BmGCuzLA4PrWL8Mfh340+GXiWxuNQ8GQ+L4dV8O6Bpk9w9/bj+yJrOExzpJ5hJdCzeYDEGyynI6NQB7pb/ELwtdeKJPDUPiTSZvEUe7fpMd9E10uACcxBtwwCCeOhrm9Q+OHh1fiJ4e8IaXqWm61qWoXlxZ3kVnfxvLYNFbySnzI1yQSY9uDjBP4V5F4d+D3jJJPCPha58NQafD4e8YS+JZ/GaXkLC8h8+aUKkYJm82RZljfeAoCtywwKr/D34O+M9N1b4Z6be+DLPRU8HyanBdeKIL6CR7sTwTIk0KL+8w7sruH2neR8pALUAfQ1j8SfCWqXWrW1n4n0e7uNJRpNQihv4na0VSQzSgN8gBByTjGDV/w/4o0bxbZyXeh6tY6zaRymF59PuUnjWQYJQspIyMjj3r5S8C/s7eKdP8C3GharoutHXNK8KanoFje3GrWD6bO9xFsJhWNFmxIyq377G0k5yea+n/h34bj8H+BPD+jJZQae1lYQQSW9sqqiusaq2NvB5HXvQB0VFFFAHjn7XH/JC9b/AOutv/6OSvz/AK/QH9rZS3wL1zAJxJbk4HQecnNfn9X6jwt/uc/8T/JHx+cfx4+n6s6zWNEsNL+HHh6/a2Kavqd3cuJzI2Gto9qKAvQHzN4z7Vy1xDLbY82N4iy71DqRlT0Iz2rrLj4iPcaPZ2J0bT1ez05tNguv3heNGZmdwpfbvJdvmx34qL4haxa69caNNb6g+oSQ6XDaXDyIysJE3Z+91HIx9K+npSqRfLNbt/np+B5ElFq6fYl8SeDbXT/GVpo9rdfZoZrO2nM1yGfa0kCyMMIpJ5JAAHp9avXnwZ1u2u7aCKW2ujcXVrbRshZeLiPzIpGDAFVwGzkZBU0qfFyePVLXU10HTV1OG1FlJdK9wHlhEPk44lwh2fxJggjINaOk/Gi6huPEF5cRJDcXWix6VZ29urNGrIyiORmdi25EMnzZJJPbOa5ZPFxS5VsuttXc2Sotu76/gZdx8HdZt/D8mq+dBIiw/ahEqyZaDzNgkDFduScHbndg5xWX4l8LweA/FC6bqdzb6y1s5W8t9OmZNhB5j8xkIz05AIqe7+I95qHh2z0u6sreeS0hW2hvTNOriNW3AFBII2I6ZKk4+gNYXiLXJ/E2vahq10saXN7M08ixAhQzHJAz2ropKu5fvXpr+lv17Myk6dvcWuh6Jrnw80PUZni0fOgxWmlWurXd7q18Zk8uZIzsVViByDIBxnOOgrB074U3+saXYXtjf2tzHdXdvZMNsqCJ52Kx5ZlAYZBB2k4rOvPH1/eQX8TxQBbzTbbTH2qciOHy9pHP3j5Yz9TW7/wuzWPsdjCtlYq1rJZS+Z+9O82v+q+UvtUY+9sAz161zqOKhBKLu/P5X313v+BrzUZO7IY/g/f3N9ZQ2eqaffwXH2pWuLYyMI3t13TJt27nYAgjaDuzxWrZfDOxvvA9ibK7sbzW9Q1K6gNzM80a28FuqM7gYAACszNuBOCAOa5ax8fT28NpBcafa3sFtd3F6is8sTCSULkh43VhjYMYPrnNaM3xg1u41aHUJILJ5EvLq8eIxHy5ftCIksbDdyhVAOueSc55pyji5WSe3/Bt+l9hRlRW6/rT/gjrf4S3F0RcRa5ph0drN75dVYyLFsSURyKVK7gysR8uOcjHWn2vwguLjTVvG1/SYFNh/ahjleQMtoJDGZT8vr0Xqc9OtUb74mXlzYzafbafZ6dpbWTWMVlb+YyxI0qyuwLsWLMyjJJNVG8fag1qYDFb7Do39iZ2nPkeYZN3X72T16e1Vy4pre2vlt/n3/AV6PY3rP4I61eahdQLd2ogjlghhvFWR47hpo/Mi27VJUFCCSwAXIzWFrPgO58P+HbbVL+/s4ZbmWaKLTwzNOxilaKQnA2gBl7nntWpD8XtS+zz2t3Y2t7ZyJbAW7STQhHghEKOGjkVslBhgTg+1c1q/iS51nTdLspo4kh09Zli8sHJEkpkbJJOcFjj2qqaxPMud6afl/n/AMAUvZW93+tf8jvNB8G+HtSXwtbXUawXN5pE96A159nN/dec6RwmR8pEMJ1xyeO/FS1+DOsa9qF/9ms5NDjS+NhBZ6kXkl8/YG8tnRMAAMvzsFHzL71m3HjDSf7M8NK+lxaxLY2D2V1aagjpF/rnkV43jkVs4fHboeuatz/GbVNQhuoNQsLO9tZJhPDAHnhW2YRLEApjkVmXYiDa5b7oPXOcOXEptw89/Xpr+fTZ9tL0rJS/rQrR/Cq9k0OLUDqdhHPJZyX66ezP5/kxyNHI3C4yu0nGckA46Vrat8FXi8Tanp+maxDeWGnw28lxeGCUmNplUohRVJJOSeBgKMk9q5qH4gahbxWsaw25Fvpk2lrlTzHIzszHn72ZDj6CtUfF++a4vJJtLsZUvre3hvY1kni+0PCMRzFkkDK4AwdpCkE8c1cli73T79u6/S/z3Ji6NtV/Vv8AMktfgvqsjyQ3Oo6bY3n2+fTIbWaRi89xEiOVXapGCHXDHAyaoRfC/UJm0e1W9shrWqiJ7fSWZvO8uQkI7HbtHA3YznbzUNl8RtQ0+bTHgtrZF0/UpdUhj+dh5kgjBUlmJKgRLjJz15NWk+Kt/FNo96mm6eNa0vylt9V2SGby42JSMrv2EYO0nbkrxmq/2vy/q/4bX6i/c/18jX0n4Yro/iWwtdXjh1TTtTs75oJo/OhKSQwyNkKwVshlXqCCG/LzIdBXfaR8QLA+Ko9WvbH+z4re0uo0hsnmn8ySWF4xkzSttUF+3QDoa4EVtR9pzP2nZfm/ltbYzqclly+f6f8ABPtD9iFgvw38QFhuA1JiR6/ulryj9prWLDxD4X+FepaXpn9jafdaVcSwafx+4UtDhOPSvWP2It0fw1199pP/ABMmK5HBxGteW/tSaze+JPDfwu1fUNMGj3d3plxJLZIhVYHLQkoARxivgKH/ACUL9X/6Sz6Wp/yLF6L8zwHBPA612HxK0O10rxtLouk2WxrSKC2ljgLSGS5Ea+aRyTy5bgdMYrltOvDpuoW12sUczW8qyiOYEoxUggMARkcetdtZ/E2XUPFlhqF5Da6PH/av9qXlzpsUhlmcsC2d0hOMbgFBAG41+g1faKalFXST+/T/AC/E+ZhyuNn3RieAdBt9f8caRpOoJILe4ulhmRSVbBOCM9jV3wT8PH8c61cabbXv2WZZhDEDayzBiWIBYoCEXgZJ9aoJ4kbQfHTa7pTpcGG+a7gNxEQrfOWAZc/mM1t6b8YNR0eeR7LR9GtY3uYr0QR28nlrcR7tsoHmcnDHgkr0OMjNZVfbu7pdUreT1vuXD2ein3GR/CPVpzH5U9u6S2cVzG/IDyST+QIB/t+ZuHp8pNa158BtSs9UtLWTVLaCGYXYkurqCaFYjbxGSQ4ZdzKVB2sBgnisqb4nXieBdN0a2mkjvINYl1Z5goAQ/KY0Q9wH3vg9yKp3XxKvZ9UfUYdN0yxu5YriKZ7WFwJfPjZJGILkA4Y424AJ6VlbGSb1S3/4H+Zf7hdO3/BJ/h5pOhah8QLPRNQtjrdhe3aWsdzDO9vgFseYBjJyOxqa88F6dq2lW+uW11baBaXl61hbaa5mupWdPL3vkKeMSZ/DA6iuU8P61ceGdbsNVswhurKZZ4vMGV3KcjI7itPSfHmqaL/Y32Ywg6TeyX9uWjzmR9mQ3PI+QccdTW1SnV5+aD7dfXptrp0M4yhy2kv60/4J0V38Grmxuj9o1e3tNPGmPqpurq3mjIiSYRMpjK7t25hjjBFV9Q+EtzptlrN5LqkMlpp6wustvbyymVJYvNjcqBmNCuBubjJxVLVvihquq28lv9msbS2exk04Q28TYWKSUStgsxYtvX7xJPJpbf4o6pbyXE62lh9ulshp63vlOJYoRAICq4bacp13A8kkYrJRxdrt/l3X6Xv+CNG6HRHV+NvhvolvdKLTVLHS9H060s1udQeGcvNcTxCRQy85OAzfKAAvByaw734P3Wko66hrFja3Tao2lW9vtkdriRTH8ykDATbIrZPqOOaz4vifqRmvDeWWm6nbXcdsktneQM0O6BAkTgBgQwUEdcHJyCKral8RNZ1a4tZ7uSKaa31KTVVkMeCZn8vOQONv7pMKMYpU6eKjaLlp8u3p3vfytYJSou7t/X/DHUL8ERJJHFF4q0uWaS/m0qNRFMN15GATEMr0ww+fpkis2f4O6va+DW16WRY9tl/aJtmhkx5G/bnzcbN/8WzOcflWZb/EjV7a8trhRbl7fVpdZQGM4+0Sbd2efu/KOP1qPUvHl5rOhwadfWVjdSQQ/Z4b943+0RxBiwQEMFIGSASpIBxmqUcWmry0+Xn6eQm6NnZE3izwTF4M8WJocuqW2q3MUwiuvsquFjbd93LAZOPSu3vvBWhajqHi+LTNHivtXstQmhi0eG+Ns8VqiHE0KnPnNuB3LzgDpzx5nq3iW517xRca7fBDdXNx9plES7V3ZycDtXU6l8UEs/FWr6pommWbPdXcl3bX2oW267tmcc7SrbTjtuBx1GDSqQrtRs/etr0V9O1tP0HGVNN6aX/AdP8ABfV7bw1Bqsk6K7wW9y8DQyKFimZVQiQjazfOpKg5APsca2l/A+1bxNb6fe+JbaWzW/uNMu5rKKTdDcxRNJsAZeQQp+bp8p9q5HUPiJfarZ2Ud3ZWE97aJDGmpNE/2gpERsViG2nAAGdu4gcmprT4pa3Z6lJfRi1M0mrPrLq0WVaZ1dWXGfuFZGGOvPWlKGMlF+9rr2+Xf+twUqCa07Glp/wZ1HVPDR1q2vEltpYri4tD9mlCTxQlgzl8bYySrYVjk7fcZWf4N3jW8K2Or2Ooaky2TvYRh1eNbrb5ZLEbeC6g88ZzWLcfEC4u9EGlzaVpcltD5otGMUm+zSRizJGd/K7iSN4YjJ5p8fxN1y3vJ7qCSGG4litIvMSPlPsxQxFcnrmNc5znmq5cXd+8vw7r9PTXyFej2/r/AIf8DV034SnWtW1C10zW4NSt9Nj33txa2kzmM+YIwqoF3PkngjjAJOKTXPBqeGfC/ieyvraB9V0rVbWBb2PcGaOSOUkYJ6HapwRkd6p/8LSvFvr2ZNG0WK3v4zHeWUVs6w3BLh97YfcGDDI2sAOgGDiqkniizm8I6xY/ZjBf6hqEN15cC7beKONZBhcktnMnf06mjlxF1zPTTt3V9vn5WsF6VtPP+vyOUk/1bfQ1+hdjr1v4b+A3g+8udJTWomOkW/2WQAgNLcwRLLyDzGXEnT+DqOtfnpJ/q3+hr9E9J1TWfDvwP8Iz6Rp32/UNulQNbvGWxDJPCkz4GD8kTO+e23NfLcV/wqXq/wAkexkvxz9EeO/t3f6zwb9Lr/2lXyjtZvlUZY8ADua+r/27gd3gw44P2sD/AMhV8q2dx9ju4J/LSUxSLII5ASrYOcHBHHHrXscP/wDIup/P82cOZ/73L5fkjq/iZodppPi5dH0qzCtb21tFKsO5zJcGJTJwec7yVwP7tZ/gbQodb8d6Jo+oRyLBc30dtPGCUcAuAw9jW1/ws2fVvE1rf3kNrpG7VF1O8vNPjkM0r555aQnGM4VSB81ZF14lGl/ECXxBpEgn8rUGvrZriIgH94XUMufzGa9SPtvZ+za15d/M43yc3Otr/gWPA/gF/HWtTadb3f2WYOEj/wBGlmBJJALFFO1R3JrQT4O6vNNFHFcW8gktPtCvk7TJ9oFuIM/3zIQPTBz0pNN+Ll/o80z2OjaLaRSyxXBt44JPL86MsUkwZMk/ORgkqeOMjNPk+K18vgeLSYJZItQbW21eSZUUKm3BjVD1I37mKnjIXrUS+tc146LT/glR9jbXc0b74D6lZalZ2smp28Mcz3UUlzcwSwpE8EXmPwy7mQgHDAY4rD8BaXod58QrLRb+D+3dOvbyOzjuYZpLbAZwPMAxnoehqK8+JV7caudTi0zTLG8kjuI5ntoXAm85CjswLkA4YkBcAE9K5/Q9YuPDutWGqWmz7VZTpcReYMruU5GR3GRVRhiJU5KpLW3prr2+QnKmpJxWl/wOy1XwTpl/Yx6xbXVt4fsri9k0+20+RprqaR42UO+QvTDrx+Aqe7+C9xY3ObjWILSw/s1tTN1dW0sRCLL5ZQxld27PI4wciud0/wCIGraXLo8luYFfSr6XUbctHn97IVLbueR8g4+tW9U+KGqanayWotrG0tWsnsBDbxthY2lEpwWYsW3DqSetTyYlNKL0/T877b36j5qTu2i7qHwludNttcuX1SCa100QsJbaCWXzVlhEsbkAZjQqQNzcBuK3vFXw10VFtBZarY6dpljplnNeak8E7PLPcoGQFeck/MRtAAAIPNcrbfFHVLW4uLpLSwN/LaLYreGJvNiiWAQYXDbTlBzuBGeQBTbT4nanBJOLiz0/UbWa1trWSzu4WaFhbqFhfAYHeoHUHueOajkxTablt6eV+nra/XoVzUbWt/X9WL998I7jSLS5mv8AWbG3ZdQGnW0aq7m6cqjq6YHCFXBycVqL8Cy96lonivSpJ21B9JCrHN/x9r/Bnb90/wB/pXJ6t8QtY1zYbt4ZCmonU1Kx7cS7VXaAOAgCKAo6YqeH4nazDqEd4v2bzo9WbWRmI489sZHX7vHT9apwxfKveV/l/kTzUb7aGnB8GtXl8HjXWlWMPaG/jgaF9rQB9hJlxsDcE7c5wPesnxP4Mi8IeK7fRZdUttVuFmWO6W1R1WFiw+QlgMnB7dKju/Ht3qGg22mXdjYXRtYvIt72SJhPFHvLBAQwUgEnBZSQD1qhqfiO41zxRLrl8qG5nuRcyrENqk5BIA7dK1pxxHM3Uemv/AIk6VvdWun/AAT0tvBOharq3jG20/SI77WLHVJbW10SK+NswtUDDzYs5Msm5eV54GcHNYD/AAU1iHwvHq8kyRs0MNw0DwyALHLIqL+8xsZvmVioOQPfiorz4nJp/i3VtX0bTLKSS5vpL+1vNRtt11au5JO0q204J43Bh3wKyrz4h32oadZ291ZWFxdWqRxx6i8b/aNkbBkUkPtOMAZK5xxmueEMVG1nppvq9tf639TaUqLvda6/1/Wh1umfBG2bxRY6deeJLae0bUpdKvZrKGTMFwkbOEG5fmyAfmAxwazdO+DGoatoMuq2d6k1sy3Elo32aULOkKksxbG2PO1goYjJHuKybb4oa3aak99H9mE76sdZbMWVM5UqRjP3CGIx79aZcfEO5vNGbS5tJ0uS0UzG1Bik3WYk5ZYzv5GeQH3YPSq5MWn8Xbt537eXy8yeah2/rT/g/M1rz4PXcVq32TVrLUNSjSzllsIVdXjS52+USxG0nLLkDpkUtn8In1TW73T9O1q31MadC8t9LaWszmLa4TaqbcvlmGCOwJOBWM3xI1r7Te3CPDFPdw2kDvGmCq25QxFeeD+7XPrzV1vitfNqV5dro+jRJfQtDfWsdsyxXW5w5Z8PuB3KCNjLjsBk0+XFpb/l5f8ABt+Ir0b7f1/Vr/gWta8Fr4Y8L+KLO/t4JNV0u/s1ivY9wZo5kY4wexAU4IyDkGud8Bf8jx4f/wCv+D/0YtXJfFVnN4T1yy+y/Z77Ur2CcR267beGOINwMktklj1z061T8Bf8jx4f/wCv+D/0YtaxU1Tnz7/8BfrcluPNHl/rU/UWiiivwo/RQooooAKKKKACiiigAooooAKKKKACiiigAooooAKKKKACiiigAooooAKKKKACiiigCjrmh2PiTR7zStTtkvNPvIzDPBIMq6nqDXij/sW/DxnYqdXVSeF+25x/47XvNFddDF4jDJqjNxv2ZhUoUq2tSKZ4J/wxX8Pf7+sf+Bv/ANjXB6z+xe83xMsI9HdYPBMccX286jNIbmUsZPMNu6cblAjG11wd5OeMV9b1g2MajxpqrjVfOZrS3B03P+o+aT95/wAD6f8AAK6v7Vx3/P6X3mX1PD/8+19x8kaD8CNJuY/G82o/D7xQq6HceVp9rZ6sHu9VBY48uKWKJVJXDffYHPUEGtZ/g38J9Ps/CR1rTfF2g6l4kfy7bTL2VPOgfONkpUlQfYE5r6t8QeHNL8WaW+naxYw6jZOQTDOuQGHRlPVWHUMCCDyCKpyaXqlhrMd3a6sG0aK18ptIuLdW+ZVO1458hlJ4Db94IHG05JP7Vx3/AD+l94fU8P8A8+19x4Kf2ZfhAup6vYSapqsE+kwtcXzXFxJDDDGoBZzK8YjIAIJKscd8Vd0f9k34UeItNh1DStWvNTsJ8iK6s9USWKTBwdrKCDz6Gun/AOEy8Mx6LJq1hoS6bquv6g2kXH2HU7W3zcgFmdrhJNmeDhwC5OPlq74h+BsviGGDTL3WLLVPDls37rTdY0dLt2BOXd7gus3mnJw6MmBjIbkk/tXHf8/pfeH1PD/8+19xwmrfsqfDLSLvTrZk8SXk1/I0cQsWeZRtwGZ2VNqKCRksR+ODjhtX/Y21pviRa2+mx2EfhHAkma4urh5TGJVVgJQoCzbCzBNhXIwXPUfQWk+F7bwb4muYbbTdO0q0ktWh0u103VZIpbjao+T7M4EYfO87kJ6ZPJJrzGb4kWumSTT2Xi7xhZ6lZxvbto+oaP8Abp93nqCTJgQGMFSu8ygjdgsCQpP7Vx3/AD+l94fU8P8A8+19xj6T+zb4Ku/EHiWwvvDnijT7bSDmG8+2bheoehjUopJPYDI9+lX5v2cfhDpun6bd6zfax4dGoSGGGPWbz7K3mD+A7hgH2J57V6xfT+IvFGo2OmXVt4VvPDstrH/bmkauS97C/DNhFLxkYKEBgAP7x4rhrrVNd8KeHbnVtX8UQWHhqKf+zrTQ9Dubdkkg2kIsF0zLKtwvAyznO37gJyD+1cd/z+l94fU8P/z7X3D2/Yy+HMZw0+qqfe+A/wDZaw4/2ZvhHdatqml2V7rOpanpsfmXVpZXJleP/YyF27+fuZz7VmS/E74ZWWoGXUvhrqEviixdLP8AtK6to7uKGWQjy/tGpgtFFL0yztujIxmun0fX/EevaHf3HhjxZNot3obKLnRfEV3bXgXcSHa6nJZxGBnYFZOmcnIwf2rjv+f0vvD6nh/+fa+44vxN+zn4UtdD0+88P+GPEWr3Vxdi2msLjUvs89qDg7nVYpNpxzhtuB1Iqh4i/Yi1cfEW2bR9ZgHhCRZC1vcQu0qbVQgSTBwQXYyAbVwNoJznFe86OmreFdW0WDTJPA+heC7iIPLbWpka6urth84hfckZDSMvzkOx7jJ48/1j4gW39seZ4m1zx3p+o2bXyLo1nozgsNkZP2e5tY9jKmB88jkgsc7ByT+1cd/z+l94fU8P/wA+19wxf2T/AIdx6re2V3a+I7KK0g+0tqE9yBaOgA3ES4wCvcNg4GelT3H7J/wns7W4uZ9Xu4be3gN1NLJqiBY4QMmRjjhcdzxXa3WjyeJY/DMBtdPfW7PEs1p4i1qWW6jhbncY4jtndlzkPwPU9Kt2vwPg0HXLy88O6sfCdrcOfM0zRdLs7eGQMfn8xhF5rMecNvG3sB3P7Vx3/P6X3h9Tw/8Az7X3Hkt1+z38HYNJ0zU4bzXb+w1KUxW1xZyvJG2H2FiwTCqD/ExA4OM1Wk/Z6+HDeNNY8MW2keK7nUNPszdCfzwLac7crGsmCNx7Zr0pta8N2OneKNNu/Dtn4gTwg325Jbm7F+DIWOC8kisYJgBlgfug56cnvNLgv/E/9ha3/bjW1msQmbT9JmSS1uHOcFptm50AP3RgEjJzgUf2rjv+f0vvD6nh/wDn2vuPkHWP2e7jVvh7LqHhzwo1j4wg1BbefQL7XGvXjgbG128mNTG5Gflk2gYJLYrr7j9h8f8ACcaPqEOtXR8KTCNL7Q2VFntz5Dl5PtG47v3vlgIo4BJ3GvqzS9HsNDt3g06yt7CF5GmeO2iWMNIxyzkAcsTySeTWL4ui0+TWfCTXt/LZTpqha0ijBxcy/Zpx5be2wu31QUf2rjv+f0vvD6nhv+fa+48q/wCGK/h7/f1j/wADf/saUfsWfD3Iy+sEf9fv/wBjXvVFH9q47/n9L7w+p4f/AJ9r7jA8H+CtJ+HvheHRNAtfstlbhmRSdzO55LsT1Ynqa5SP4fr8XPhXoVn8R9MV9b8hZrjywI3trgjDGMj7vpjkV6PMGaJwhw5U4PvWB8O9P1zSfA2iWfiW6+3a/Daol7c7t3mSgfM2cDP5V56rVFU9qpPm3v1udPJFx5Ladjyn/hi/4e/3tY/8DB/8RR/wxf8AD3+9rH/gYP8A4iveKK7v7Ux3/P6X3s5/qeH/AOfa+4+LtK/Y51TRdL8Ya1qofWyY5pdC0GBngngcSMEjlkXf5qsgVtyqG5IwamX4D6Ha+H/Cc9x4F8QajrOqn/T9N0fV0Z9PQuEWVlljRinOTkDbg5NfU/w9SCPwzGtvq8muRefPi8lDBifNfKfMScKfl/4DWnfeHNL1PVNP1K60+3n1HT3L2l20Y82EkEHa/UAgnIzg96P7Ux3/AD+l97D6nh/+fa+4+Z7P4A/Ca88aa14YEfiaK/0m3+1TyyybYWjxyUYr83pwMZ71ZX9n34Kr4fj1u71nUtJ0tpxbfaNWujZKsmM7SZo1xx36e9exeLNQvPh74Q1zUdWvYPE2mqxcW2rPBaGOBs74jIQEk4+6GAJ6Fj1rGZdDvPEWk+CtE0yPw7aw2S6vDJp98liYfM3FVjtoiDIMr8/RRnqc0f2pjv8An9L72H1PD/8APtfccnP+yP8AC61jkkm1C/iSNQ7s+pIAqnkMSV4HvWfN+yf4EuNS1HTLCw8QG7trfzEuruYx2bSEfKnmbMt2J2g4FeiR/A+31DxAmueJLuz8ZalCrSQNq+i2f+jy7SFMbxxrIEAJ+R2f1zkZrLcJ4T8DalYLDv1O0lN1qNp4N1qeS7ii6GRBJmTd6xL9Bmj+1Md/z+l97D6nh/8An2vuPF/BX7GOp6fd+JL3xPMNXsY/tH9nafZl7SdmQr5W1y0gMbjfyw3A7evNa2g/s9+Crrwvpmo6x4Y8Tadqt7I6nRbS+FzcxKpwX2tHGzAZGcLxkdua7nwb4znl16zh8Oah4y1uC41G4e6s9S0o2lrbr8u5J7m5hLCRADiNXUnuozWrfXGteItN8Qa3qWvfDrV9HspvN8M6tHG8RsJtww88rvMqyKM42D5iBkAEgH9qY7/n9L72H1PD/wDPtfccqv7L/wAJW8RvoJvdYj1dIftBtpJ2TMeMkqxjCtgEZ2k474q237JvwrVWb+0NQbbC1wQmoqx8tfvOAFyQMjketN8S32oeE10qz13VtS8cXV1D/ac0N1qUdja2WcszNPbwxKYMKSpcADaB/FisNfiP4TuIYY9B+El74Xur9Ptv2jyY9FlvFQ4P2SSFS1ywJ3BQMFfmxgij+1Md/wA/pfew+p4f/n2vuHXf7OXwu/4RxNa0238R6tZtIU3LOLYIF+87m4WMIgGTubA4qr/wy34ev/GttptjoOpS+GJ7M3H/AAkcesLIgYplBs8sKeePkd8gg/KK7OGPUtUvvD+raj4ts9S8L626/adA8Xvb7EZCSq2yC2VmkTjJZxuKgnJ5rcXxJ4z00+K9L1HXvDeq67FCZ9N0fwsggv7S0DDM0iXDTB3AZcLs2kkAD5hg/tTHf8/pfew+p4f/AJ9r7jxr4c/sK3mm69qjeL/Ez61pasq20drALZnBiViUIc7QHJX592QueM5rqLH9mX4Y/wBmC61tda8KyfaDa+RrOowwl5AM/u25WQEdCpOcH0q14X8S22peIXhsbL4h65rc17ay3VrqNvNpscDi2TH2lxGsY+VVIVgoJbAHNeg6X4d0Xxl4s8Q3lk3hbVdGuk+y3e2L7ddyTZwBJvYxoFdThNjZIHTFH9qY7/n9L72H1PD/APPtfceZX37O3wYsNLt9ROs6jd2dxN9mhl0+7N35kg6ooijYkjB+lNuv2b/hTZ+Ml8MSjxAupvbNcxZuUEcqqMlVJGWbHYDjvivUpvhOmj6Lf/2l4p1bU9Mt4WmFjqFzHY2UMiKdrZtYozFGADuVPl74JAqhZfEWCGx8M63F4f07TrzXbgWEmp3RmSLylICET+QGYSDiPftDEjBPWj+1Md/z+l97D6nh/wDn2vuPDX+CXhzVvh5deIfD/gPxJNqEF21udL17WotM/dgEtP5rRuu0EdDj6irMP7LNjrfjjwvNpNo934GvrRZ7y8tr/wA6SNirZ2zbhGyhtoGxXJzngc19Ux+FY5LrVZNUvLjW7bUDj+z9RWOS1hjzkIkWwD0yzbmOBk1tKoVQAMAcACj+1Md/z+l97D6nh/8An2vuPlPwF+w1YaPq2rweKPEGoeIrJoYJLK6h8u0KSGScSxmNQxICC3wxPJL/AEHa/wDDF/w9/vax/wCBg/8AiK9O02PS1+J/iGSG4nbWm0jTluYGA8pIBNe+Sy8Z3FjODz0Va6qj+1Md/wA/pfew+p4f/n2vuPEdL/Y9+Hem6hBdNb6heiJg3kXV1ujfHZgAMj2zXo/j6LXYfDMEfhVUi1BL6xXaAoVbUXMX2gAHgfuPMx+ldPXM/ETR9V17w7Fa6Nf/ANm3o1CxnM5cpmGO6ikmTI/vxq6Y77q5a2JrYhp1puVu7ubU6VOl/DikHxA+G+gfE7RRpniCyF1AjeZFIrFZIXxjcjDocH6HuK8t/wCGL/h7/e1j/wADB/8AEV7xRWlHG4nDx5KVRxXkyZ4elUfNOKbPB/8Ahi/4e/3tY/8AAwf/ABFeSaR+xvq+jx+MtZ1aRtatM3jaFoUIeC5i2zutussgLCRGiCOSFDfNgDjn7TrnPACQR6DOLfVpNaj/ALRvybmUMCrG7lLQ/MScRtmMdsIMYGK2/tTHf8/pfezP6nh/+fa+4+V0+AujWfg/wvqN54G1/UdZ1ST/AEzSdF1ZXls4d2BOUmjjYqONwOCp45roIPgL8JJvHmteEzH4mi1DSrX7bNNJJtgaIBSSjFfmxvUcDGeM19Map4Z0nWr6wvr7Tre5vrB/MtLqSMGWBu+x+qg4GQDg45zXN+Ir68+H/hbXtS1TUIvEWnh96W+pvBZ+VC3DxGYgI45OA4yc7STxR/amO/5/S+9h9Tw//PtfceLp+z38Fv8AhHl1y51nUtM0tpfINzqd2bRVf0JlRcfXofWttv2R/hckbSNqF+saxiYsdSTAQ9GJ29D69K6qzfw9rV5ovhLRdHPhqzlsRrcQ0+9j097fzBkBLeJgX5PzEDaD3yasr8C4tV8RRa54nvbLxrqECs8A1fQ7PFtMPuGJ0jEixrz8jO/XOc80f2pjv+f0vvYfU8P/AM+19x5//wAMoeALrVb7TbOx8RNPb2xlS8uJzHZvIR8iCTZljyCdoOB78Vw/gX9i/ULC+1++8V3H9qabG9x9h03T99tcfJjytkjO6sj8/eG4cda9omRPC3gvVdOii8zV45TdahZeENbna7ihBI8yMS5dWxgeWvHOBnFYXgvxpPNrVrD4b1HxlrcMuo3MlxY6npTWltAo+/HPc3UJdHTH3FdSc5285o/tTHf8/pfew+p4f/n2vuOH0X9n3wXN4RsdX1rwt4n03UbqZ4xolnfC6ugEB3MEeKJmAIwQFyMg9DmuoX9lv4Tt4k/sA3usJrHkfaRavOy5jxksrGPa2M8hSSO+K6u8uta8RWev6nquu/DvWvD9q5fQL1UkiayuAQA08rPKquvzD5F+bjoCRXK+IL/UvDem6NY+INYv/Hkmor/aLxvqcdlbW6knLtcW8MQ+zlSWG/AGwY60f2pjv+f0vvYfU8P/AM+19xOn7JvwrkICalfSM0LXCqmpIxaNergBeVHqPWufuP2d/hfJ4XGuaTZ+J9ZtGlMQEcotiMAlnY3CxhUGPvk49DR/wsLwddWsI0D4SX3hu8vl+1/ao4o9FkvApAb7JNCN102CWAwAww2DnNdfD/aGrXmgazqfi20vvDOtsFvPDni6a38lSpICW6/ZQzyIduSzjdtyecGj+1Md/wA/pfew+p4f/n2vuOKT9l/w1feOLPTrDRNRvPC9zY/ax4gg1cOgLL8gx5QQgn+47kgg4UHNZHgP9hW80vxVf/8ACU+Jn1zRFCmH7PALVm3K5ITDsV2tsHz7twJIwens0PiLxrp83iTSdS1zw3qmtLGZNL0bwuot7+C3HWZ1uHlVnHZdm0/jiuL0LxNZan4jMFnB8Qdc1y5ktGuLTULabTFjwkhVrmRYlRARnCuqA4GBzmj+1Md/z+l97D6nh/8An2vuK1j+zH8M100XOuxa14Uk87yPJ1nUoIt79vLcEq4PbaecGkuv2c/gza6ZBqC6zqF5Z3E/2WKTT7z7X5kucFFESMSwPUDpXp2m+HdE8Z+L9dv7VPC+raRcwiz1FdhvrqWUcGNyzeXGisq/Lsbdt7U5fhDFpmj3iX/ibV9X05Y/Mawu7iKxs1ZF+Qj7LFGYVGCSI8A5JKkgYP7Ux3/P6X3sPqeH/wCfa+48sm/Zx+FNv40g8LSL4hTVLiA3EG+4VIpVCliFZgMnAPABxg5xiuQT4J+Gdd+HupeIvDfgTxNc39rd/Z49L1zWItM86IAF5xM0bqqAH+LGcdR1r2yw+JludN8Na6vh/TdOu9XuBpjaxdGVbdYY22x4uPI3MsmT5W7arE8E559FPhCKbUNUn1O8utZtb4BRp2o7HtIUByFWIKFPIzubcxwOeKP7Ux3/AD+l97D6nh/+fa+4+VT+yzZa14w8HXWh2jX/AII1CyW4v7y11Hznjcg7gswYRlASm3YHZsNwByNjwL+wzY6PrmqxeJvEWoeItOkhjktJoljtDFJ5ku9NqhiRs8nknru+g+rURY1CooVVGAqjAFczZx6WPiVqskc87aydLtVnhbHlLCJZ/LYcZ3FjIDz0Ao/tTHf8/pfew+p4f/n2vuPLv+GL/h7/AHtY/wDAwf8AxFXtD/ZF8AaDrFpqMUepXEtrIsqRz3eULA5BIAB4PvXtVFJ5ljZKzrS+9gsJh07qC+4KKKK806wooooAKKKKACiiigAooooAKKoXGvaZaytFNqNpDIpwySTqpH1BNXJZkgheWR1jiRSzOxwqgDJJPYYoAfRUVpdwX9rDc2s8V1bTIJIpoHDpIpGQysOCCOhFS0AFFFVbbVbK8meG3vLeeZPvRxyqzL25APFAFqiiq8GpWl1eXVpDdQTXVoVW4gjkVpISyhlDqDlcqQRnqDmgCxRRVa81Kz05rZbu7gtWuZRBAJpFQyyEEhEyfmYgHgc8GgCzRVe61K0sZrWG5uoLea7k8m3jlkVWmk2ltiAn5m2qxwOcKT2p9rdQ3sCzW80c8LfdkiYMp7cEUAS0UUUAFFFFABRXG/GLXb7wz8L/ABJqmmzm2v7W0aSGYAEo2Rzg8V8aL8fviy+lnUhrN2dPDlDdfZY/L3DGRnZjPI/OuStiY0ZcrTPj854nwuSV40K1OUm1ze6k9L26tH37WBp7W8njjV449Lkiu1s7Yy6jztmUtLtjHuh3H/gYr4g/4aA+LP2WO5/te++zSMFSb7EmxiegB2YJriPiB408WeONa0+XxRq2qXE+nENBYySvDAr84doFwrthiMsDwcVh9fp9mfP/APEQcuWro1F8o/8AyR94698aNEht76HR9U0dtUtpfKK63eGwgGMh5Nzrl0Qgg7RgkFdwNYF18TdI1LULDWLG61vxDfXkC2um+H4FNnYXhY7ZLiMyqizR8/fd3AAyi5zn5G8N+I/G2gs1jpOmrbyagwlKDR4fMuSvRiTHl8Z4yTjtWtJ+0h8TbGRrSTxBNbtE2xoTbRLsI4xjZxij6/T7MJeIGXxV5Uai+Uf/AJI+vV1jU9St5LG08GI2iadCiXeh3GnGJ55cn5LRpjFBJGpGd/A6FetZFx4G8aahZ3c51LUb1tdBkvdL1jWDbQ6ZggpHAbRPMHAw22YK2WyDuNdhrmuXtp8JL3V4pyuox6K10s2BkSCDdux06818X2f7QnxW1COSS11m8uY4hmR4bNHCD3ITit6uJjRaTT1PfzfifC5POnCtTlJzV1ypfq0fVdjb3WiS6YniiLSNIu5YTYaN9g0+W+NgyfKmbuRepByAwXOTycGp7nwXFqHjXSNN1S78QXup2umyXLeIra8awaZPOT/R3+zCMYyQ4AwcLznmvkQftN/EpeniaYdv9RF/8TXA+IvFGr+LDdrquqXtzbXVyt5NZLcvHavOpyJDChCbs8k7eSMnJ5rn+v0+zPnf+IiZZ/z6qfdH/wCSPuzUG+Ha/EfxDc6fo2iz/Ee9sv7PlutQjNu98hCp9l84qS6gKu5UDAcZwTWH4f8Ah+un+FYbPwpc+KPD154ameYaV4d3WmnX1yzFSim9UiaJcfd37VxkAEjPzBZ/tBeO9PgtYbfWlhjtYhDAEtIR5SDoq/JwPYVc/wCGmfiT/wBDLL/34i/+Jo/tCn2Yf8REyz/n1U+6P/yR9qQ2fjGae12W3h3TtEmXfeaVJE8sq55kjV12xtvy2WKfxHhu/IXvha+mj1jWvFj+LWgv1bTH8LabOt7p0cHzeW8cVvEsuACAX+V/lAPy8V3fgzV7vVfhtpmpXUxkvZtPEzy4AJcpnPHvXxOvxe+Kmpf2pc2fiTUXs7KTE0vmIqR5LbRk45O04A9K6KuJjSUW1e59HmvE1DKoUJzpyl7VNq1tEknrr5n0fHpfw68Laf4L0jxb4X8PjVPD8hfRYdN0+ScWCsQ4niRlMkWSoLfeweprsNW8M21n8RLG6gg1OS5vbe9V9We/lni0htsZzFFKXhiZ8jomDtGQRXxy/wAU/i01lDqj6prhtCQsV41udmW4AV9mOenB5rjbrwv4m0drvUJ9D1LTopJo5rrNi8NvJIG/dtLHtEbEMeNwPJ45rn+vR/lZ8/8A6/YS13h6nfZf5n3jPa6j/aCaboepvqPiXTLdpH13XNEjlWZWA227XESRKjNkE+WpOBkr0zg2fwU1t9PXT5tUXw9YJO1/HH4Wv7iEi4wNqMtwJY2iBA+Xbtz8xXNfMl58UfjFpMUbXuqa/YQsyxo91AYkyegyygCq+sfGT4qeH7pLfUPEup20zxrKqs6EMrDIYEAgg0fXo/ysmXH+Egm5YeoreS/zPsZdc8aaHZ2Wo3Hh55YEfyL3SdOaK6uScZ+1JNuhVgT1Xyw2TkL6Zk/iJ4vEcd1rfhnWtN1bTjvs4fDs89xFf25yWDqEjjYjOTGwYg/dJNaf7PfiDUfFPwh0HU9Wu5L+/mE3mXEuNzYmcDOPYAfhXyDdeOviVrGu+IE0vxLrDW1hLJJL/wATExpFH5m0cswGMkCt6mJVOMZWvc97MOJ6OAw2GxPspSVZXSVrrRPX5M+pbH9oLQ9PsZ7rV9Xs7yOaf/QbfT7eZL0Rkn5JoHAKyr3Vcs2CQtdpqGuQaxe+HJNMsLbXomvQ006uC2nRtBMVnx1UkgR84/1hr4Lv9c+I2teG7i5vbvXL7Q5FEszXDO8DLnAdgeCM8bjxmsaz8EeKvCWuP4ostI1LRtUtbb95qFpG8DpCwxlyuMrgjBPrxWH16P8AKzwFx7Qav9VqWtfp/Vj9N6K/PO+8VfF3TbM3d1qniiC1VVdpnmmCKrY2sTnAByME+tVNa+IXxL8P/Zft/ijWIRdRedAy6iXWRNxXIKsR1Uj8KX15fysmXH1CCblhZq3ofopMu+F1ztypG704rm/hjoL+Fvh/oGkSaoutyWdokLaijbhcED74OTnP1NcN+y/r2o+J/g9FeaxqFxqF013cI1xcyGR9oIwMnsK8z+MHiu4+Ffwf+Hdr8P8AxJdf2P5RhgvlCh7mJUG1m+UfoBXY6yVL2ttD7KpndGjlSzaUHyWTtpfVpenU+rKK/PnUPjH8WdJkt4rzxBqlvLcBWijYJvcMAVwMZ5BBH1qR/i18Yo7pbZ9U15blkMiwtakOUHVgNmce9cn16H8rPkf9f8Hdr6vU08l/mfavh/XLPQ/BMmpXmlt4ftIHnd7SOFnYASsNwRQWYufm4Gfmrl7r49aJcyabdaXqmnzac2PtdmVml1V5CcCCC0RdzPnrydvIKg18EN/aHibxVfapcxS+Ide1E/vpL6L7dI2M/KiSBgigZG1ABjjFd7pvjb4maNYPBYzXmnWukR828VnHD9kTjomwFByOgxR9fh0iwj4gYKWsKFRr0X+Z9Z6N4mjtdRuU0rR9b8UAOdQ1S41qeQT2TjlYoYDGVMgBwIowg9WzknQvJvGPibSVm/sl7U6hK0VvtMNpd6PCTsaZnk84NIy5IVUPHBxXzd8EfjZ458SfFbw3pmp+Jby9sLi4KSwSFdrLsY46e1e5/tWeM9b8EeA7C80LUZtMupL5Y3lhxkrsY45B7gVvHFRlTdRLRHu4TinC4vLq2ZQpyUabs1pd7ba+ZPcfCjxRpkdlb2d5ZeKbfR5Gm0258WX1xNeGQ7SGdolWM7SMruRiOmcHFb+m6dLcXV7oE/iC90zX45vtk+paTo0NgL6M4xgyxypIB91mVt2R1FfHU/xo+LNrp8d9Nrusw2UmAlzJDtjbPTDFcGsy8+PXxA1CzmtLrxPeXNrOhjlglVGR1IwQQVwQRWH1+H8rPn5eIWBjpKhNfd/mfbXhnR9Kt9Y1zXbqxvdFube8u4/Le+uPIulUDfci23eWWcHJZUycCuGk0nwB4u8E3Og+G/C2jppNvff2jquj3Wkytco0Z+WZLaIbzOSF27sMBg46V8WWOs3un6tYapHcNJqOnqI7O5ucTvaqCSqxGTdsAJOAuAO2K7WP9oD4hxbtniq9TcdzbQgyfU/LyaX9oU+zJ/4iJl/SjP8A8l/zPsLS/DmpJr+l+KNCi8RS29+n2e80XXtRWC3t7dQQn7l4ZHUjhgqMhJALk8itWXTfiPa2utPPqeja+zZXTre3tzp0iZx+8aV/PUOvOB5ZUnGe+flH4Y/HTx7rHxC8PWN74nvLi0uLyOOWJ9uHUnkH5a+n/wBpTXNQ8O/CTVL7S72fT7yOSILPbuUcZcA4Irop4mNSEppbH0eA4ow2YYHEY6lTklSTbTtd6X01Od1T4Y21rpek+GbjTdV8TXcs41SG68Ub9T023usMWjcxlPKGRkERqgJBUAnFdHpXibwJq3jDVGi02NNWmtfsuo65DZtFC5xh4JLjAKsNgxvxkY2k44+PpPG3xSjsdPuz4i1xotQ4tFS/ZpJssVG1A248gjpTNXvvilriHR9Tm8QajHfQsxs7lpJUnjX72VOQwGOfTFYfXl/Kz57/AF+ovbCz6duu339D7C0PwzYK2sabpt1feF7Nr6G40/VrG/Ms2qj7OjMQ83mCRE5QLggBBjFN1bQdc+IUV7Pprw6fpF5Ittdad4m0MBrhUAIuEKukn3sbRIBnBIAG0n4i8M+FvF/gnVLFdA0vUtGvriOSK0FhC0TMgIMiR7R0yQSF9s11EPib4uT6pa6cdZ8Qw3l2N1vHc3jw+cM4+QuwDcnHBo+vL+Vlf6+Ur6YSp+H9dT6vtfhbrei6hZeIoJluNe01Fs7XT7TVLi30+WzAUGKSOVZlQnaDmNQSQPm61v8A9peOtNvpYG05Naa8jWaC5QQwWmntli0EzmbzZeAAJEh5JyQozj4Xk+Lnj61vGgm8Wa0kkb7HU3snBBwR1r7j+O2pXek/B/xFeWVzNaXcVujRzwOUdT5ichhyK2pYpVYyklse1lfFVHNMPia9Ok4+xV2nbXST/wDbTmf+E0i8N2OqazH4d1/wzd3zbNTvpLaa50yxuN3+u8mRomlDHgywxkHjceBWjpf7QnhiPWNK0DVNWtm1e6hMkt1bqYbVCCeSJWEioQCQ5UqOhYEjPx2nib4jHR7PVU8TayYLyUwWypqUhllcEAhUDZPJHSm6npvxH1q50y0v59X1Ga6keOzjmvTNukTBdVy5wwyMjgisPry/kZ4EePYy2wc3t177dOvTufemga0uteLNWmsorG60b7DaeRrFnIsv2iXzbkSwl1JBEYEZx2MrV09fmn4X8J+MfBUix+G4bzR/7au/KxpNyI1u7kAnafLbBfDd+Tu962ptV+J9rcWkV1r2t2oupGihmm1NxE8i9U3h9u4emc80fXv7jKfHiWv1Odv68vM/RKuU+JugweI/DEVncaoujxrqWn3H2ljjLRXcMqx9R/rCgT/gdfAmofEDx1ousXOn3fijWoru0naCVP7QlO11Yqwzu9Qa+4fElvo+s/Cnw+PE1/La2bTaPMbgEl2uFubd4FJwc7phGp/3q6aGIVZtWtY+iyHiSGe1KtKNJwcLXu+9/wDI9ForwD9rjx74g8CaR4dl0DVZ9LkuJpllaHHzgKhAOQfU188X3xj+LWmfZRdeINUha6VXgVlTdIrAFSBtzgggj1zUVcXGlJwaehy5pxfhcqxc8JUpTk42u1a2qTXXzP0GrlPD+tWejeEr3ULvTD4ftYL29aS3SJmLf6VKPNCqCxMp/ecDJMlfFD/Fr4xR3cdq+q68tzIhkSFrYh2UdWC7Mke9eaSLf+JfFV/qd3HN4g17UiFmfUEN87bc4VEkDBAMn5UAHNZfX4fys8p+IGCi7SoVL+i/zPvm++PGi3Elhc6Vq2myWG4C7tXWaXVHYttWCG0Rdxkz97qU6MoqLQ/FUJ1C4j07Sdb8TBnGoapJrUsizWLLykUUJjKeYpAxHGEHctnk/JGm+NviZolg1rYzXmm2ujxbjbRWccItI+CSE2AovI6DHNdn8D/jb468SfFrwvpmp+Jby90+4uvLlt5dpV12NweKax0G0uV6m9HjrB1q1Oh7Cac2kr26u3c+kr258Z+ItLN0uktC17IyWkeYbS70uIjBmd5POBkYcbVQ471kTfCrxPpMdrb2d9beK7XS5TPYXHi7ULiW9LsoyWeJVTCtkruRz2yBgCP9qjxjrXgn4f2t7oeoy6bdveJG0sOMlSCccg+lfLl18aPizY2UV5c67rNvaSkCO4lh2xvkZGGK4PFa1cVGlLlaZ6Ob8W4bJ8VLC1aUpNJO6tbX5n2DZWE08l1oF34gu9H8R7/t9zq2jaLFZLdxcZG+aOWOQLuAZgd3T7vNWPC2g6XHrGr61c2N7o95He3kPkSX04guVUgPci33eWWcclgmfeviS6+PnxBvrSa1ufFF5cW0yNHLDKqMjqQQVYFcEEEjB9a4uz1e7stV0/UknaW/08BbKe5xObRQcqsXmZ8sA9AuAO2Kw/tCn2Z4f/ERMv8A+fM//Jf8z7VfRfAHjjwtfaB4a8K6KdNjvVvtW0280mUz5VsiVYIwH88nO0uQwODiuhtfDWorr2leJ/D1r4hkhu1FrPouvakLa1tLZdoH7iSGV1b5QwVChJHzmvj9P2gPiHGXKeKr1C53NtCDcfU/Lya6P4d/Hbx9qvj/AMNWV34ovZ7W41K2hlibbh0aVQyn5ehBNNY+DdrM0peIOAq1I01Rnq0vs9fmfXT2HxEt4ddefU9G1sOf+JZbQW7WDrls75JW89d6jp+7IyORXD6h8L7e20LSfD19peq+JtQvJ11KObxMW1XTbW6H3opPK2CNc5IZY1QH5gAeK6r9o3Wr/wAP/B3Xb/TLyawvYvJ2XFu5R1zMgOCOnBI/Gvjd/HHxRj0/T70+ItcMGoHFptv2Z58MV+VA24/MCOnUVtWxSoy5Wrnt51xTSybErDSoym+VSuuiba/NfifYujeKPBOpeML8jTrePXvsog1TWLe22wK/KtBJcYBByrBd4G7Hy55xX0XwlY/bNU0nSZr/AMM6fcSWs+m6/Y6j50+pN5UhZEefzA6RgH5MEDk4r5B1bUvinrSro+pXHiHUI9TjZRZXLSSrcohyy7TkNt4yO1YHhrwj4u8G6hYtoOk6hpF3KJI7M2MLRHAGXWPaOOOSF/Gsfry/lZ4n+vlL/oEqfh5f5r70fcGraHrnxBjv5dMeHT9JvG+yXdh4n0If6WijHnKVkSQjPIEgAbtgEGqtp8Kda0XUbTxHbzrJr+mhba0s9P1Oe1sXtMJuieOVZ1QkpkmNQf8Aar5Q/wCEq+Lf9p2thLrXiK2vLv8A4947q8eHzucYVnYBjkgcHrWfH8VvH9nri2d14q1qOaG5EMsTXr8MGwynn1BFL6/H+VmcvEDDw1lhprprY+4ZNS8cabqU8LaamsrexGS2lgWGG106Tn91PI0wllXt5iQ57lR0rk5vGEWgQ6rrcfh3XvD2qXT+Tq199mnudMspt4VZzFK0RnQ45lgjPA+Y9Ceq+LOpXen/AAV8SXtrcy215HpTOlxE5V1bA5DDkGviGPxR8RW0W01ZPE+s/ZrqZ7e226nJ5k0ilQyoobJI3r09a3rYlUZWtc9/O+J4ZLWhRdFzvHm0eyvY+xLL9onwpb6noujanq9s+p3sRaa6t0MFrEQwXcRMwkEZJ++AVH8TLkZ7LRdZGteKL2ayisrzR/scIi1izlWUTSiSUSQ71JHyYU4zwXNfBGq6d8R9YuNMttRm1jUJbi4a3s457wzHzwMtGMudrjj5Tg9KzPDPhPxh4GkYeHobvRf7XvPJf+y7oRrc3OCdreW2C/JPPPNYfXv7jPB/18Wt8HP+reXmfpdRX523WqfE/T5rdL3Xdcs0nlaBJ5tScReYvVC4faGH90nNTaF418c6T8RtP0fVPEesLPBqUdtc2738jDIkAZT82COtH15dYsX+vsFJRnhJK7S1ff5H6GUUUV6h+rBRRRQAUUUUAFFFFABRRRQB87/Gj4e+EH+O3w01G48GaLql1cW2vT3KPp0LyXrpbQsoclTvbOcFs4JrmvD/AMUvEuoaD4CvLjxhZ+JIPHGkahJf6BbWlvGukqtm8ytCYx5gSFgIHEhbczA5U8V9ST6baXV5a3c1tFLdWu/yJnQF4t4AfaeoyAAcdcVkaX8PvDGiajfX+n+HtLsb2+DC6uLe0jR5gxywYgcgnkjvQB8e/D/9oLxlpXwV0G2ixo2pJPoHh2LSBBAZrCzmhUrqXmzfI5nxsTcfLQ4BDMGz6jceLvijHpPhbSLjW00W61jxk2kRatLDZXl2+m/YZ5vnWIeSs6yRYDBcEKCU5IPut54G8OahatbXWhabcW7Wi6e0UtqjKbZTuWHBH3AeQvQHkU7SfBegaFY2dnp2i2Fla2cxubeGC3RVilKlTIoA4YqzDPXBIoA4v4Q+KNZ8UfDrXjr18mpajperapo7XywLCbhLeZkSRkTChiuM7QBkHAFeC/By+vPhz+ybdeLdJsPBOn+ILTwt9psdQ0uBZL5nHObsFBuGduRuPNfX9nptpp8MsVrbQ28U0jzSJGgUO7nLsQOpJ5J71z2m/CrwbozXbWHhXR7M3cbQ3HkWUaeajEEq2ByCQDj2oA8B8TeK/il4fk+I0UfxESePwt4ZtfE0LyaJah55pFuGa3fC4EH+itgAeYPMH7w7ecTxZ481vwz44+Nni7RfGVnodxp8Og36eH5beCU37vYwfunL5fDj92nl7SGbJJ4FfWc3h/TLj7Z5un2sn2yBbW53QqfOhAYCN+PmUb24PHzH1rOvPh54W1LWLbVbrw5pdzqdu6vDeS2cbSoyqFUhiM8KqgemB6UAeDt8UviV4k+KXiSDRENrZ6H4htNMGjXM1jHbyWhjiaaSYyf6QXcSsyFCq/u1ADZaucvPGGs+OPFXw41jVPGVu8Vx8Sriwi8JC2gRrZLY3USKrACUyKI977iwPmDAUAV9P33gPw3qfiCDXbvQdNudZhwI7+W1Rplx0+cjPHb0pi/D7wxH4gm11fD2lrrU0izSagLOMTtIowHL4zuA4znNAHzNoPjDWvH3jf4K+INY8ZWtz/afjDUU/wCEWS3gQ2Xk299EqIy4lyir8+8tlm4245b8PfH/AI68ZWPhnRtH8T2vhOB/Bd5r8h0/RrVt9yl68SAKy7ETkFgFyccFSSa+nLX4f+GbHXptct/D2lwazNMLh7+O0jWdpApXfvAzu2kjPvVqy8K6LpskclppNnbPHbtaI0UCqVhLbjGMD7pbnHTPNAHyp4p/aB8c+JP+Ea0/w/rMmia9qnhPSNXtYrK1snglvbqV1l897rO2JUjJUJ0ycknap9Y0zxpr+k/Hj/hHvEOuXUmmalLJBoMdmlnJZ3KxWoeVbjavnxXIZZXOSIyMBQOlHj/9mXSvGusahdW+p/2VZalpsGk3ll/Z1vcCO3i3hFtXkUm2OJG5Tvg4yM16Povw98OeH9RTUbLRrOLVFgW3OoeSpuXQKF+aTG4khRkk5OOaAOhooooA8+/aA/5Iv4u/68W/mK+NNGtrO98G/D+31AgWEviG5ScsePLP2YN+ma+1/jVo97r3wp8T6fp1tJeXtxZskUEYyznIOBXx1cfC3xrdeA9P0R/BmtJe2N3PcxzIi+W3mCMYI6jHl9vWvHxiftLpX0/U/GuMqNWWPUoU3JezXRtNqpe2i7IyvHmseJF8f+K7My3cdit+i3VvHnyYkWUeSMdEAIULjHYVo+NG1GH4+a1rNnpj61/ZeoxXEtvtLhgCgCnvyeB/9am3Hgf4y3loLWbTPEEluDG3lsTgmM5QnnnaRxnpVibwv8b7hi0lr4lZmkSYt5jZLocqxOeSDyD2rh97XR/d6nwLhXlzXp1dZKS929mufTXzkvx01H6hHHfXfhPXNH1m+vfDt9rjf6BqTZmtLv8AdtIN38alWTDDHuM1518QP+R717/r+l/9DNeh6Z8PviVceItMv9f8O+INQgsZRKkaquQdwbAycDJHNZPiP4O+P9c8Q6hqKeDdUiS6uHmEZjBKhmJxmplGUlsznxmHxOIptwozTbWnLL+WzfWyvsr6dND7P8Sf8kJ1H/sXX/8ASevkb4e3x8QeH9B8OwXN94Z8QWpu7rSb+FT9mvw2d6yD1yjJv5GBtIHJr7E13Sby6+Dt7psVtI9/JobW624HzmQwbduPXPFfFtp8PfjBY6WmnW+ka9BYorqkEZIVA5JcLzwDk5x1zXo4q6lF26H6NxXGtDE4acacpR9nZ8qb+0na6220a1Ttuh2reB/DHh3w7ZJqNxu1G+0NdTjuIvNeTz2JIQADy9gA2nPOTnI6Vc8TeCfC9vp/iSOz0qa2u9N0PT9YSY3TsC83kb49p6J++ODktx15xWf/AMK5+Lv9hro39ja7/ZSghbTnywCckYz0J5xUtx4D+Md39r87S/EEv2u3S0uN7E+bCv3Y255Udh0FefbS3J+B8B7OXK4rBy2t8H92S39WnfR6EXxT0CLXPiPaaJoOi2mnXElpZYaOby0cvaxN829ti9TyMEnrkmvMby1ksbqa3lGJYXKMB6g4Neu6R4B+Jq63oV1rXhvX9TstJdGht8jKquMKpbOBwB9BWPr3wV8dalrV7d23g7V4oJ5WkVJkVmGTnBIwKmcXK8kn9xxYzBV8RKVeFGScpPTlasvRK2+l+vZH218O/wDkkOjf9gtf/QK+G9P/AOSa+Of+wnZf+hTV93eB9Lu9P+GWlWFzbvBexaeIngcfMr7MYPvmvkKx+EPje08P+JNHuPCGpTJqVzFPFNAyrsaMyYyCOQd46eleliYyahZdH+R+mcTYavUpYHkpydqc07JuzcEleydtSDxKx8XaXrGsIL/w7r1gLO21rSbjP2e4VSqIY+hQjap8s/hxTPjMYv7b8XjTU1UX+6E6kzFfsptvkwD3z5vl4z/jVS++Efxd1KOOO703WLmONlZVllLAFfunk9R29Klvvhd8Y9Ugmhu7LWriGfb5sckpKybSGG4Z5wQDz3FcLUmmuV/d6/5nw1WGLqQnF4apeVteR6v39eyvzK9t7N21NH4o+L7Pwt4g8YWSC7utQ1vSrKzkjkAW3hHkwP5nUlm+QAcD7zVxPxb/AOPvw7/2BrX/ANBrZ1H4I/E/XL9LrVdD1S+kwqNJI26TYOMAn26VqeOPg/488U3thJbeD9RtoLSyitFWYqztsGNxIwOaJKcr+6/uMsXRx+LVZvDzSb91cktnJyfTzPpz9l3/AJIb4b+k/wD6Pkr5J03/AI8vipnp5J/9Kkr7H/Z98O6j4V+EehaXqtq9nfwCbzIZPvLmZ2H6EV8423wR8fadd+LYX8LNe2etBowyXkaMg80OGHX06e9dtaEnSppLp+h97nWDxNTLctjClJuNOSdot2bppK6SbWpzet2r+KfCmp3d/aX3hrxPo+kW6TuCRaalaYRYwR/A5BjOASG29Ac1Y+J1kZLzURY6Xqq6xHo1hJLerLi3FsLVPNDLtGM5QclskcYNV7j9nn4s3VqttNY3MtsuAsL3qlBjpxuxxUs3wD+L9zDJDLbXkkUi7Hja/BVl9CN3I4rj5Z2a5H9x8VKhjpwlB4Opd215Hrbm12tf3lqtdL7st+P/ABVb+CbyORbe7m1TUvCdvp2yUBbdI5bdFL/3mYLnAwADzniuC+IH/IseAv8AsEN/6VTV1N5+zf8AFLUnja80qa6MahFM12jEKOwy3ArW8VfAT4heILXRLW38LNaQaXaG1TzLyN2fMjuSTkd3/SlKNSV/df3GdfC5liVWvhppNe6uSXWSb6eR7r+yJt/4UfDv+59tus/TIryL9o6TQpfg38NH8MRTQeHmjY2MdwSZFi2DaGJJOfqTXvP7Ovg3Vfh/8KY9L1y1Ftepc3ErQ7w3ysRjkeuK8m+MPhu8+Lfwh+Hl94K8NPb6e0Rnj061UEWsbINq8YGK9OcZfVOW2tkfqeNw1f8A1RVDkfPyQ0s7/Eum5yUMYb4peKZ4c/2tb+EIJdO2/f8AP+w2w+X38syHPUYzXJ/CC81mTWIPtkt02nppGqCyaQnZ/qW8zafrjNbni74Z/EHWvEltrml+Fda0q/jt7eFm3g4aKCOIMhUAjOzPPrVL/hXvxo+3RXn2PXPtUUTQxy723KjfeUc8A9681qXNfle/Y/MZ08THE+0VCpaM3LSMrSTknrdLXT8uxzPw8um8MWt/e6vpF7ceG9Xs5LOe8sjtmhTzEBkRugAfapDcNkiusTR7nQ9a8V282qyazA3hVJrO6mUrIbZxE0SspJ2kKQMZNQn4e/GhpllNprpkWIwg+Y3EZbcVxnpnnHrV3w/8M/H+mw+IptQ8Ka1qOp6rZvaCdnG1dxU7myCxxt7GlGMtFyv7jGhhsRGEaXsKll1cGujutN7t6J7d9Wcp+zr/AMls8J/9fR/9AavpP9tBWb4d6SETzHOpoFTGdx2NxivIvgj8F/Gvhv4reG9S1Lw/eWtjb3O+WaRMKg2sMn8691/aq8H634z8C6faaFYzX93FfrKUgGWVQrDP5kV1UYSWGmmtT6zJ8HiafDONpTpSUm9FZ3ekdlY8F1HTIvileXF9DfahoMl1rGn6d4i0S6PyJI7lEkhJ7KVYbGGVz1xwKGn+EfBd94w0vShYSmb+1bizubdDOiGAJ8hLuc+cCDnHynj5apat8K/i9riKuoaZrN4qv5gEzE4YdD16+9Ty/Dr4zz6lbahJZ6699bZ8m4aRi8eRg4OeOOK5tb3cH9x8xKNac1OeDnJ3TbcG763dltG/W2jbeiuavgfQPD7a54L1W10GJDeXV7ZS2c0skySGNQUk5bO7DYx09vTzKx8KSeMtXnTTl07SpXdlg01ppAW2oXO3fuOMKeWYDJ612C/Cr4uxx2SJpmtItjM1xahXYeTIxyXXB4YnuK2tB+Gvjm0j1WXV/BOsatqWoELJfLcmOTy8HdHnaThuMkYJAx0JpcspWTi/u8jn+qVsQoU54acUnd+41f3Yp7RbV3Fvtrd7HnXwe/5Kl4W/7CEX86+zf2rf+SK6v/11h/8AQxXzb8Mfgb450f4heHr688OXkFrb3kcksrJwqg8k19U/tA+E9U8bfC/UdJ0e3+1X8zxske4LkBgTyfauvDwkqFRNf1Y+z4bweJp5FmFKdKSlJOyaab917LqfJtpqepaLefC+/wBJ07+1r220qeUWW0nzYxLcGQcc/wCr38jkYyK6Hwb4fsbLxZ4c1DSG1FdG1HTdTmj0e8OZrQiF1kCtj5lOBh8duc4qLVPgj8SL/R9At4fDk1lf6RA1vHdw36LlTI75wDkH58dayB+z78Wxe/bBZXX2vbs8/wC3Lv2+md2ce1cyjOLXuvp09P8AI+ZhQx1GcH9VqSS5H8LVmlC/S+vK0909H0Lvwx09v+Fq+AZbDTNU07RpJbhUjv5hIWuFiPnsnC8YMfO0A8ehrD8G+LrW51jwH4X0+C5FnY619sa4vdvmtI5RSoUcIoCjjJySTxWk3wD+LzXEM7Wt400IIjka/BZAeuDu4zVnwh+z/wDEPw34osdZufDMl+1rMtwIxeRoWcMCCTk8UlGpouV/d6f5GVPD5jHkpxw1SK5rt8j29zSyWmsL6eS9fIvEH/I0ah/19P8A+hGvvz9ob/kiPif/AK9k/wDRiV8n337NfxIv9Unuz4f2edKZCouI+MnOOtfYnxi8N6h4t+F+uaNpkIn1C6gVIo2dUBIdSeSQBwDXXhoSUKl1uv8AM+s4XwGLo4LM41aMoucfdTi1fSe11ruj400W61Wy8OfDO50KBbrWIdUuZLSFwCHkDIQvJHXHrXU+EdFsJPiB8Ptd0y0vtG/tHVJ/tGg3Ts6wyoo3yxZAOwggfMMjbjJ7Nuf2f/iXdeEdM0U+F4o5tPmkmgvY9UhVvnKkgrv/ANnrmsdv2Zfiy90ty1hI1yowsx1OIuB7N5ma5uSomvcfTp2sfN08JmNCUH9TqStyP4ZKzioXt7t7+60+j07EPgfS3Pjr4d3Wn6HqGkad/bcFvMt5MZPPuRNvLqNq9IyoztGMVj6t4uhjuI/CtjZzwW48Qfbria7cNI0ocoAqgAIAC3qTn2roJP2afi3NJHJJZSySRnKM2qREr9D5nFP0n9mP4kWOsQX934dW/wDLkEpRtThQuwOQS28nrUezq2sov7jm+pZpyKlTwlSN3q+R7WSeijpt0POfiZ/yU7xT/wBhe6/9HNX3Vr11oVp8I/DkniO3lutN8zR0WOHO77Q1xbi3bgjgTGMn2B618v8AiL9mv4m+IvEupavJ4eht2vruS6aJb+AhC7lioO/nGa+qPFeoW/gv4Y6IdY0iPVRDcaTZPZuVIWZ7mCFZMkEZjdlcf7nHrXoYOEozk5Kx+g8FYLFYbGYupXpSgpWtzRavq+6PIf25f+QD4V/6+Lj/ANBSuBt4wfHWpzwjOq23gmGawx99ZBZR5ZP9sLuIxz6V65+1x4D1/wAdaR4di0LTJtSe3mmaUQjOwFUxn64P5V4r4q+GfxA1jWNM1bTPCutaXqNpZ29qZFcdYoljDIVAIztPX1rHERl7ZtK+x4vEVLERzevVhRlJXptWi3e0bOzStdX+8xfgzeazN4n0n7XJdNpq2OpiyaQnZk27+YEP1xn3rJ+H92/hmPVNQ1TR7y78OaraS2Nxe2Z2ywJ5ke6RG5AwxRTng7iM810f/Cu/jP8Abre8+x659qt42iim3ndGjfeUc8A9xSn4f/GkzLIbXXt6xtCD5jYCMQxXGcYJAOPUCuTlkkvdenl6Hx9PD4mEYL2NW8W2nyN7qK1T6e69O1tSb+x7jQ/EnjC3m1aTWoD4Pke0uplKyG3ZYjGrKehC4GPbvXN/s5/8lw8Hf9fv/sjV1egfDP4g6cviK41HwrrWp6nquny2AndxtUPt+Zsgk42jgHpVv4HfBbxr4c+LXhfU9S8P3dpY213vmnkTCouxuTTUJOcXyvf9Tro4PE1MZhZxoTSU7u8ZaJzT1bXbzfqezftieZ/wrzS/Jj86X+1ItkeM7mwcDHfJrxq60O2+LGrpfRX+oaJb6p4htrLXtDuTuEFywfa0LHqABIAGAK5A5r3n9qTwnrfjDwHZ2ug2U19ex3yTbIB8ygA8/nivmTVPhZ8X9beN7/Tdau2jfzEMrsdr/wB7r1966sUpe1futrQ+q4ohWWa1H7CVSDUdouzsn9pbbtNapp69GW9F8K+C9W8UaTYiwkd2lvYby3iNxHHtRN0TK7nPmDBz26fLV7wPoWgNr3gXVbfQYAurWOrJNYzSSTReZBHKFdctnJAHsDyADjGbJ8OfjPNqkWpPZ669/ErJHcNIxdQwwwBzxkdarx/Cn4uwjThHpmtRjTnaSz2uw+zsTklOflJPXFcyTTvyP7vQ+TpxrU5qX1KWjT/h22cPXpGXl7xw1v4R1rxMzXuleH51tZJfLSO1SR41bbu2gsWbOATyTVj4WAr8T/CQIwf7Xtf/AEctepeG/BfxK0MwNc+DtR1GX+0TqFxNI5DzOIiic88ruZgTnk9Ky/APwN8c6b8RPD2oXHhm9tbKDVLeeRnGRHGJVJJPsB1qFTleLSf3HBTyuvGrRnTozvzK94NW1XlbufTn7Un/ACQ3xF/2w/8AR8dfLVpqOp6P/wAKnv8AR7BdU1C1sbmaOzZSwlC3MxYYHPTPSvrv49+FtS8afCrWtH0iD7TqFx5XlxbgudsqMeT7A18x6l8EfiTe6F4dtIfDc1lf6LE8MV5DfoNytK8mcA5By+OD2rvxUZOpeKey/M/RuLMNip5n7WjSlJezjZxi3qqnNa6TV7K+pY8C6DY2/wARPAOqaMdSg0nUm1GRdHv23SWkiwES7Wx8yt8uGxn5cHOKxPhnp5/4TjwPLp2l6rp+js8kbpeS+aXugGMroMLx5ZiH3QOPxqP/AIZ8+Lf21bz7Fdfa1XYJ/ty7wvoDuyBTz8A/i+00Mptrwyw58tzfjKZ64O7jNcijNW9x6eXp/kfHRpY2Lg1gqi5ZKWkX/cv00vyPRaa22RkWfi61uta8GeGbCC4Fpp+v/amnvNokeSSaMEBRkKoCjucmuS8T/wDJStX/AOwvN/6OavR/Df7O/wAQ9F8R2WrXXhuS9NrOlyIxeRqXdWDDLEnjI5pLz9nP4j6p4on1STw8IRc3rXLJ9pQhN0m4jOe2azdOo1rF/cedVy/M61BKeHnzcy05JaJKy6H1X8Zf+SD+KP8AsEH+S18d6bLqUHg34YS6PEs+rRa7fSWkT42vKrWhQHJAwSB3r7W+JHh2/wDEfwn1zRLGES6jdacbeKIuFy+BxkkAdO5r5Xm/Z/8AiXP4P0zQ28LxLJptzPc297HqkKsDL5e4Fd/OPKGDkdTXoYqEpTuk9v1P0ji3B4uti4ToUpyXs0rxi3qqila6Ts7LqO8NaRZ3nj7wF4isbO+0GfUPEoS70G5ZmRJlKs00WQG2fNj5gcYIz2rndH0t38ZeELnT9D1HSrFfEMcFy11OZBc3HnF1ZRtX7sfH3ePXmrEn7MvxYmuEuH0+R50GFlbU4i6j0B8zIp8n7NPxcmkjeSymd4zujZtUiJQ+oPmcGuPkqfyP7vQ+JeGzFpf7DU0d/gevw/3dL8vSy1sYXjDxdDaX2reFrGynhjm8QNeXc124Ls6yFVVVAAUDJ55JyPSk8Tf8nGX3/Yw/+1hW9Yfsv/EiHVIry88PLfBX3sranCrOR0y28nrW9/wz/wDEjV/icvia98PwWiT6mt7Mkd9CwjBkDED58nFL2dV7xe/Yx/s7NKy9/DTvzxaXJLSKv5W6/mfaNFFFfSH9NhRRRQAUUUUAFFFFABRRRQAUUUUAFFFFABRRRQAUUUUAFFFFABRRRQAUUUUAFFFFABRWH438VQ+B/CWq69cQSXUNhAZmhiIDPjsCeO9eCf8ADcmg/wDQsal/3/jrCpXp03abseFj88y7K6ipYyrySautHt8kz6TuLiKzt5J7iWOCCJS8ksrBURQMkkngADua89+Gvx78HfFLXvEWkaHruk3l5pN+1mkVrqMUz3KCKOQzIqnOzMhXIyMoea8u/wCG5NB/6FjUv+/8dYPhr9q7wd4Tvtdu7DwnqiTazfHULndPDjzDFHHhcAYXbEvHPOaz+t0f5vzPM/1uyP8A6CV90v8AI+taK+aP+G5NB/6FjUv+/wDHR/w3HoP/AELGpf8Af+Oj63R/m/MP9bsj/wCglfdL/I+l6Kz4dYSbw+mreWyxtai68vPIGzdj614F/wANteGf+gJqH/fS1rOtCnbmdrnr43OcBlvI8XVUebVb6/cvM+ja811j9oTwRofxSsfA134j0aHU7i0nuJPM1OFGgkjeFVgdC2Q7+aSAcH5Dwa88/wCG2vDP/QE1D/vpawbr9qTwLeeNLDxRL4f1E6rZWc9jE26Pb5crxO5IxknMKYOeOfWs/rVH+Y8v/WzJP+glfc/8j6ror5y/4ba8M/8AQE1D/vpaP+G2vDP/AEBNQ/76Wj61R/mD/WzJP+glfc/8j6Norn/B/jK18ZeDbHxHbxSQWt1AZxG/LKBnI+vFeWzftieAoJnjaLVtyMVOLZOoOP79ayrU4pOT3PVr5xgMLCnUr1lGM1eN9LrT/NHuVeZ6T+0N4I1r4oX3gi28R6NLqFvawTRtHqcLGaWSSVDAqA5MimMZUZPzjgVy3/DZXgH/AJ56v/4DJ/8AHKwLX9pL4WWfjS/8Ux22sDVL2zhspT9li2eXE8jqQN2d2ZWyc+lR9Yo/zI4v9Zcn/wCgqH3n0pRXhX/DZXgH/nlq/wD4DJ/8co/4bK8A/wDPLV//AAGT/wCOUfWKP8yD/WXJ/wDoKh957rRWF4I8ZWHj/wAM2evaYJhY3e7yxOoV/lcqcgE91PevF9R/bO8OabqFzaPouoM8EjRsQy8kHFVKtTgk5PRnXis6y/BUqdbEVUo1NYvXVaPS3qj6FryLVv2nvBGi/GC08A3OsWUd3LazPLM0xBiuUmhiS2KbfvP5rHOeNmMc1x//AA214Z/6Amof99LWNN+1d4Jn8YWnid9B1T+1rWwm02NxMNnkyyRSOCvQndDHz7H1rP61R/mPM/1syT/oJX3P/I+pqK+cv+G2vDP/AEBNQ/76Wj/htrwz/wBATUP++lo+tUf5g/1syT/oJX3P/I+ipmKwuwG4hSQPWuc+GeuXfibwBoOq3+nLpF5d2iSy2KoUEDEcptPIx6Gq/wANfiJa/FDweuvadby20TySQrFNgtuTiuR1b4w6j8L/AIS+HNc8aaVPca7dRxxXltblIykxGW46Y47Vt7SPJz30PclmGFjhPrzn+6te+u35nrlcz8RfiJoXwv8AC13rviDUrTTLOFG2NeTrCssgUlYwx7tjFeHf8NyaD/0LGpf9/wCOq2pftqeHNW027sZ/C+qGC6heCTbcRg7WUqcH6GsPrdH+b8zwP9bsj/6CV90v8j3D4U/FTQPjB4N0/wAQeH9Rs7+KeCJ7iKzuFm+yyvGrtC5H8S7sHIHTpXYV8taD+2V4Y8N6FpukWfhfVRZ6faxWkAe4jZvLjQIuT3OFHNXv+G5NB/6FjUv+/wDHR9bo/wA35h/rdkf/AEEr7pf5H0vRXz74T/bE0TxV4m0rRovDuoQSahcx2qyvNGQhdgoJHoM16H8Zviunwh8N22rSae2oia4Fv5ayBMZUnOce1aKvTlFzT0R6NLPstr4api6VW9On8Ts9Pwud/UF9fW+l2U95dzx21rbxtLLNKwVERRksSegAFfL/APw3Lbf9CrL/AOBQ/wAKP+G5bb/oVZf/AAKH+FZfXKH835nk/wCuWR/8/wD/AMll/ker/Cr9orwV8Xtd1/SNC17S7u/0y9kt4oLW9WZ7mFY4n+0Kox8u6UrxnlDzXqFfIPh/9rzSPDU2sS2XhO5V9Wv21G58y9DZmaOOM4+XgbYl4+ta/wDw3Lbf9CrL/wCBQ/wo+uUP5vzD/XLI/wDn/wD+Sy/yPqeivm/wh+2Nb+KvFGl6OPDctub6dYBL9pB25OM4xXq/xi+JyfCbwkNbexbUAbhIPJVwn3s85/CtI16couaeiPVw+f5disPUxdGreFP4nZ6fhf7juaoa9r2m+F9HutV1e+t9N0y1TzJ7u6kEccS+rMeAK+Z/+G5bb/oVZf8AwKH+FH/Dctt/0Ksv/gUP8Kz+uUP5vzPK/wBcsj/5/wD/AJLL/I9f+Dfx68KfGyxv5NA1bT7q7s7q5gltLW7WZ1jjuHiSYgAELIEDjjow5PWvSK+QfC/7XmkeENNlsdO8J3KwS3dzesJL0MfMnmeaTnb03yNgdhWv/wANy23/AEKsv/gUP8KPrlD+b8w/1yyP/n//AOSy/wAj6nor5l0P9tO31nWtP08eGJYjd3EcG/7SDt3MFzjHvX0L4u10eFfC+s6wYftA06zmujEDjfsQttz2zitoVoVE3F7Hs4HOsBmVOpVwtTmjDfRq3XqvI1ar6jqEGk6fdXt0xS2tommlZUZyEUEkhVBJ4B4AJr5g/wCG5bb/AKFWX/wKH+FH/Dctt/0Ksv8A4FD/AArH65Q/m/M8b/XLI/8An/8A+Sy/yPT/AIQftFeHfi94i8SaNp8kgu9Lv5beFTZ3MYmgSOJvMZpI1VWzIRsJz8ucV6xXyHoX7XmieG5tWl07wdNBJql42oXZN8W8ydkRC3I4+WNRgccVq/8ADctt/wBCrL/4FD/Cj65Q/m/MP9csj/5//wDksv8AI+p65n4ia5qnh3w7Fd6Rpv8Aat42oWNubfymkxFLdRRyyYXn5I3d89BtyeAa+fv+G5bf/oVZf/Aof4V7bqfiLxD4m+HOkax4VtxFqd7cafMYZDGdts1zF9p5fC5EHm+/pzitadenVdoO56+XZ7l+bTlTwdTmcVd6NafNI7qivM/jd8aI/g3Y6VcSaW2pi+kkTasoTZtCn05+9+leSf8ADctt/wBCrL/4FD/CpniKVOXLJ6nPjeJcqy6vLDYmryzVrq0nur9EfQHxI+I2hfCzwpd694g1Kz0y0iVhE15OsKzShGZYgx/ibYcfSqXwj+LGg/GXwPp3iPQb+zvI54IXuYbS4Wf7JM8au0LsP4l3YOQPpXgWqftqWGsaZeWFx4UnNvdQvBJtuwDtZSpwdvBwag8N/tjaZ4V8O6Xolh4UuBY6baxWcAkvAzeXGgRcnbycKOaj65Q/m/M4P9csj/5//wDksv8AI+uKK+WP+G5bb/oVZf8AwKH+FdF8O/2toPH3jfR/Dw8PS2h1CbyRObgNs+UnOMc9KaxdFuyl+ZrS4uyWtUjSp17yk0l7st38j6ForgvjJ8VE+EfhmHV5NPbURJOsHlLIExkE5z+FeK/8Ny23/Qqy/wDgUP8ACrniKdN8snqdmO4jyzLazw+Kq8s97Wk9/RH0/qGoW2k2FzfXk8drZ20TTTTysFSNFBLMxPQAAkn2rzX4UftGeDPi94g8QaNoet6XdX+l3slvFBa3yTPdQJHGxuFUD7mZCvGRleteVf8ADctt/wBCrL/4FD/CsXw7+1xo3he51qex8J3Qk1e+bUbrzL0MDMyIh2/LwMRrx9az+uUP5vzPO/1yyP8A5/8A/ksv8j7Bor5Y/wCG5bb/AKFWX/wKH+Fanhb9sq38S+JtJ0geGpYDf3cVqJftIOze4XOMds0LF0XopfmXDjDJKklCNfV/3Zf5H0nRXK/E/wAdL8N/BOo+IXtGvVtPL/cK20tudU6/8CzXgX/Dctt/0Ksv/gUP8K0qV6dJ8s3qejmHEGW5XVVDGVeWTV7Wb026J9j6Z1zXNP8ADWk3WqatewadptqhknurmQJHEo6szHgCuE+Dnx98JfGu31L+wNX0+7vLG7uYJLS1u1mfyorh4kmIABCyBQw46MOT1ryH/huW2/6FWX/wKH+FZPhn9rzSPCNhcWen+E7lYZ7y5vnEl6GPmzzPNJzt6bnbA7Cs/rlD+b8zy/8AXLI/+f8A/wCSy/yPr2ivlj/huW2/6FWX/wACh/hUtr+29bXFzDF/wi0y+Y6rn7UOMnHpR9co/wA35j/1yyP/AJ//APksv8j6iorO1DWBp/h261Voy6wWrXJjB5O1C2M/hXzSP25rfA/4pWX/AMCh/hWtStTpWU3uetmGeZflTjHGVOVy1Wjf5Jn1Hc3CWdtNPKSIokaRyqliFAyeByeB0FeVfCv9o7wz8VvFviHQdNmlNxp135NuTZXMfnR+THIXYyRqEOXI2k5O3PevMf8AhuW2/wChVl/8Ch/hWXpH7X+i6DfateWPg6aG41W4F3eMb0t5kojWMNgjj5UUYHHFZfXKH835nkf65ZH/AM//APyWX+R9d0V8sf8ADctt/wBCrL/4FD/Cr2hftpW+ta1YaePDEsRup0hD/aQdu5gM9Pej63R/m/MqPGGSSaiq+r/uy/yPpmiiiuw+zCiiigAooooAKKKKACiiigDyjUv2jtA0fxdqej3uj67Dp+m6nBo914g+yI2nxXUyxNGjMHLgEzRruKbQzAZ716RF4g0ubWptIj1Kzk1aBQ8tgs6GeNT0LR53AfUV4n4d+AcmvfEbx5q3iqfVv7EuPE0Gq2Gi/aUWwu/KtbYJM6KNzYljJ2swG6NTjiuK8EfCfxHDdeCdLvPBc1l4p0PxNdatrXjhhCiajAWnLFJVYyStOkqKUYDbtOfurQB9IXvjbTYoJXsJU1uSC9isbiHTriF3t5HcLiTLgLjOSM7sdATxWTZfGDw1rVvqj6Jerr02makul3ltYyx+bDKXRCxDuvyLvBLA8gHbkjFeDeHfhj4rsfDVx4f0nwtfWvh6z1nQ7uxk1e2trbVNsd+stxHI8TkTxRINwlb5zlh83U3rj4T6vY2HxA0fTfBD217e+NrTXLfVLWKCOG8sTc2sjKrhg2YwkpKMB0OM5oA+km8QaUut/wBjHU7P+1/L84WHnr55j/v+Xndt98U238R6Td6l/Z8GqWc1/wCWZfssdwjS7A20ttBzgMMZx14r5lT4VeIZtcj06XwPMfEa+P8A/hIX8cP5HlnTxd+cCJ93mlvI/wBH8krjt92tHwV8DdR8O2fgPVo/C0Vl4ptfHGo3+p38YjFyNPma/AZ5AcsjI9sNgJ428cHAB674/wDi5B4F8SaPoMXh3XPEuranbXF3FbaLDE5SKExq7OZJEA5lQDBNdMvirTIlslvbuDS7y68tUsryeNJhI4JWMruOX4PAznacZrxv46eDb3Vfi74I106B4k1nR7HS9Rtp38M3v2eaKaSS2aMP+9jLKRG/GSMiua+KPwJm+Ia/F3U5fB/9oXuqeGNOtPD8l+I2uRMiXBdEYsTHIrmHLZHOME0Ae3+NvijpHhDwne69FLFrEFneQWU0dlOjFJJJ44drEE4KmQEg88V0Nt4i0i+sLm+tdVsbqwtmdZruG4R4oyn3wzg4GO+TxXzJ8TvgPqzab8RtO8NeDIZdH1bSNBjh0uzMNvDfTW90zXCEZADeVgF26gjk4rM8W/CDxT4oTxxqnh3wXc+D9CvNV8P3C+HVitEuL2KyaVrtltstAS4khULJxJ9n+btQB9Vf8JVov9hDW/7YsP7G27/7R+0p9n25xnzM7cZ469a5vwh8XdE8UaRr2qTTQ6Pp+k6zcaM11fXCJFK8ThQ6uTjDkjHNeHyfCW607T/D2rWvhfX/ABFoC+LpdZ1jwtqlhYwTSb7EwJPFaxlIdqS7JNp+Ync2M1g+F/g/r/h2bw/qWpfDS4uPC1r4r17UZPB8C2tw0MV3Gos5xCX8phHh1IBynmHA4oA+jPBPxZsfG0NtNBYXNtBNPqMBuJJIjFEbOYxOWO7PzEErhSMA5I4z1Vh4g0vVZbmOy1KzvJLXHnpbzo5iyMjeAflyOee1fLvgL4N+LtF8P+GoP+EUk0OO10/xbGdPjnidbQ3j7rSLKtg7hwMcDHOKx/HPwmuPhh8MRf2Xh6PQbO2+GE+kapNabIi18z2uxJSpzI+RN8zZHLZYAmgD6utfHXhu+tby6tvEGlXFtZrvuZor2JkgXOMuwbCjIPWtazvLfULSG6tZ47m1mQSRTQuHSRT0ZWHBB9RXx54U8G2GuaZ430fU9F1KHxo8ujanPbeF9IsYo4EiDJayRwieWKQBonMiSP8AMMYXAGPpj4Px65D8NtCi8SaXa6NrMcJWexsolijjw7bf3aEqhK7SVUkBiQCaAM/9oD/ki/i7/rxb+Yr85a/Rr9oD/ki/i7/rxb+Yr85a8HH/AMReh/P/AIif8jGj/g/9uZ1Ph7wHJr3h261t9X07S7C1u4rOZr1pQytIrFWwiNkfKc45HXGMmszxZ4ZvfBviK+0XUVUXlm+x/LbKsCAVYH0III9jXZeFL7Sbf4P+I7fUx9paTVrOVLOG9SCd1VJQzgEMSBvA4X+LOeKtQ+Lp/G1v8QNQvW06zfULSPyLd5IkbekkIVELHccRIe+Dg9zXHyx5V3/4c+I+q4adCmk7VGr9Xtz3v06Rtbu/I8tpV+8KSlX7wrE8E/TSy/5JrD/2CB/6Ir8y6/TSy/5JrD/2CB/6Ir8y69XHfYP13xA2wX+GX/tpveF/Bl94uh1OSzltYl06D7TcG6mEYWLcFLZPYFhn61F4r8J3/g7UY7O+8lzLEs8M1vIJI5Y2GVZWHUGur+Eps10nx2b9its+htFiOREkZjPEwCBj8xwrHHsa2/Dfih/FHiK2uLaSz0zSdFsoIEtb66gSa7WNsiMPJgDexJbHAXI+bAB4FFNLuz4Cng6FShT1anP57Np6drLv8jx+irmsMW1a9YrChM7nbbMGiHzHhCOq+ntVOsTwpLlbR+hXwK/5IDoH/YPf+bV+f2pf8hC6/wCurfzNfoD8Cv8AkgOgf9g9/wCbV+f2pf8AIQuv+urfzNeliv4dP0/yP1DjD/kX5Z/17/SBo+G/COp+LWvE0yKOZ7SE3EqvKqYQEAkbiM4zk+1M8TeFdR8JXkNtqMSI08K3EMkMiyRyxtnDK6kgjII47g12fwVto7lvFwnE/wBmGhz+Y1ugd1HHIBIB57ZHerej69F4m1jQbKx0+4utH0ayis5ZZLSK4uCpmLu4jZtqgs+3gttXmuNRXKu7PiqWCo1MPCTbU5bfJ9rdtb36HlVFa/i6GG28VaxDbi2EEd5MsYs2LQhQ5xsJ5K46H0rIrJ6aHjTjyScex+g37Lv/ACQ3w39J/wD0fJXwd4s/5GjV/wDr7l/9DNfeP7Lv/JDfDf0n/wDR8lfB3iz/AJGjV/8Ar7l/9DNelif4NL0/RH6jxV/yJsr/AMH/ALbAl8J+E73xlqb2GntCLlYJLgLPIEDKilmwTxnAJ59Kk8TeDb7wrBp1xcSW1zZ6hEZba6s5hLHIAdrDI6EEYINdF8EDbr42le7IFqNNvVk/erGTut3UAM3GSSAPc1b0fxfoeoXnhnS7mJ7fTNHDGA3gWQXFw8gO6UDAVAO3I+Xk8muFRi467/8ADHw1HC4ephYym7Tk2lrpo49PRy67pfPzSiuk+I6WSePPEH9nXEd1ZtfTNHJCFEZBkYjZtJBXngjqK5us3o7Hk1afsqkqd72bR92/shhm+CEAQ4Y3tzg++RXDftHafrelfs++ErPxJc/bdehkjS9uN+/zJQp3Hd3ruP2Q13/A+Fc7c3t0M+nIrgv2hNCk8Mfs7eDtJl1NNZks3ihbUI23LPhD84OTnP1r3X/ufyP6Dr/8kcv+vcf0PlCu80L4RXmvWOhXEWtaTbvrZkjsre4klV3lQ4MZxGQCeMEnHIGc1wdeuweLdL8L+B/h/f8A2ePUtX024uriKOO+VRExdTH5sYUtjI3DleleLBRd+b+tT8Ly+nQqSm8T8MUn1/mint5Nnks0L28zxSKUkjYqyt1BBwRTK7/Ur5tS+FERnuLJrtdVe4MavEs5VlwWKj5jlieufyrgKlqxx16SpNWd00n952Hwd/5Kv4P/AOwtbf8Ao1a+p/21v+Sa6Z/2EV/9Aevlj4O/8lX8H/8AYWtv/Rq19T/trf8AJNdM/wCwkv8A6A9d9H/d6h+i5H/yTeY/L9D4or0DRfhI+t2egSR67Yw3OuQyvY2sqSbnkjYqYyQpC5IwCTgkivP816x/wnGn+FvCXgC6tIbTUdc0yK6ZT9ob/RpHmZkLoOuAQw5HI5z0rip8uvN/Wp8Pl8MPKU5Yn4Uk+v8ANFO1utm7Hls1rNbs4kjZdjmNiRxuHUZ9ahr0e41J0+F88b+IrS/uL9YzNZSzMZLZEmLKkceMbixLl88Djua84zUtWscmIoqjy8rvdJ+l+mjZ2Hwf/wCSpeFv+whF/OvrX9sr/kkaf9hGH+TV8lfB8/8AF0vC3/YQi/nX1p+2X/ySNP8AsIw/yavQof7vUP0jh7/kncx/rofDdd/4b+EreItN0O5GvWFlJrM0ltawXCSbjMuPkJCkAHI+Y8c1wGa9Y0/xtpvhf4f+DriOG11LWtOv7i6jha4YGEnbs8xAPmXK5xkdPeuGHK2+b+tT4HL4UJTm8R8KSfX+aKe2t7Nnl91Yz2U00csbK0Mhic4OAwOCM1Xr0ex8Sq3gHXYdR1hJbi+tx9njWZnZW88O0RhI2rk5fzAcjp3IrzjNTJJWsc2IowpcrhK/Mr+muxueBv8AkdvD3/YRt/8A0atfop8Xv+SW+Mv+wPef+iXr86vAx/4rbw9/2Ebf/wBGrX6K/F7/AJJZ4z/7A95/6JevUwXwTP1rgf8A5F2P9P8A22R+Z9dP4X8FJ4i0LWNWl1a20y10t4BcG4R2O2VioKhQckEdK5jNeh+AdW0nT/h344t9SaGaS6+xiCyacxSTbJWZipAP3QQffNeZGzep+U4KnTqVrVdrSet91Ftba72Oa8Z+ELrwX4gl0q4ljumEcc0U8GdssboHRwCARlWBwRkVg1694L+I2kat4yu9S10/2ZNNZtZRSIivFBbLatGsYLNkOcIN3P4ZJrySXy/Nfyt3l7jt343Y7Zx3oklumXi6NGK9rQleMnKy6pK1r9dbjK/QjQ9F1nXvgf4TtdBv/wCzb9f7NnafzWjzDHcRSTplQT88SyJjod2DwTX575r7/sdAt/E3wH8JWdzq0WjRLJpNyLqYgKWiuoZVj5I5kZBGOerjg9K9HL/jl6H6R4df77X/AMK/M89/bk/5AXhT/r4n/wDQUr5Cr69/bl/5AXhT/r4n/wDQUr5CzWGM/jM+e42/5Hlb0j/6Sj0LR/hDJrVnokkOu2Md3rNrLcWVnIkgeRo3ZWjJCkKcoQCTzXASRtEzKykFSVP1HUV6tN48sfC3hTwFcWMVrqGuafZXabxcE/ZXknkZd6DqwVww5wD1z0rnvEmpJqPw08NQyala3F7a3V2z2yMBJGkgi2EgADko3v69awko20/rb/gnh4rD4b2f7p2lGKb63uoaavdNy2vorHD16P8As5/8lw8Hf9fv/sjV5xmvR/2cz/xfDwd/1+/+yNU0/jj6o5sq/wCRhh/8cf8A0pH0r+2h/wAkvs/+wgn/AKC1fEdfbn7aP/JL7P8A7CCf+gtXxHmuvG/xmfXcd/8AI5l/hj+R6DoPwhfXrLQZU17T7W41vzEsradZAzTIcbCQpC54+YnGT9a4Oa1mty4kjZdjmNiRwGHUfWvVYfHOm+F/Bfga7tobTU9b0yW4mRDcN/o7lhs8xB94fxDkc9ay/wC1JI/hneK/iOzvLi+RVk0+adi9vGs24Kke3G9mJctnhcjkscczjHp/WiPnK2GwsoJU3aSjzPr9mLtq9+ZtabdtDzmup+Ff/JTvCX/YWtP/AEctctmup+FZ/wCLneEv+wtaf+jlqIfEjy8H/vNP/EvzPtv9qT/khviL/th/6Pjr8+6/QT9qX/khviL/ALYf+j46/PvNd2P/AIq9D9D8Qv8Akaw/69r/ANKkdp4d+HUeueHbLWLjXrLS7a51FtMAuY5CyyhFcH5VPykMOe1c9r/h298N6zqOmXkWLiwna3nKcqrA4613Oh+JNH0j4R2cN3Dbanfw+IWvUsTcGORUECKGYAcqWUgjg8dqn0bxw+pWPia/1rWIVk1WK8YQrK26KaQAn9xja/mEAZz8uM9RzycsbJHyMsNhZwhBStJpNvfpre7tva1vO9unllWtL/5CVp/12T/0IVVzVnTCP7StP+uyf+hCsTwFuj9LvEv/ACTnVf8AsFS/+iTX5kL90V+m/iX/AJJzqv8A2Cpf/RJr8x1PyivVx/xRP1zxD/jYX/C/zR0/hXwWvibR9a1KTVLfTLbSVhedrhHbKSSbAVCgkkEjj3qv4w8I3Hg/WlsJZorxJYIru3ubfOyaGRA6OAQCMg9CO1dF8PdV0vT/AAN48g1J4ZHvLa1SC1efypJitwHbYcHkAZ/TvW94H+Imkal40+36z/xKytmunWpVBJDbWqW7RhMs2dx+X5ue/TORwKMWkr6v/gnwVPDYWrSowclGc7Xd3p70k79NlG2z+R5DW94D/wCR30D/AK/4P/RgrGuvJ+1TeQXMG9vL8zG7bnjOOM49K2PAZ/4rfQP+v+D/ANGCso7o8ehpWh6r8z9PqKKK+vP7NCiiigAooooAKKKKACiiigAooooAKKKKACiiigAooooAKKKKACiiigAqK7s4NQtZrW6giurWZDHLBMgdJFIwVZTwQR2NS0UAZfh/wronhO1kt9D0fT9Ggkbe8en2qQK7epCAZP1rUoooAq6ppdpren3Fhf28d3Z3C7JYZRlXX0Irkf8AhR/gH/oU9L/78Cu4oqJQjLdHJWweGxDUq1OMn5pP8zh/+FH+Af8AoU9L/wC/Ao/4Uf4B/wChT0v/AL8Cu4opezh/KvuOf+zMB/z4h/4Cv8jh/wDhR/gH/oU9L/78Cj/hR/gH/oU9L/78Cu4oo9nD+VB/ZeA/58Q/8BX+RAtjAtiLMRKLUR+SIgPl2Yxt+mOK4L/hnr4c/wDQpWH5N/jXolFOUIy+JXN62Dw2Jt7elGVtrpO3pc87/wCGevhz/wBClYfk3+NL/wAM9/Dn/oUrD8m/xr0Oip9lT/lX3HL/AGTl3/QPD/wGP+R53/wz18Of+hSsPyb/ABo/4Z6+HP8A0KVh+Tf416JRR7Kn/KvuD+ycu/6B4f8AgMf8jP0rw/p+h6LFpNhapaadDGYo7ePIVVPYfma8zm/ZT+Gs0ryNos252LH/AE6bqT/vV65RTlThKyktjTEZbgsVGMa9GMlHRXSdvTtseQf8Mn/DT/oCT/8AgdN/8VR/wyf8NP8AoCT/APgdN/8AFV6/RUewpfyr7jj/ALAyn/oFh/4Cv8jyD/hk/wCGn/QFn/8AA6b/AOKo/wCGT/hp/wBAWf8A8Dpv/iq9foo9hS/lX3B/YGU/9AsP/AV/kZHhPwppngjw/a6Lo8DW2nWu7yo2kZyNzFjyxJPJNctcfAH4e3VxJNN4VsZJZGLuxDZJJyT1r0CitHTg0k1sehPAYSpCNKdKLjHRJpNJeXY87/4Z6+HP/QpWH5N/jR/wz18Of+hSsPyb/GvRKKn2NP8AlX3HP/ZOXf8AQPD/AMBj/ked/wDDPXw5/wChSsPyb/Gj/hnr4c/9ClYfk3+NeiUUeyp/yr7g/snLv+geH/gMf8jI8PeE9J8J6L/ZWjWMWm2GWYQwjgM3U896wtF+Eugaf4B0TwnqFrHren6VCkMRvEBJ2jAYj1rtKKvlVuW2h3/V6PsvY8i5NrWVremxw/8Awo/wD/0Kel/9+BR/wo/wD/0Kel/9+BXcUVPs4fyo4/7MwH/PiH/gK/yOH/4Uf4B/6FPS/wDvwKP+FH+Af+hT0v8A78Cu4oo9nD+VB/ZmA/58Q/8AAV/kcdp/we8E6VfW97Z+GdOt7q3dZYpo4QGRgcgg+oNdFrGg6b4ht1t9TsYL+BW3CO4jDqD64NX6KahFKyR0QweGpwdOFOKi90krP1OX/wCFXeEP+hb0z/wGX/Cj/hV3hD/oW9M/8Bl/wrqKKOSPYj6hhP8AnzH/AMBX+Ry//CrvCH/Qt6Z/4DL/AIUf8Ku8If8AQt6Z/wCAy/4V1FFHJHsH1DCf8+Y/+Ar/ACOds/h14X0+6iubbQNPguIm3JJHbqGU+oOK1dX0TT/EFp9l1KzhvrbcG8qdA65HQ4NXaKfLFK1jWOGoQi4RgknurKz9Tl/+FXeEP+hb0z/wGX/Cj/hV3hD/AKFvTP8AwGX/AArqKKXJHsZfUMJ/z5j/AOAr/I5f/hV3hD/oW9M/8Bl/wo/4Vd4Q/wChb0z/AMBl/wAK6iijkj2D6hhP+fMf/AV/kc1B8NfClrNHNF4e06OWNg6OtuoKsDkEcdc10F5aQ6hazW1zEs9vMhjkjkGVdSMEEdwRUtFNRS2RtTw9GknGnBJPeySOX/4Vd4Q/6FvTP/AZf8KP+FXeEP8AoW9M/wDAZf8ACuoopckexj9Qwn/PmP8A4Cv8jl/+FXeEP+hb0z/wGX/Cj/hV3hD/AKFvTP8AwGX/AArqKKOSPYPqGE/58x/8BX+Ry/8Awq7wh/0Lemf+Ay/4VN4q8C6d4q8OW+iS77Oygu7S7jW1wu1re4jnRRxjBaJQfYmuiopqKjsjalh6NF3pQUfRJGbrXhnSfEixLqunW2oLESYxcRh9ucZxn6D8qyf+FXeEP+hb0z/wGX/CuooocYvVomphMPVlz1KcW+7SZy//AAq7wh/0LWmf+Ayf4Uf8Ku8If9C3pn/gMv8AhXUUUuSPYz+oYT/nzH/wFf5HL/8ACrvCH/Qt6Z/4DL/hVnTvh/4b0i+hvLLQ7C1u4TujmhgVWQ4xkED0Nb9FHJHsOOBwsWmqUU1/dX+RR1jQtO8QWot9TsoL6ANuEdwgdc+uDWL/AMKu8If9C3pn/gMv+FdRRTcYvVouphcPWlzVKab80mcv/wAKu8If9C3pn/gMv+FH/CrvCH/Qt6Z/4DL/AIV1FFLkj2M/qGE/58x/8BX+Ry//AAq7wh/0Lemf+Ay/4VLa/DjwtY3UVxb+H9OhnhcSRyJbqGVgcgg46g10dFHJHsCwOETuqUf/AAFf5FXUtLs9ZspLO/toru1kxvhmUMrYORkH3FYP/CrvCH/Qt6Z/4DL/AIV1FFNxi90a1MLQrPmq01J+aTOX/wCFXeEP+hb0z/wGX/Cj/hV3hD/oW9M/8Bl/wrqKKXJHsZfUMJ/z5j/4Cv8AI5f/AIVd4Q/6FvTP/AZf8KVPhj4SjdWXw5pqspyCLZeD+VdPRRyR7B9Qwn/PmP8A4Cv8iN7eOS3aBkVoWXYYyOCuMYx6Yrm/+FW+EP8AoW9M/wDAZf8ACuoopuKe6NqmHo1rOrBSt3SZy/8Awq7wh/0LWmf+Ayf4Uf8ACrvCH/Qt6Z/4DL/hXUUUuSPYx+oYT/nzH/wFf5HL/wDCrvCH/Qt6Z/4DL/hT4Phr4Utpkli8PabHKhDK62yggjoRxXS0UckewfUcItVSj/4Cv8goooqzuCiiigAooooAKKKKACiiigAooooAKKKKACiiigAooooAKKKKACiiigAooooAKKKKACiiigAooooAKKKKACiiigAooooAKKKKACiiigAooooAKKKKACiiigAooooAKKKKACiiigAooooAKKKKACiiigAooooAKKKKACiiigAooooAKKKKACiiigAooooAKKKKACiiigAooooAKKKKACiiigAooooAKKKKACiiigAooooAKKKKACiiigAooooAKKKKACiiigAooooAKKKKACiiigD/2Q==;strokeColor=none;strokeWidth=0;points=[];labelBackgroundColor=none;rounded=0;html=1;whiteSpace=wrap;" vertex="1" parent="1">
            <mxGeometry x="827" y="618" width="537" height="223" as="geometry" />
          </mxCell>
        </UserObject>
        <UserObject label="&lt;div style=&quot;font-size: 1px&quot;&gt;&lt;p style=&quot;text-align:center;margin-left:0;margin-right:0;margin-top:0px;margin-bottom:0px;text-indent:0;vertical-align:middle;direction:ltr;&quot;&gt;&lt;font style=&quot;font-size:12px;font-family:0;color:#000000;direction:ltr;letter-spacing:0px;line-height:120%;opacity:1&quot;&gt;文档结构解耦&lt;/font&gt;&lt;/p&gt;&lt;/div&gt;" tags="Background" id="LqAOF11i0ZwZVFPnW95y-13">
          <mxCell style="verticalAlign=middle;align=center;overflow=width;vsdxID=13;fillColor=#FFFFFF;gradientColor=none;shape=stencil(nZBRDoQgDERP03+WHsHFe5iISyOCQdT19kIaIxq//Jtp3zTpAFaTaUYNUkwx+F6v1EYD+AUpyRkdKCYFqACrzgf9C352LfuxyWRWg1/yhT/nRE5IsZWuZtCSK8CPeI0e/hF+jV7AJM4PO7KWCyr390bSiNtEtQM=);strokeColor=#000000;spacingTop=-3;spacingBottom=-3;spacingLeft=-3;spacingRight=-3;points=[];labelBackgroundColor=none;rounded=0;html=1;whiteSpace=wrap;" vertex="1" parent="1">
            <mxGeometry x="827" y="359" width="163" height="71" as="geometry" />
          </mxCell>
        </UserObject>
        <UserObject label="&lt;div style=&quot;font-size: 1px&quot;&gt;&lt;p style=&quot;text-align:center;margin-left:0;margin-right:0;margin-top:0px;margin-bottom:0px;text-indent:0;vertical-align:middle;direction:ltr;&quot;&gt;&lt;font style=&quot;font-size:12px;font-family:0;color:#000000;direction:ltr;letter-spacing:0px;line-height:120%;opacity:1&quot;&gt;1.事实依据&lt;br/&gt;&lt;/font&gt;&lt;font style=&quot;font-size:NaNpx;font-family:0;color:#000000;direction:ltr;letter-spacing:0px;line-height:120%;opacity:1&quot;&gt;2.法条依据&lt;br/&gt;&lt;/font&gt;&lt;font style=&quot;font-size:NaNpx;font-family:0;color:#000000;direction:ltr;letter-spacing:0px;line-height:120%;opacity:1&quot;&gt;3.诉讼请求&lt;br/&gt;&lt;/font&gt;&lt;font style=&quot;font-size:NaNpx;font-family:0;color:#000000;direction:ltr;letter-spacing:0px;line-height:120%;opacity:1&quot;&gt;4.判决结果&lt;/font&gt;&lt;/p&gt;&lt;/div&gt;" tags="Background" id="LqAOF11i0ZwZVFPnW95y-14">
          <mxCell style="verticalAlign=middle;align=center;overflow=width;vsdxID=14;fillColor=#FFFFFF;gradientColor=none;shape=stencil(nZBRDoQgDERP03+WHsHFe5iISyOCQdT19kIaIxq//Jtp3zTpAFaTaUYNUkwx+F6v1EYD+AUpyRkdKCYFqACrzgf9C352LfuxyWRWg1/yhT/nRE5IsZWuZtCSK8CPeI0e/hF+jV7AJM4PO7KWCyr390bSiNtEtQM=);strokeColor=#000000;spacingTop=-3;spacingBottom=-3;spacingLeft=-3;spacingRight=-3;points=[];labelBackgroundColor=none;rounded=0;html=1;whiteSpace=wrap;" vertex="1" parent="1">
            <mxGeometry x="1080" y="279" width="156" height="70" as="geometry" />
          </mxCell>
        </UserObject>
        <UserObject label="&lt;div style=&quot;font-size: 1px&quot;&gt;&lt;p style=&quot;text-align:center;margin-left:0;margin-right:0;margin-top:0px;margin-bottom:0px;text-indent:0;vertical-align:middle;direction:ltr;&quot;&gt;&lt;font style=&quot;font-size:12px;font-family:0;color:#000000;direction:ltr;letter-spacing:0px;line-height:120%;opacity:1&quot;&gt;1.单词级&lt;br/&gt;&lt;/font&gt;&lt;font style=&quot;font-size:12px;font-family:0;color:#000000;direction:ltr;letter-spacing:0px;line-height:120%;opacity:1&quot;&gt;2.句子级&lt;br/&gt;&lt;/font&gt;&lt;font style=&quot;font-size:12px;font-family:0;color:#000000;direction:ltr;letter-spacing:0px;line-height:120%;opacity:1&quot;&gt;3.段落级&lt;br/&gt;&lt;/font&gt;&lt;font style=&quot;font-size:12px;font-family:0;color:#000000;direction:ltr;letter-spacing:0px;line-height:120%;opacity:1&quot;&gt;&lt;u&gt;&lt;i&gt;4.文档级&lt;/i&gt;&lt;/u&gt;&lt;/font&gt;&lt;/p&gt;&lt;/div&gt;" tags="Background" id="LqAOF11i0ZwZVFPnW95y-15">
          <mxCell style="verticalAlign=middle;align=center;overflow=width;vsdxID=15;fillColor=#FFFFFF;gradientColor=none;shape=stencil(nZBRDoQgDERP03+WHsHFe5iISyOCQdT19kIaIxq//Jtp3zTpAFaTaUYNUkwx+F6v1EYD+AUpyRkdKCYFqACrzgf9C352LfuxyWRWg1/yhT/nRE5IsZWuZtCSK8CPeI0e/hF+jV7AJM4PO7KWCyr390bSiNtEtQM=);strokeColor=#000000;spacingTop=-3;spacingBottom=-3;spacingLeft=-3;spacingRight=-3;points=[];labelBackgroundColor=none;rounded=0;html=1;whiteSpace=wrap;" vertex="1" parent="1">
            <mxGeometry x="1081" y="421" width="155" height="70" as="geometry" />
          </mxCell>
        </UserObject>
        <UserObject label="&lt;div style=&quot;font-size: 1px&quot;&gt;&lt;p style=&quot;text-align:center;margin-left:0;margin-right:0;margin-top:0px;margin-bottom:0px;text-indent:0;vertical-align:middle;direction:ltr;&quot;&gt;&lt;font style=&quot;font-size:12px;font-family:0;color:#000000;direction:ltr;letter-spacing:0px;line-height:120%;opacity:1&quot;&gt;特征提取拼接&lt;/font&gt;&lt;/p&gt;&lt;/div&gt;" tags="Background" id="LqAOF11i0ZwZVFPnW95y-16">
          <mxCell style="verticalAlign=middle;align=center;overflow=width;vsdxID=16;fillColor=#FFFFFF;gradientColor=none;shape=stencil(nZBRDoQgDERP03+WHsHFe5iISyOCQdT19kIaIxq//Jtp3zTpAFaTaUYNUkwx+F6v1EYD+AUpyRkdKCYFqACrzgf9C352LfuxyWRWg1/yhT/nRE5IsZWuZtCSK8CPeI0e/hF+jV7AJM4PO7KWCyr390bSiNtEtQM=);strokeColor=#000000;spacingTop=-3;spacingBottom=-3;spacingLeft=-3;spacingRight=-3;points=[];labelBackgroundColor=none;rounded=0;html=1;whiteSpace=wrap;" vertex="1" parent="1">
            <mxGeometry x="1301" y="422" width="100" height="70" as="geometry" />
          </mxCell>
        </UserObject>
        <UserObject label="&lt;div style=&quot;font-size: 1px&quot;&gt;&lt;p style=&quot;text-align:center;margin-left:0;margin-right:0;margin-top:0px;margin-bottom:0px;text-indent:0;vertical-align:middle;direction:ltr;&quot;&gt;&lt;font style=&quot;font-size:12px;font-family:0;color:#000000;direction:ltr;letter-spacing:0px;line-height:120%;opacity:1&quot;&gt;特征提取拼接&lt;/font&gt;&lt;/p&gt;&lt;/div&gt;" tags="Background" id="LqAOF11i0ZwZVFPnW95y-17">
          <mxCell style="verticalAlign=middle;align=center;overflow=width;vsdxID=17;fillColor=#FFFFFF;gradientColor=none;shape=stencil(nZBRDoQgDERP03+WHsHFe5iISyOCQdT19kIaIxq//Jtp3zTpAFaTaUYNUkwx+F6v1EYD+AUpyRkdKCYFqACrzgf9C352LfuxyWRWg1/yhT/nRE5IsZWuZtCSK8CPeI0e/hF+jV7AJM4PO7KWCyr390bSiNtEtQM=);strokeColor=#000000;spacingTop=-3;spacingBottom=-3;spacingLeft=-3;spacingRight=-3;points=[];labelBackgroundColor=none;rounded=0;html=1;whiteSpace=wrap;" vertex="1" parent="1">
            <mxGeometry x="1301" y="279" width="100" height="70" as="geometry" />
          </mxCell>
        </UserObject>
        <UserObject label="&lt;div style=&quot;font-size: 1px&quot;&gt;&lt;p style=&quot;text-align:center;margin-left:0;margin-right:0;margin-top:0px;margin-bottom:0px;text-indent:0;vertical-align:middle;direction:ltr;&quot;&gt;&lt;font style=&quot;font-size:12px;font-family:0;color:#000000;direction:ltr;letter-spacing:0px;line-height:120%;opacity:1&quot;&gt;相似度计算&lt;/font&gt;&lt;/p&gt;&lt;/div&gt;" tags="Background" id="LqAOF11i0ZwZVFPnW95y-18">
          <mxCell style="verticalAlign=middle;align=center;overflow=width;vsdxID=18;fillColor=#FFFFFF;gradientColor=none;shape=stencil(nZBRDoQgDERP03+WHsHFe5iISyOCQdT19kIaIxq//Jtp3zTpAFaTaUYNUkwx+F6v1EYD+AUpyRkdKCYFqACrzgf9C352LfuxyWRWg1/yhT/nRE5IsZWuZtCSK8CPeI0e/hF+jV7AJM4PO7KWCyr390bSiNtEtQM=);strokeColor=#000000;spacingTop=-3;spacingBottom=-3;spacingLeft=-3;spacingRight=-3;points=[];labelBackgroundColor=none;rounded=0;html=1;whiteSpace=wrap;" vertex="1" parent="1">
            <mxGeometry x="347" y="662" width="307" height="135" as="geometry" />
          </mxCell>
        </UserObject>
        <UserObject label="" tags="Background" id="LqAOF11i0ZwZVFPnW95y-19">
          <mxCell style="vsdxID=19;fillColor=none;gradientColor=none;image;aspect=fixed;image=data:image/jpeg,/9j/4AAQSkZJRgABAQEAYABgAAD/2wBDAAMCAgMCAgMDAwMEAwMEBQgFBQQEBQoHBwYIDAoMDAsKCwsNDhIQDQ4RDgsLEBYQERMUFRUVDA8XGBYUGBIUFRT/2wBDAQMEBAUEBQkFBQkUDQsNFBQUFBQUFBQUFBQUFBQUFBQUFBQUFBQUFBQUFBQUFBQUFBQUFBQUFBQUFBQUFBQUFBT/wAARCABnAPsDASIAAhEBAxEB/8QAHwAAAQUBAQEBAQEAAAAAAAAAAAECAwQFBgcICQoL/8QAtRAAAgEDAwIEAwUFBAQAAAF9AQIDAAQRBRIhMUEGE1FhByJxFDKBkaEII0KxwRVS0fAkM2JyggkKFhcYGRolJicoKSo0NTY3ODk6Q0RFRkdISUpTVFVWV1hZWmNkZWZnaGlqc3R1dnd4eXqDhIWGh4iJipKTlJWWl5iZmqKjpKWmp6ipqrKztLW2t7i5usLDxMXGx8jJytLT1NXW19jZ2uHi4+Tl5ufo6erx8vP09fb3+Pn6/8QAHwEAAwEBAQEBAQEBAQAAAAAAAAECAwQFBgcICQoL/8QAtREAAgECBAQDBAcFBAQAAQJ3AAECAxEEBSExBhJBUQdhcRMiMoEIFEKRobHBCSMzUvAVYnLRChYkNOEl8RcYGRomJygpKjU2Nzg5OkNERUZHSElKU1RVVldYWVpjZGVmZ2hpanN0dXZ3eHl6goOEhYaHiImKkpOUlZaXmJmaoqOkpaanqKmqsrO0tba3uLm6wsPExcbHyMnK0tPU1dbX2Nna4uPk5ebn6Onq8vP09fb3+Pn6/9oADAMBAAIRAxEAPwD9U6KKKACiiigAooooAKKKKACiivP/ABV+0B8NvA/iP/hH9f8AHGh6Rrx27dLur1EuWyARtjzuOQQeBR1sHmegUVz/AIN+IHhn4iWE174Y1/TdftYJTBNJp10kwikHVH2k7WH904NdBTAKK4Kx+Pnw31TxifCdp450G58ULKYTo8V/G12HBwVMQO4HPtV/x/8AF3wT8KY7STxl4s0fwtHdkrbvq15HbLKRjIUuRk8ipvon3H1aOuork9Y+LPgzw/4Pt/FeqeKNK0/wzcY8rV7q7SO2fOcYkJ29j37VreFvFmjeONCtda8P6paa1pF0C0F9YyrLDKASCVZeCMg9Krv5C7eZmeKvHUXh3xB4b0G3tvt+sa5cMsVusmzyreMBri4Y4PyopUf7TyRrxuyOpr56+E2tt8RP2sPjBrLt5ln4RtdP8KWHorspursj3LvCp/65CvX/ABt8S/C3w4tYp/EuuWekibPkxTPmacjqI4xl3I9FBqV8EW+uvye33qz+Y2vecV00/wA/ud18jpqK8Uj/AG0fgkZJEn+Imlac0b+W41MS2exvQ+ci4PI6+teneD/G+i+P9KOqeH71dT0svsjvoUbyZuAd0TkYkXnG5cjIIzkGq1tcnyN2uW1fx1FY+PNE8J2lt9u1K+hlvrnEm0WdpH8vnNwclpGRFXjOXOcIa6mvnv8AZp1pviN8UPjf44kPmRL4iXwrYHqFttPiAYL7NPNO340o6z5eyb+Ssvza+Vxy0jfu0vm7v8k/nY+hKKKKACuW8E+OovFt1r+nTW39n6zod81le2Rk37QQHhlVsDKSRMjg44JZeqmupr578X603w//AG1PAhB2WPj7w7e6RcL0DXViwuIHPv5c1wv4+1EdZqPe/wCCb/S3zB/C32t+dn917/I9bm8dRWPxGt/Cd9bfZXv7Fr3TbvzMrdGNgJ4sY+V0DRtjJ3K5I+41dTXz7+2rq0ngX4a6D8RbbK3PgnxHp+quy9TbPKLa5T6NDcPn6D0r3+ORZo0kQhkYBlYdwe9EdYt9m1+Cf62+TCWkku6v+jX4J/MfRRRQAUUUUAFFFFAEdxI8NvLJHE08iqWWJCAzkDhQSQMn3IFfHnw7/bi8S69pH7ROs+J/Cmk6Pp3wvDx24sr17gXFwqy5geQgBiGjRSUAGW4zwa+xWyVYKcNjg1+a037BPx9/4Zz8efDW31/wbaTeJPEz63e3yXdy0uqIzxny5WMI8lF2b8AOWOB8oB3ZS5ryS6x09W0r/JXf9M1jy+65fzK/pZtr5tJfM+4f2b/iLrvxc+B/hDxp4k0210jVddshftZWe/yoo3YmLBYknMewn3NbOlfGLwNrnja48H6d4s0m98T24kMmlwXaPMPLx5gwDyybhuUcrkZAryz4ma34q/Zz/Yz1e/N/oa+IfC+g7I5be0lWzTYoSOONDJuJA2IrEjLAMVGdtN/Yn+Euo/Dz4CeCIfE1vo91rEViLy3u7eyZbuE3QE04lld2LSM7ncV2g7RxXVLllVqcnwx/W9vy1OWPNGlDm+KX6Wv+eh7zrV3dWGj31zY2DapewwPJBYpKsTXDhSVjDsQqljgZPAzzXkH/AAuD4tf9EC1P/wAKjTP/AI7Xr+taXHrmj3unTTXNvFdwvA81ncPbzoGUgtHIhDIwzwykEHkGvIP+GTfDf/Q5/E7/AMOHrP8A8k1jrc20semeBtc1rxF4dhvfEHhubwnqbOyvpk95DdMgBwG8yIlTkc8Hivmb9qDXbTwr+2N+zfq91Z3t5Hb2/iHdHptjLeXDf6LGBtiiVnbr2HHNfTPgfwXaeAfD0Oj2V/q+pQROzi41zU59RuTuOSDNO7OQOwJ4HArxP4wfCf4meLv2lPhl490Cw8KyeHvBa3yGHUdZuYLu9+1wrG5CpZusezbkfM27/Zp/8vYNef8A6S1+bJ/5dzT7M5H9nTWLLxp8Xvi7+0NZTf2N8OdS0+HTY4LjCXFxJYhvtF3cQgkxMuCiq+HKjJUZGV0n9ur+2I/BGu21hpF7oHinVYNPXRbK5kl1mwt52KxXcwCmMj7peMY2Bx87EEV1837OeseHfib46bw89jL8NPiRaSJ4k0WW4eCawvnjMcl7a4RlfzEPzodvzANntTP2dfAPxq+Dvg7Rfh1qw8Iax4e0JltbLxUt7c/apLBW+SN7LyQvmhPk3eeFHBw+MM6dvdT2SWnzfOr/AJeT0s1ZFT7TW7vr8ko6eXXzXZ3eN4ShjX/gpH4+kCKHPw+07LY5/wCPtx/QfkKX/go7DHN+z9pgkRXH/CWaJwwz1vEB/Qn86swfC34w6P8AtVeKfipY6J4IvdI1PQodBt9OufEl5BcKsUxkWZ2XT3UFsnKDOOPmOOZ/GXwC+Ifx5+FfxD0H4j6zpGh6tq+pW954dTw/czXtro62wieAlpYoWdjKjl8KMhuMcATB2hSf8r5n8qrlb1s7ly1nUX8yt/5TUb+if/APUf2ikST9n/4lK6qyHw1qIIYcf8e0ldJ8PYxF4A8MoqhFXTLYBQMAYiXivKtW8O/F/wCJ3ge48FeLdL8J6Da6jB9h1jXdI1e4unnt2G2b7PbPbR7GkTcuXkPl7s/Pivcbe3jtLeKCFAkUShEUdAoGAPyqkuXn87fhzf8AyRm3zcnlf8eX/I+Wf2CZjqY+O+rSfNNefE3VwW/2UESqPwArK+MmreLf2VPgP8ZPiDcJba74y1HVLlrXXpJwjw2kxEdgiqVJxCXRRCMKWDtn5iTr/sJwHR9Q+P2hyfLNZfEvVJduMHZKsTofxBrc+O3w38QftLeMfCPhSTTLjSfhloeqxa1rt9fgRvq0sBJhs4Is7zHv+Z5GCqQF2lqy5eeFKN7c0IJ+ScYNv1stPuWrNVJRnUk1e05u3dqUrL5t/q9Eav7Lnhvx18PfhX4J8Nav4Z0uC3isVm1LVG12Sa7muZAZZpWiNsNzvK7FsycZPJxz6P8AE/4reHvhBoFvrHiSW7hsri7hsImtLKa5LTyuEjQiNTt3MQAWwMkDPNT/ABS+IWn/AAm+HHiTxlqqPJp+h2E19LHF99wikhF9ycAfWvlzxRqnib4lfE74DeFfE/iO3m1TWrweNNW8K2VtH9n0y0tYjNbgSY8xv3zRIWdiHZSVVNuK6HL2tXa2qv6Ntv7oqT02tqYqPs6d27uzt5tL9W0u7vofZUjbI2b0Ga+Wf+Ca8hvf2af7Uc7p9U8R6xeyt/eZryQE/wDjor6mddysvqMV8rf8E5Y59M/Zy1LRVVftui+J9a09kkyoEi3TsAccgfMPzrODtOf+H/26N/0Ll8Ef8S/9JmZ3xy/bI8c/AP496V4J1fwHZeINM8UWMp8L/wBiXErXVzfCXy44JmdQqhsoWIXCB+rY5+hvhPcfEO68P3LfEqx8OWGt/amEEfhm5nntzb4XaWMyKwfO4HAxwD3xXyV8Zv2VPj38ctc8O/EfV9e8LaN498Hana3Hhzw9pl3cNpQiSTfcPLM8W/zZSI8YUgLGAfvHH0B8ffiJ4w+FP7LPirxfdzaJZeL9K0h7mY26TS2azYxsiyVcnJCqzY5wSuPlqOb2VBznrJX+7dP16P02uXy+0rKENnb79mvTqvXqjutK+MXgbXPG1x4P07xZpN74ntxIZNLgu0eYeXjzBgHlk3Dco5XIyBXg37ZUx0v4xfsxapGdsqeOhZbv9ie3dGH4gV0n7E/wl1H4efATwRD4mt9HutYisReW93b2TLdwm6AmnEsruxaRnc7iu0HaOK5z9sCBta+OH7MGjRDdK/jOTUtoGfktrZnY/ka3lD2danB7qcb/APgSv+BjGaqUqk1s4yt/4Czsf27rFdR/Y9+LMTjIXQpph9Uw4/VRXo3wX1STXPg74F1GVt0t3oVjO7epa3Rj/OvNP29tSXS/2O/itKxx5mjSW49zIyxgfm1eo/CXR5PDvwp8GaVKNstjotnbMCMYZIEU/qKzp/8AL3/tz/2//gFz/wCXf/b/AP7YdZRXlHwA8WfEHxPaeLI/iBD4eebT9amtNOv/AAyZja3VsFUj/W8l0YtGxHy7lYdVNer0dE+6T+9XDq12uvuCiiigAooooAKKKKAPm79prd8drd/grp2ja8JL3VdOfWtSm0m4j09NNSRbmZkuivlOSIhEFDbtz4xgMR9HQxJBEkcahI0UKqqMAAcAU+iiPux5fO/4Jfp+YPV37K39f1sl2CiiigAooooAKKKKACiiigAooooA8A8BaG3w4/a7+I1oy+Xp3j3SrPxBZt0U3VqPs12g/wBra9s//Aj6V7/WD4k8G2Hii+0S+uDLBf6NeC8s7q3YLIh2lZEJIOUkRmRl7g5GCARvUL4VHtp8un3LT5A/icu/9P79/VmR4u8J6R488L6r4c16yTUtF1S2e0vLSQkLLE4IZcggjg9QQR2rz7Qf2W/hx4d8WaH4mtdGu5de0e3Nra315qt3cSNHlCBL5kp83b5ce3zN23Yu3G0Y9YooXuvmW/8Aw/8Am/vB6rle39f5L7grwD4CaG3w0+OHxn8HOPLtNX1OLxnpmekkd3GI7kD/AHJ4Gz6eYvrXv9YOseDbDWPE2h6+5mt9V0nzUhngYKZIZVxJDJkHdGSsb4/vRoQeOSOkubya+Ts/zS+VwesbfP5r/gNr5m9Xzd+01u+O1u/wV07RteEl7qunPrWpTaTcR6emmpItzMyXRXynJEQiCht258YwGI+kaKPtJvo0/ud1/wAHyHd2dt/6/Ht5jIYkgiSONQkaKFVVGAAOAK8D1TQ2+If7aGiX23zNM+HfhyZ2k/hGoaiwRU+q28DMfQSp617/AFg+E/Bth4Pj1P7IZZ7nU72XUL27uWDSzzPgZYgDhUVEUAcKijtQvjU30v8Ae01+Tb9UibLkcV1t+Dv+lvRs8e/bA0V/iL4d8F/DOEGR/F3iSzS8Req6fauLu6c+g2wqmfWRR3r35VCqABgDgCsJfBth/wAJs/imUy3GqfYhp8HmsDHbQl98gjGODIwQscnPloOi1vUR0jbu2/yX5JfNsctZX7K35v8AW3okFFFFABRRRQAUUUUAFFFFABRRRQAUUUUAFFFFABRRRQAUmcdaWvHH17/hY37R1x4bRi+ieA7CDULyMH5ZdTut/wBnVvXyoUd8dN0yHqooWskv67/8N52QdG+3/Df15ansdFFFABRRRQAmaWvHPhzr3/C0/jJ4213cZNF8H3J8M6WufkN2ESS+nx3bLxQg9hFJj75r2Ojon3V/k9vvVmHVrtp/n9z0CiikIDAgjIoAOvIozXj3wZ8QHw78QPHHwsuHO3w+0GqaMHOT/Zd0GKRj2hmSaIeiCMUnijX/APhV/wAfvCzM5j0Px+sumXCk/JHqkEXmW8g9DJCksZ9fKi9KFq426/1b1vp/i0B6c3l+Xf7ve9D2OiiigAooooAKKKKACiiigAooooAKKKKACiiigDzH4tXnjfxBJB4e+GniHw/oeuwkXeoXmpgXUkES4McX2Yc4mb5TISNiBiuW247bwjrUniLw1p+oTizW6miHnpYXQuYElHEipKAN4DBhnAPHIB4r4t0fxV4T+D/jb9rX4nRyWGjf2WsOhWXmzBZbm8hs2nfJY7pJJJ51GSSTsHYV9JfsoeBW+G37N/w68PypsurfRoJbkEc+fKvmy5997tRT96DflF/+BJtfgl9/rcn7s0vVf+A2vf5tr5eh6xRXy/8AGnwf4X1b4japdaj8DPiR4yvHEW/WfD+sx29nPiNQNiHVICNowp/dryp69TofAPwn4b0Xx59o0r4MfEHwHdfZZF/tXxNq0dza7SVzHsXUrg7j2Pl9jyKIe9v/AF+QS93Y+kKx9U8ZaBodz9n1HXNN0+4xnyrq7jifHrhiDXl37YHjzWfh78CtVvdAvjpGp395ZaRHqwH/ACD1urmOB7n0BRZGIJ6HBrw7xp+yv8JvDfx4+DPhbRfAei+IdRuP7Qu/Ecms2qajNc2AtyDdXbyhizm58na55yXA4JFKN5Pyvb52u/uTTb7ejHK0Vfyv8v8ANvRLv6o+1LW7gvraK4tpo7i3lUPHNEwZHU9CCOCK+Z/2I9QPiy9+OXi+U+ZLq3xC1C2STOcwWqRQRD6AKfzr6WsLC20qxt7KytobOzt41iht7dAkcSKMKqqOAAAAAOlfLX/BN/K/Bbxaj8zJ441tZf8Ae+0f/qqoW9rK38j/APS4Eyv7ON/5l/6TM6PWvjxqXjD4a+L/AB/pGvWvgT4feHpbyI61caf9uvr4WrtHNJFEzrHEvmIyIHEjPjOE4zR+D+m/Hnx78N/D3iyb4paTpr61bLqEWm6t4Pjunhgk+aJXeG5gy/llS2AACSOcZPFf8FAvBmi+IPAPg74TaDpcEev+P/FkSwQ26keTGZBNfXYQcDCjLNj/AJaMerHP0n4c+DvgD4ctDqei+EdJ0y60+3KR3dnYL56IFwQpVSxJAxgcnp3qaduRyl5L5pJyfzbXpZlT+JRj1u/k3aK+5O/yOh8J6Xq2k6SsWt61/b2pMxeW6W1W2jyQBtjiBO1BjgMzHk5Y1e1bUI9J0u8vpTiK1heZz7KpJ/lXzd8LfiJrP7SXjLxnqGkeLte8LaRoOvLY6Rb2ukslvc29syLdNO88G12lkMkezcGjVAQobJPunxSWST4ZeLli/wBa2j3gX6+S+KyrylGhKotHa6+66f8AXzNKMVKsqb72f32f9fceKf8ABPHzb79lfw5r1yd194ivtS1q5kPV5J72Zsn8Nv5V73aeMdA1BdUNrrmm3I0piuoGG7jb7GQCSJcH92QAT82OleB/sKrZXH7C/wAOkuywsG0KRbgxyNG2zfKHwykMp68ggjtX53+GfiZ4c+G/7DXxs17T5LPTNf8Ait4muNO0jRrMhTBYq4VjsH3I1SSZcnjLKO9dOI9yrUpwXwrRf9vKMV/XYxoXqQhUk/ievzTk3/XkfsxpOsWGv6dDqGl31tqVhMCYrq0lWWKQAkEqykg8gjj0q5Xg3gvxx4J/Zu/ZD8O6rNrWnz+HfDnh6OKO4t7qMpfTQwnfHC2cO7yI4AGcnNJ+y/8AED4gfFzQ9N8ba3r3hO/8M6zpi3H9kaJGzXGlXjMHW3aYSMrhYWXfuAYPnAA4pyilUnCLuo9fvt99v6uiIS5qcZv7XT7r/df+rM5v4hag3hP/AIKA/Ci4Q7I/FXhPVdGm54Y27pcx/UglvzNO/wCChF8/hv4I6J4vhO258K+LdG1iNumNt0sbfgVlYfjWf+0Vlv23P2Wlj/1iv4hZv937En9atf8ABTIj/hi/x4v8bSaeqf7326DFYxdqdF9p/wDuW/6m/KpVZQf2oq/zi4/krn1BG4kRXU5VhkGnVSsJltdFtpZ5FiSO3VpJHO1VAUEkk9BVLwf428P/ABB0KHWvDGt6f4h0eZmWO+0y5S4hdlJDAOhIyCCDWjVm0uhhTk5QjJ9TaoooqTQKKKKACiiigAooooAKKKKACiiigD5W8cfA+L456lqdrffBiy8C6rqupJFr3i+f+z5przTYZlbbDLC5mZ7hI0Qh1UIrNkkqob6njRY0VEUKqjAUdAKdRQtIqP8AX9eW2/cHrLm/r+v8kFFFFAFHW9D07xLpN3per2FtqmmXcZiuLO8hWWGZD1V0YEMD6EVkeDfhr4U+Hcdwvhjw5puhfaNvntY2qRPLtGFDsBlgBwMngdK6WijbYNwr5l/Y101vBviz4+eDJQY5NO8d3OqRIf8An3voYp4iPY/N+VfTVeVah4QuvCPx8tvGmm2k1xpvibT49F1tLdCximhZns7pgP4cPNEzdt0R6AkEdJ37px+9p/nFL5hLWFuzT/Nfk2/kdFo/wl8PaV43uPGU0U+reKpYPsi6tqUxmkt7fOfJhXhIUJ5IRV3dWJNdF4k1qHw54e1TVrlglvYWst1IzHACohYn8hWjXJeO/hfoXxI+zLrv9oTW0UUsElnb6lcW9vdRSAB454o3VZVO0cOD3HRiDE05Q5Iu36f0yotc3NLX+v8AI8+/Yt8L3XhX9mXwOt+hTU9TtX1q83D5jNeSvctn3/egfhXs99Zx6hZXFrKMxTxtE49mBB/nUkMMdvCkUSLFFGoVEQYVQBgADsKfWlXlqOSto+nl2Ip80Um3r38+/wB581f8E+7Z9J/ZrtPCN6ubzwrrGq6BdROOjRXkuAR7o6n6GvSYv2Y/hDBo9zpMfww8IpplzcreT2i6JbiOWZSSrsuzDEbmxnoCR0NVvB/hC6+HPxo8WNaWk0nhrxmU1jzIUJjs9SjjWKdXx90TRrE6k8Fo5AeSufVabk5WnLdpX9Vv/wCTJtfJhs5RW13b0e33J2/A+Xf+CgGhnX/gJovw80m2him8XeI9K8O20UcYAhjaYO5QAfKFiifp0Ga+lNE0Ox8OaXb6dptrDZWcCBEhhQIoAAHQfSuEtfgnDJ8Sl8Yaz4o1zxH9juZrzSNH1Jrc2elSyx+W7whIlcnZuVd7ttDvjkk16QTgE1MXywd927v7krfKzfzHLWStslb8Xd/NWXyPmbxdpreMP+CgngFEG6Dwd4Mv9UmYchZLuZbeNT6Eqkh/4CaX9vnT38WfDHwd4Ih+afxZ4z0jTNi9fLWfz5W+gSFifpXonwb8H3X/AAknjP4h6xaS2Wr+K7mJLe1uEKy2mm26mO1jdTyrNmSZlPIM208rRq3hC68e/HrRtZvrSWHQPBFtK1i0yFVu9SuUCtImfvLDBldw4LTsByhohp7KL+y+b/yZzs//AEn1CWrqSXVWX/gKhf7/AHvQ9Rlt45rd4JI1kidSjRuoKspGCCO4x2rjPhF8J9F+DnhebRdDs7KxgubybUJ4tNs1tLYTSEZEUK/LGgCqoUE/dySSST29FC0ba6h0S7BRRRQAUUUUAFFFFABRRRQAUUUUAFFFFABRRRQAUUUUAFFFFABRRRQAUUUUAFFFFABRRRQAUUUUAFFFFABRRRQAUUUUAFFFFABRRRQB/9k=;strokeColor=none;strokeWidth=0;points=[];labelBackgroundColor=none;rounded=0;html=1;whiteSpace=wrap;" vertex="1" parent="1">
            <mxGeometry x="369" y="951" width="232" height="95" as="geometry" />
          </mxCell>
        </UserObject>
        <UserObject label="" tags="Background" id="LqAOF11i0ZwZVFPnW95y-20">
          <mxCell style="vsdxID=20;fillColor=none;gradientColor=none;image;aspect=fixed;image=data:image/jpeg,/9j/4AAQSkZJRgABAQEAYABgAAD/2wBDAAMCAgMCAgMDAwMEAwMEBQgFBQQEBQoHBwYIDAoMDAsKCwsNDhIQDQ4RDgsLEBYQERMUFRUVDA8XGBYUGBIUFRT/2wBDAQMEBAUEBQkFBQkUDQsNFBQUFBQUFBQUFBQUFBQUFBQUFBQUFBQUFBQUFBQUFBQUFBQUFBQUFBQUFBQUFBQUFBT/wAARCAAjAH8DASIAAhEBAxEB/8QAHwAAAQUBAQEBAQEAAAAAAAAAAAECAwQFBgcICQoL/8QAtRAAAgEDAwIEAwUFBAQAAAF9AQIDAAQRBRIhMUEGE1FhByJxFDKBkaEII0KxwRVS0fAkM2JyggkKFhcYGRolJicoKSo0NTY3ODk6Q0RFRkdISUpTVFVWV1hZWmNkZWZnaGlqc3R1dnd4eXqDhIWGh4iJipKTlJWWl5iZmqKjpKWmp6ipqrKztLW2t7i5usLDxMXGx8jJytLT1NXW19jZ2uHi4+Tl5ufo6erx8vP09fb3+Pn6/8QAHwEAAwEBAQEBAQEBAQAAAAAAAAECAwQFBgcICQoL/8QAtREAAgECBAQDBAcFBAQAAQJ3AAECAxEEBSExBhJBUQdhcRMiMoEIFEKRobHBCSMzUvAVYnLRChYkNOEl8RcYGRomJygpKjU2Nzg5OkNERUZHSElKU1RVVldYWVpjZGVmZ2hpanN0dXZ3eHl6goOEhYaHiImKkpOUlZaXmJmaoqOkpaanqKmqsrO0tba3uLm6wsPExcbHyMnK0tPU1dbX2Nna4uPk5ebn6Onq8vP09fb3+Pn6/9oADAMBAAIRAxEAPwD9U6K89+O3xQ1L4O/DfV/FmneE7vxeNLt5Lu5tLW6itzHDGhd3LOcnAXoqsSewHNeX/CP9sr/hf19oE3w7+Hus+IvDE/2ePW/EL3dvbQaPNLGJGh2uwa4aMEB/LGASByTiiPvNxW6t+O3y89r6BL3Um+t/w/Xy3PpKiub8dfEfwv8ADLSU1LxXr1joFlI/lxy30wj8xsFiqA8sQoJIAOACegNa2h65p/ibR7LVtJvrfUtMvYVuLa8tZBJFNGwyrqw4IIOcije9ugbbl6iuK+JHxSg+Gq2Bm8NeKPEX2wuAPDejy35i27f9Zs+5ndxnrg+lcjpv7TFlqepWtmvw6+JVsbiVYhNc+ErmOKPcQNzsRhVGcknoKI+87IH7quz2OuO0v4ueE9c8Xal4Y03VGv8AW9MnFrfW9razSLaSlN4SWRUKISpB+Zh1rsa+bP2V/wDks37Sn/Y5xf8ApBBRH3puL6Rb+5xX/twS0gpeaX4Sf6H0VqWpWejafc3+oXUFjY20bSz3VzII4okUZZmZiAoA5JPFYvgn4keFPiVZ3d34S8S6T4ns7Sb7NPc6PeR3UUcu0MULxkruwwOM9xXhPxN/bCgh8LfEvUPAfhiXxno/gi3uI9a1w3kdtZxXCIS0EG4E3DpwWAAUcDcScVlf8EwvALeB/wBj3wpcTx+XfeIZbjW7jjBPmyERn/v2kdFP3+Z9Ek153bt8rJtPqE/d5V1ba+5a/c2lY+rqKy/FPiCPwp4a1XWprS8vodOtZbt7XT4TNcShFLFI4xyznGAvckVU8I+M7Txd4I0vxQLa80axvrJL77PrEP2a4to2XdiZCfkYDqM8Y60r6N9v+D/kw7ef9fqXPEXibR/B+jz6tr2q2OiaVb486+1G5S3gjyQBudyFGSQOT3qDwj400D4gaHFrXhnWrHxBo8zOkWoabcLPBIUYq211JVsMCOD1FfGX7WX7Xx8Ufso/EjxB4M8KXGreA7uCbw9D4rurpIEuJZSYGlt7dgXliVmK7yUyQdoIBNfRX7I/w8/4VX+zR8OPDLR+VPaaNBJcLjGJ5V82XP8AwN2qoJyU5Ppy/im/yS+8J+64x6u/4WX5v8D1PVNSg0fT5725EpghXc/kQvM+PZEBZvoAawvAvxM8M/Eu31Obw1qseprpl21heqsbxvbXCgFonR1DKwDLkEd66evmz9kD/kdf2if+yjXf/pLbUo+9JxfSLf3Siv8A24JaRUvO34Sf6HV/tGa38SrnS28HfD/wONZl8RWclnL4mvL23Sx0feQjPNC7eZLiNnYKqnJAHOTXln7Afwx+Jf7POheIPhT4r8MFvDOk6pd3Wk+LVvYPKvIJGQxosKsZNxPmMdwULwOa+u653x944svh34bm1zULLVb+0hkjR4tG06a+uBvYLuEUSs5UZySAcAE0ofu2330f33X3Pb11uOX7xJdndfdZ/et/wsfJzQ+Mfi1/wUQ1aEXehT+H/hvoccIt7uymlRP7QIMgx5oH2hoFK7z8uONpr7K03TbTR7C3sbC1hsbK3QRw21tGI440AwFVQAAAOwrxf9mXwDeaVffEbx/q9jcafq3jvX5NRjtr2JoriGwiUQWaSIwDIxjQyFCAV83BAIIr3GqjeNOEHulr6vVr5NtCl71SUltey9Fpf52v8ziviR4J8SeMlsB4f+IWseAzbl/OOk2Njc/ac7du77VBLt24ONuM7jnPGOR034M/EOy1K1uLj4+eLdQt4pVeS0m0XRFSZQQSjFLEMARwSpB54Ir2OilH3XdA9VYK+Xv2dLO41H4lftS2lpP9lup/FQihn/55u2nQhW/AkH8K+oa8/wDDfwR8O+EPHXiDxXo8uqWOpa/eLf6nCl/Iba5mEYjDGIkqPlAHGOgqeVSclLZxcfvcX+jK5mkrbqSf3KS/U/PeD4A/tD+Gf2F9e+B+i/DSQa/ca1K2p6sdVs/L1C1kmV91ufO3FjtUMZAmEHckhfp3x8PGfg74AfDbwLoM2meHPHkKW/l+DrfXDb3OsafZKPtFnb3iqpjmMflkumMHcA2Pmr6rrmvG/wAM/CXxKtbW38WeGtK8Rw2knnW66nZxz+Q/95CwO044yMVUnJpru4/+Sqy8rd1s9V1JSV0+3N/5M7vz+d7r5HlH7Mfja5179mK38U6Be6/45uJUvrnT7TxVOkF/vSWQLZS3DbgdjqY/OYtkDcfSpvFc/iH9pz9jvXP7G08+FvEvizw7cQQ2NxdLIsEzqyGPzlG1kYggSAYKsG6GvYoPC+jWvh1dAh0ixi0JYPsy6WlsgthFjHliIDbtxxtxitGGGO3hSKJFiijUKiIMKoHAAHYUq0Y1VOL2en5/npvfb1u6cnTcZLdO/wCKa+7yt6bW/Mbx58Dfj140/Zf+CvwmsvhNNY6V4d1G3HiS3uNXsUe8MLsd0ZWVlEJ3MxZvmLMMIQMt9J/FD4keJdd/aO+GPwcu9Sk8E6Vf6BP4h1250W7aJ7tosqLK3utqOiKyszOgVyoHK819U1zHjj4X+DviZDaReL/Cmi+KIrNzJbprGnxXQhY9SnmKducc461cpOUm3reTk/Vq34Ozt5W6kKKjFJdFyr0vf8dVfzvukYXwF8P3Hhz4dwQSePpfiTazXM9xY67M4lJtnkJjh80O5lEY+XzGYlsc+leNfs16nqej6t+0nd6No7a/qUfxGufK05blLcy5gtQ37x/lGFJbnrtx3r6ZudEt5dFOl2xk0y1EQhj/ALPbyWhUYACFfu4AxxXN/DP4R+HvhOviA6El4Zte1J9W1G4vruS4knuXVVZyzk44ReBgcVDTblZ2vFxT67xd9fKPW93vctPSN1e0k2um0tNPXpbTax2lFFFMQV4f+2n8SPEXwl/Zt8XeKvCmo/2Vr1gkJtrvyI5thaZFPySKyngkcg0UVz4huNNteX5m9BJ1EmbX7KfjHWPiF+zh8OvEviC9bUtb1TRoLq8u2RUMsrLlm2qAoz6AAV6tRRXo4lKNeaW13+Zw4duVGDfZfkFFFFcxuFFFFABRRRQAUUUUAFFFFAH/2Q==;strokeColor=none;strokeWidth=0;points=[];labelBackgroundColor=none;rounded=0;html=1;whiteSpace=wrap;" vertex="1" parent="1">
            <mxGeometry x="422" y="888" width="127" height="35" as="geometry" />
          </mxCell>
        </UserObject>
        <UserObject label="" tags="Background" id="LqAOF11i0ZwZVFPnW95y-21">
          <mxCell style="vsdxID=26;edgeStyle=none;startArrow=none;endArrow=none;startSize=5;endSize=5;strokeWidth=2;spacingTop=0;spacingBottom=0;spacingLeft=0;spacingRight=0;verticalAlign=middle;html=1;labelBackgroundColor=#ffffff;rounded=0;" edge="1" parent="1">
            <mxGeometry relative="1" as="geometry">
              <mxPoint x="-148" y="137" as="offset" />
              <Array as="points" />
              <mxPoint x="1096" y="411" as="sourcePoint" />
              <mxPoint x="1391" y="482" as="targetPoint" />
            </mxGeometry>
          </mxCell>
        </UserObject>
        <UserObject label="" tags="Background" id="LqAOF11i0ZwZVFPnW95y-22">
          <mxCell style="vsdxID=21;edgeStyle=none;startArrow=none;endArrow=block;startSize=5;endSize=5;strokeWidth=2;spacingTop=0;spacingBottom=0;spacingLeft=0;spacingRight=0;verticalAlign=middle;html=1;labelBackgroundColor=#ffffff;rounded=0;exitX=1.0123456790123457;exitY=0.5;exitDx=0;exitDy=0;exitPerimeter=0;entryX=0;entryY=0.5;entryDx=0;entryDy=0;entryPerimeter=0;" edge="1" parent="1" source="LqAOF11i0ZwZVFPnW95y-5" target="LqAOF11i0ZwZVFPnW95y-6">
            <mxGeometry relative="1" as="geometry">
              <mxPoint x="-34" y="102" as="offset" />
              <Array as="points">
                <mxPoint x="636.4" y="94" />
                <mxPoint x="636.4" y="94" />
              </Array>
            </mxGeometry>
          </mxCell>
        </UserObject>
        <UserObject label="" tags="Background" id="LqAOF11i0ZwZVFPnW95y-23">
          <mxCell style="vsdxID=22;edgeStyle=none;startArrow=none;endArrow=block;startSize=5;endSize=5;strokeWidth=2;spacingTop=0;spacingBottom=0;spacingLeft=0;spacingRight=0;verticalAlign=middle;html=1;labelBackgroundColor=#ffffff;rounded=0;exitX=1;exitY=0.5142857142857142;exitDx=0;exitDy=0;exitPerimeter=0;entryX=0;entryY=0.5;entryDx=0;entryDy=0;entryPerimeter=0;" edge="1" parent="1" source="LqAOF11i0ZwZVFPnW95y-15" target="LqAOF11i0ZwZVFPnW95y-16">
            <mxGeometry relative="1" as="geometry">
              <mxPoint x="-33" y="101" as="offset" />
              <Array as="points" />
            </mxGeometry>
          </mxCell>
        </UserObject>
        <UserObject label="" tags="Background" id="LqAOF11i0ZwZVFPnW95y-24">
          <mxCell style="vsdxID=23;edgeStyle=none;startArrow=none;endArrow=block;startSize=5;endSize=5;strokeWidth=2;spacingTop=0;spacingBottom=0;spacingLeft=0;spacingRight=0;verticalAlign=middle;html=1;labelBackgroundColor=#ffffff;rounded=0;exitX=1.0052910052910053;exitY=0.5;exitDx=0;exitDy=0;exitPerimeter=0;entryX=0;entryY=0.49333333333333335;entryDx=0;entryDy=0;entryPerimeter=0;" edge="1" parent="1" source="LqAOF11i0ZwZVFPnW95y-9" target="LqAOF11i0ZwZVFPnW95y-10">
            <mxGeometry relative="1" as="geometry">
              <mxPoint x="-16" y="101" as="offset" />
              <Array as="points" />
            </mxGeometry>
          </mxCell>
        </UserObject>
        <UserObject label="" tags="Background" id="LqAOF11i0ZwZVFPnW95y-25">
          <mxCell style="vsdxID=24;edgeStyle=none;startArrow=none;endArrow=block;startSize=5;endSize=5;strokeWidth=2;spacingTop=0;spacingBottom=0;spacingLeft=0;spacingRight=0;verticalAlign=middle;html=1;labelBackgroundColor=#ffffff;rounded=0;exitX=1;exitY=0.5070422535211268;exitDx=0;exitDy=0;exitPerimeter=0;entryX=0;entryY=0.49624060150375937;entryDx=0;entryDy=0;entryPerimeter=0;" edge="1" parent="1" source="LqAOF11i0ZwZVFPnW95y-13" target="LqAOF11i0ZwZVFPnW95y-2">
            <mxGeometry relative="1" as="geometry">
              <mxPoint x="-20" y="100" as="offset" />
              <Array as="points">
                <mxPoint x="1009.9" y="395" />
                <mxPoint x="1009.9" y="393.82" />
              </Array>
            </mxGeometry>
          </mxCell>
        </UserObject>
        <UserObject label="" tags="Background" id="LqAOF11i0ZwZVFPnW95y-26">
          <mxCell style="vsdxID=25;edgeStyle=none;startArrow=none;endArrow=block;startSize=5;endSize=5;strokeWidth=2;spacingTop=0;spacingBottom=0;spacingLeft=0;spacingRight=0;verticalAlign=middle;html=1;labelBackgroundColor=#ffffff;rounded=0;exitX=0.5;exitY=1;exitDx=0;exitDy=0;exitPerimeter=0;entryX=0.5010266940451745;entryY=0;entryDx=0;entryDy=0;entryPerimeter=0;" edge="1" parent="1" source="LqAOF11i0ZwZVFPnW95y-7" target="LqAOF11i0ZwZVFPnW95y-11">
            <mxGeometry relative="1" as="geometry">
              <mxPoint x="344" y="159" as="offset" />
              <Array as="points">
                <mxPoint x="1232" y="231.08" />
                <mxPoint x="543.03" y="231.08" />
              </Array>
            </mxGeometry>
          </mxCell>
        </UserObject>
        <UserObject label="" tags="Background" id="LqAOF11i0ZwZVFPnW95y-27">
          <mxCell style="vsdxID=27;edgeStyle=none;startArrow=none;endArrow=block;startSize=5;endSize=5;strokeWidth=2;spacingTop=0;spacingBottom=0;spacingLeft=0;spacingRight=0;verticalAlign=middle;html=1;labelBackgroundColor=#ffffff;rounded=0;exitX=1.0123456790123457;exitY=0.5;exitDx=0;exitDy=0;exitPerimeter=0;entryX=0;entryY=0.5;entryDx=0;entryDy=0;entryPerimeter=0;" edge="1" parent="1" source="LqAOF11i0ZwZVFPnW95y-8" target="LqAOF11i0ZwZVFPnW95y-9">
            <mxGeometry relative="1" as="geometry">
              <mxPoint x="-16" y="101" as="offset" />
              <Array as="points" />
            </mxGeometry>
          </mxCell>
        </UserObject>
        <UserObject label="" tags="Background" id="LqAOF11i0ZwZVFPnW95y-28">
          <mxCell style="vsdxID=28;edgeStyle=none;startArrow=none;endArrow=none;startSize=5;endSize=5;strokeWidth=2;spacingTop=0;spacingBottom=0;spacingLeft=0;spacingRight=0;verticalAlign=middle;html=1;labelBackgroundColor=#ffffff;rounded=0;exitX=1.0022988505747126;exitY=0.4948453608247423;exitDx=0;exitDy=0;exitPerimeter=0;entryX=0;entryY=0.49645390070921985;entryDx=0;entryDy=0;entryPerimeter=0;" edge="1" parent="1" source="LqAOF11i0ZwZVFPnW95y-3" target="LqAOF11i0ZwZVFPnW95y-7">
            <mxGeometry relative="1" as="geometry">
              <mxPoint x="-103" y="101" as="offset" />
              <Array as="points" />
            </mxGeometry>
          </mxCell>
        </UserObject>
        <UserObject label="" tags="Background" id="LqAOF11i0ZwZVFPnW95y-29">
          <mxCell style="vsdxID=29;edgeStyle=none;startArrow=none;endArrow=block;startSize=5;endSize=5;strokeWidth=2;spacingTop=0;spacingBottom=0;spacingLeft=0;spacingRight=0;verticalAlign=middle;html=1;labelBackgroundColor=#ffffff;rounded=0;exitX=1.002053388090349;exitY=0.5023696682464455;exitDx=0;exitDy=0;exitPerimeter=0;entryX=0;entryY=0.5070422535211268;entryDx=0;entryDy=0;entryPerimeter=0;" edge="1" parent="1" source="LqAOF11i0ZwZVFPnW95y-11" target="LqAOF11i0ZwZVFPnW95y-13">
            <mxGeometry relative="1" as="geometry">
              <mxPoint x="-20" y="101" as="offset" />
              <Array as="points" />
            </mxGeometry>
          </mxCell>
        </UserObject>
        <UserObject label="" tags="Background" id="LqAOF11i0ZwZVFPnW95y-30">
          <mxCell style="vsdxID=30;edgeStyle=none;startArrow=none;endArrow=block;startSize=5;endSize=5;strokeWidth=2;spacingTop=0;spacingBottom=0;spacingLeft=0;spacingRight=0;verticalAlign=middle;html=1;labelBackgroundColor=#ffffff;rounded=0;exitX=0.5015673981191222;exitY=0;exitDx=0;exitDy=0;exitPerimeter=0;entryX=0.501628664495114;entryY=1;entryDx=0;entryDy=0;entryPerimeter=0;" edge="1" parent="1" source="LqAOF11i0ZwZVFPnW95y-1" target="LqAOF11i0ZwZVFPnW95y-18">
            <mxGeometry relative="1" as="geometry">
              <mxPoint y="72" as="offset" />
              <Array as="points">
                <mxPoint x="501" y="827.36" />
                <mxPoint x="501" y="827.36" />
              </Array>
            </mxGeometry>
          </mxCell>
        </UserObject>
        <UserObject label="" tags="Background" id="LqAOF11i0ZwZVFPnW95y-31">
          <mxCell style="vsdxID=31;edgeStyle=none;startArrow=none;endArrow=block;startSize=5;endSize=5;strokeWidth=2;spacingTop=0;spacingBottom=0;spacingLeft=0;spacingRight=0;verticalAlign=middle;html=1;labelBackgroundColor=#ffffff;rounded=0;exitX=1.0123456790123457;exitY=0.5;exitDx=0;exitDy=0;exitPerimeter=0;entryX=0;entryY=0.5;entryDx=0;entryDy=0;entryPerimeter=0;" edge="1" parent="1" source="LqAOF11i0ZwZVFPnW95y-4" target="LqAOF11i0ZwZVFPnW95y-5">
            <mxGeometry relative="1" as="geometry">
              <mxPoint x="-34" y="102" as="offset" />
              <Array as="points">
                <mxPoint x="485.4" y="94" />
                <mxPoint x="485.4" y="94" />
              </Array>
            </mxGeometry>
          </mxCell>
        </UserObject>
        <UserObject label="" tags="Background" id="LqAOF11i0ZwZVFPnW95y-32">
          <mxCell style="vsdxID=32;edgeStyle=none;startArrow=none;endArrow=block;startSize=5;endSize=5;strokeWidth=2;spacingTop=0;spacingBottom=0;spacingLeft=0;spacingRight=0;verticalAlign=middle;html=1;labelBackgroundColor=#ffffff;rounded=0;exitX=1.0064102564102564;exitY=0.5;exitDx=0;exitDy=0;exitPerimeter=0;entryX=0;entryY=0.5;entryDx=0;entryDy=0;entryPerimeter=0;" edge="1" parent="1" source="LqAOF11i0ZwZVFPnW95y-14" target="LqAOF11i0ZwZVFPnW95y-17">
            <mxGeometry relative="1" as="geometry">
              <mxPoint x="-32" y="101" as="offset" />
              <Array as="points" />
            </mxGeometry>
          </mxCell>
        </UserObject>
        <UserObject label="" tags="Background" id="LqAOF11i0ZwZVFPnW95y-33">
          <mxCell style="vsdxID=33;edgeStyle=none;startArrow=none;endArrow=block;startSize=5;endSize=5;strokeWidth=2;spacingTop=0;spacingBottom=0;spacingLeft=0;spacingRight=0;verticalAlign=middle;html=1;labelBackgroundColor=#ffffff;rounded=0;exitX=1;exitY=0.5037593984962406;exitDx=0;exitDy=0;exitPerimeter=0;entryX=1;entryY=0.5022421524663677;entryDx=0;entryDy=0;entryPerimeter=0;" edge="1" parent="1" source="LqAOF11i0ZwZVFPnW95y-2" target="LqAOF11i0ZwZVFPnW95y-12">
            <mxGeometry relative="1" as="geometry">
              <mxPoint x="-31" y="213" as="offset" />
              <Array as="points">
                <mxPoint x="1505.03" y="395" />
                <mxPoint x="1505.03" y="730.27" />
              </Array>
            </mxGeometry>
          </mxCell>
        </UserObject>
        <UserObject label="" tags="Background" id="LqAOF11i0ZwZVFPnW95y-34">
          <mxCell style="vsdxID=34;edgeStyle=none;startArrow=none;endArrow=block;startSize=5;endSize=5;strokeWidth=2;spacingTop=0;spacingBottom=0;spacingLeft=0;spacingRight=0;verticalAlign=middle;html=1;labelBackgroundColor=#ffffff;rounded=0;exitX=0;exitY=0.5022421524663677;exitDx=0;exitDy=0;exitPerimeter=0;entryX=1.003257328990228;entryY=0.5037037037037037;entryDx=0;entryDy=0;entryPerimeter=0;" edge="1" parent="1" source="LqAOF11i0ZwZVFPnW95y-12" target="LqAOF11i0ZwZVFPnW95y-18">
            <mxGeometry relative="1" as="geometry">
              <mxPoint x="86" y="102" as="offset" />
              <Array as="points">
                <mxPoint x="741.03" y="730" />
                <mxPoint x="741.03" y="730" />
              </Array>
            </mxGeometry>
          </mxCell>
        </UserObject>
      </root>
    </mxGraphModel>
  </diagram>
</mxfile>
